<svg width="306" height="306" viewBox="0 0 306 306" fill="none" xmlns="http://www.w3.org/2000/svg">
    <path
        d="M80.6999 110.334C96.5869 108.401 107.898 93.954 105.964 78.0671C104.031 62.1801 89.584 50.8689 73.697 52.8026C57.8101 54.7364 46.4988 69.183 48.4326 85.07C50.3664 100.957 64.8129 112.268 80.6999 110.334Z"
        fill="#EBEBEB" />
    <path
        d="M92.8445 97.2148C101.484 88.5749 101.484 74.5669 92.8445 65.927C84.2046 57.2872 70.1966 57.2872 61.5567 65.927C52.9169 74.5669 52.9168 88.5749 61.5567 97.2148C70.1966 105.855 84.2046 105.855 92.8445 97.2148Z"
        fill="white" />
    <path
        d="M77.1976 97.3814C85.9281 97.3814 93.0056 90.304 93.0056 81.5735C93.0056 72.843 85.9281 65.7655 77.1976 65.7655C68.4671 65.7655 61.3896 72.843 61.3896 81.5735C61.3896 90.304 68.4671 97.3814 77.1976 97.3814Z"
        fill="#EBEBEB" />
    <path
        d="M79.2266 90.0693C83.9224 88.9532 86.8243 84.2417 85.7082 79.5459C84.5921 74.8501 79.8807 71.9482 75.1849 73.0643C70.4891 74.1804 67.5871 78.8919 68.7032 83.5877C69.8193 88.2835 74.5308 91.1854 79.2266 90.0693Z"
        fill="white" />
    <path
        d="M73.2502 81.5735C73.2515 82.354 73.484 83.1166 73.9185 83.7649C74.353 84.4132 74.9699 84.9182 75.6913 85.2161C76.4127 85.5139 77.2062 85.5912 77.9715 85.4382C78.7368 85.2852 79.4396 84.9088 79.991 84.3565C80.5425 83.8042 80.9178 83.1008 81.0696 82.3352C81.2215 81.5697 81.1429 80.7763 80.844 80.0554C80.545 79.3344 80.0391 78.7183 79.3901 78.2848C78.7411 77.8514 77.9781 77.62 77.1976 77.62C76.6788 77.62 76.1649 77.7223 75.6856 77.9211C75.2063 78.1198 74.7709 78.4111 74.4042 78.7783C74.0376 79.1455 73.747 79.5814 73.549 80.061C73.3509 80.5407 73.2494 81.0546 73.2502 81.5735Z"
        fill="#EBEBEB" />
    <path d="M37.6225 41.0921L36.7224 41.9922L74.1725 79.4423L75.0727 78.5422L37.6225 41.0921Z"
        fill="#A6A6A6" />
    <path d="M72.3018 80.2577L77.1978 81.5735L75.8881 76.6775L72.3018 80.2577Z" fill="#A6A6A6" />
    <path
        d="M30.906 39.1069L37.9256 46.1265L43.4336 47.8095L41.7506 42.3015L34.731 35.2758L36.414 40.7838L30.906 39.1069Z"
        fill="#A6A6A6" />
    <path
        d="M206.899 33.8987L208.931 36.9281L212.444 37.9256L210.192 40.7898L210.326 44.4373L206.899 43.1827L203.478 44.4373L203.613 40.7898L201.36 37.9256L204.867 36.9281L206.899 33.8987Z"
        fill="#F9A51A" />
    <path
        d="M222.566 33.8987L224.598 36.9281L228.105 37.9256L225.852 40.7898L225.987 44.4373L222.566 43.1827L219.145 44.4373L219.279 40.7898L217.027 37.9256L220.534 36.9281L222.566 33.8987Z"
        fill="#F9A51A" />
    <path
        d="M238.227 33.8987L240.259 36.9281L243.766 37.9256L241.514 40.7898L241.654 44.4373L238.227 43.1827L234.806 44.4373L234.941 40.7898L232.688 37.9256L236.195 36.9281L238.227 33.8987Z"
        fill="#F9A51A" />
    <path
        d="M253.894 33.8987L255.926 36.9281L259.433 37.9256L257.181 40.7898L257.315 44.4373L253.894 43.1827L250.467 44.4373L250.608 40.7898L248.355 37.9256L251.862 36.9281L253.894 33.8987Z"
        fill="#F9A51A" />
    <path
        d="M265.81 44.878L265.963 40.8939L263.515 37.7543L267.352 36.6649L269.574 33.3479L271.802 36.6649L275.639 37.7543L273.191 40.8939L273.338 44.878L269.592 43.5071L265.81 44.878ZM269.556 42.84L272.658 43.9783L272.536 40.6797L274.574 38.0787L271.398 37.179L269.562 34.4373L267.726 37.179L264.549 38.0787L266.587 40.6797L266.465 43.9783L269.556 42.84Z"
        fill="#EBEBEB" />
    <path
        d="M269.555 43.1827V33.8987L267.523 36.9281L264.017 37.9256L266.269 40.7898L266.134 44.4373L269.555 43.1827Z"
        fill="#F9A51A" />
    <path fill-rule="evenodd" clip-rule="evenodd"
        d="M249.996 161.807C249.219 161.323 248.539 160.619 247.505 160.723C247.107 160.766 247.193 160.436 247.193 160.216C247.193 156.315 247.177 152.419 247.144 148.526C247.144 148.245 247.144 148.006 247.468 147.853C250.443 146.341 251.722 143.386 253.539 140.852C254.469 139.594 255.136 138.163 255.502 136.643C255.868 135.123 255.925 133.545 255.669 132.002C255.541 131.127 255.945 130.729 256.734 130.552C257.689 130.332 258.637 130.589 258.962 131.243C259.825 132.831 260.407 134.556 260.681 136.341C260.859 137.822 260.333 139.261 260.155 140.723C260.021 141.794 259.776 142.853 259.574 143.936C259.837 144.126 260.137 144.028 260.418 144.034H270.296C271.685 144.034 272.365 144.426 272.56 145.344C272.668 145.91 272.588 146.496 272.332 147.012C272.075 147.528 271.657 147.946 271.141 148.202C270.89 148.33 270.449 148.202 270.418 148.606C270.388 149.01 270.847 148.955 271.073 149.114C272.297 149.928 272.052 151.611 270.682 152.596C270.345 152.829 269.702 152.719 269.69 153.208C269.69 153.594 270.302 153.588 270.559 153.863C271.526 154.812 271.055 156.586 269.617 157.309C269.42 157.37 269.228 157.446 269.041 157.535C268.876 157.645 268.717 157.768 269.041 157.994C270.467 159.004 270.443 160.442 269.011 161.464L268.582 161.77C268.064 162.086 267.455 162.222 266.85 162.156C261.685 162.184 256.522 162.202 251.361 162.211C251.118 162.238 250.872 162.216 250.638 162.146C250.403 162.077 250.185 161.962 249.996 161.807Z"
        fill="#EBEBEB" />
    <path fill-rule="evenodd" clip-rule="evenodd"
        d="M235.29 154.983C235.29 152.535 235.29 150.032 235.253 147.553C235.253 147.051 235.302 146.801 235.92 146.807C238.943 146.839 241.962 146.839 244.978 146.807C245.59 146.807 245.663 147.002 245.663 147.529C245.663 152.51 245.679 157.492 245.712 162.474C245.712 163.086 245.547 163.288 244.91 163.282C241.985 163.282 239.053 163.282 236.122 163.318C235.394 163.318 235.296 163.074 235.302 162.437C235.326 159.934 235.296 157.462 235.29 154.983Z"
        fill="#EBEBEB" />
    <path
        d="M120.998 273.527H40.8265C40.4012 273.527 39.9934 273.358 39.6927 273.058C39.392 272.757 39.223 272.349 39.223 271.924V262.37C39.223 262.34 39.223 262.309 39.223 262.279C39.223 262.248 39.223 262.169 39.223 262.107L48.96 226.52L36.4078 148.716L32.2156 147.259C31.849 147.109 31.5512 146.827 31.3797 146.47C31.2082 146.113 31.1752 145.704 31.287 145.324C31.3988 144.944 31.6476 144.618 31.9852 144.411C32.3228 144.203 32.7254 144.128 33.1153 144.199L38.2867 145.944C38.5796 146.029 38.8419 146.197 39.0426 146.427C39.2432 146.657 39.3738 146.939 39.4189 147.241L52.173 226.311C52.2067 226.489 52.2067 226.672 52.173 226.85L42.7604 260.951L117.424 266.257C117.839 266.286 118.226 266.472 118.508 266.777L122.18 270.853C122.386 271.083 122.522 271.368 122.57 271.673C122.618 271.979 122.577 272.292 122.452 272.574C122.326 272.857 122.122 273.097 121.863 273.266C121.604 273.436 121.302 273.526 120.992 273.527H120.998ZM42.4483 270.326H117.388L116.561 269.408L42.4483 264.139V270.326Z"
        fill="#C7C7C7" />
    <path
        d="M150.344 173.998H42.3016C42.0831 174.011 41.8641 173.98 41.6582 173.905C41.4523 173.831 41.2638 173.715 41.1043 173.566C40.9448 173.416 40.8177 173.235 40.7308 173.034C40.6439 172.833 40.5991 172.616 40.5991 172.397C40.5991 172.178 40.6439 171.962 40.7308 171.761C40.8177 171.56 40.9448 171.379 41.1043 171.229C41.2638 171.079 41.4523 170.963 41.6582 170.889C41.8641 170.815 42.0831 170.783 42.3016 170.797H150.344C150.563 170.783 150.781 170.815 150.987 170.889C151.193 170.963 151.382 171.079 151.541 171.229C151.701 171.379 151.828 171.56 151.915 171.761C152.002 171.962 152.047 172.178 152.047 172.397C152.047 172.616 152.002 172.833 151.915 173.034C151.828 173.235 151.701 173.416 151.541 173.566C151.382 173.715 151.193 173.831 150.987 173.905C150.781 173.98 150.563 174.011 150.344 173.998Z"
        fill="#C7C7C7" />
    <path
        d="M50.5879 227.089C50.4558 227.074 50.3335 227.012 50.2447 226.913C50.1558 226.814 50.1067 226.686 50.1067 226.553C50.1067 226.42 50.1558 226.292 50.2447 226.193C50.3335 226.094 50.4558 226.032 50.5879 226.018L131.751 221.679L147.731 172.235C147.752 172.168 147.787 172.106 147.832 172.053C147.878 171.999 147.933 171.956 147.996 171.924C148.059 171.892 148.127 171.873 148.197 171.867C148.267 171.862 148.337 171.87 148.404 171.892C148.471 171.916 148.532 171.953 148.584 172.001C148.636 172.049 148.678 172.107 148.707 172.172C148.736 172.236 148.752 172.306 148.754 172.377C148.755 172.448 148.742 172.518 148.716 172.584L132.62 222.376C132.588 222.48 132.525 222.571 132.44 222.637C132.355 222.704 132.251 222.743 132.143 222.75L50.6185 227.083L50.5879 227.089Z"
        fill="#C7C7C7" />
    <path
        d="M133.514 218.264H49.1069C48.9657 218.264 48.8303 218.208 48.7304 218.108C48.6306 218.008 48.5745 217.872 48.5745 217.731C48.5745 217.59 48.6306 217.455 48.7304 217.355C48.8303 217.255 48.9657 217.199 49.1069 217.199H133.514C133.655 217.199 133.791 217.255 133.89 217.355C133.99 217.455 134.046 217.59 134.046 217.731C134.046 217.872 133.99 218.008 133.89 218.108C133.791 218.208 133.655 218.264 133.514 218.264Z"
        fill="#C7C7C7" />
    <path
        d="M135.662 211.752H48.1093C47.9681 211.752 47.8327 211.696 47.7329 211.596C47.633 211.496 47.5769 211.361 47.5769 211.22C47.5769 211.078 47.633 210.943 47.7329 210.843C47.8327 210.743 47.9681 210.687 48.1093 210.687H135.662C135.803 210.687 135.939 210.743 136.039 210.843C136.138 210.943 136.195 211.078 136.195 211.22C136.195 211.361 136.138 211.496 136.039 211.596C135.939 211.696 135.803 211.752 135.662 211.752Z"
        fill="#C7C7C7" />
    <path
        d="M137.645 205.283H47.1241C46.9919 205.269 46.8696 205.206 46.7808 205.108C46.692 205.009 46.6428 204.88 46.6428 204.748C46.6428 204.615 46.692 204.486 46.7808 204.388C46.8696 204.289 46.9919 204.226 47.1241 204.212H137.645C137.72 204.204 137.796 204.212 137.868 204.235C137.94 204.258 138.006 204.296 138.062 204.347C138.118 204.397 138.163 204.459 138.194 204.528C138.225 204.597 138.241 204.672 138.241 204.748C138.241 204.823 138.225 204.898 138.194 204.967C138.163 205.036 138.118 205.098 138.062 205.148C138.006 205.199 137.94 205.237 137.868 205.26C137.796 205.283 137.72 205.291 137.645 205.283Z"
        fill="#C7C7C7" />
    <path
        d="M139.799 198.79H46.1264C46.0513 198.798 45.9753 198.79 45.9034 198.767C45.8315 198.743 45.7653 198.705 45.7091 198.655C45.6529 198.604 45.608 198.543 45.5772 198.474C45.5464 198.405 45.5305 198.33 45.5305 198.254C45.5305 198.179 45.5464 198.104 45.5772 198.035C45.608 197.966 45.6529 197.904 45.7091 197.854C45.7653 197.803 45.8315 197.765 45.9034 197.742C45.9753 197.719 46.0513 197.711 46.1264 197.719H139.799C139.931 197.733 140.054 197.795 140.142 197.894C140.231 197.993 140.28 198.121 140.28 198.254C140.28 198.387 140.231 198.515 140.142 198.614C140.054 198.713 139.931 198.776 139.799 198.79Z"
        fill="#C7C7C7" />
    <path
        d="M141.85 192.296H45.1535C45.0123 192.296 44.8769 192.24 44.777 192.14C44.6772 192.041 44.6211 191.905 44.6211 191.764C44.6211 191.623 44.6772 191.487 44.777 191.388C44.8769 191.288 45.0123 191.232 45.1535 191.232H141.85C141.991 191.232 142.126 191.288 142.226 191.388C142.326 191.487 142.382 191.623 142.382 191.764C142.382 191.905 142.326 192.041 142.226 192.14C142.126 192.24 141.991 192.296 141.85 192.296Z"
        fill="#C7C7C7" />
    <path
        d="M144.053 185.803H44.1374C43.9962 185.803 43.8608 185.747 43.7609 185.647C43.6611 185.547 43.605 185.412 43.605 185.271C43.605 185.13 43.6611 184.994 43.7609 184.894C43.8608 184.794 43.9962 184.738 44.1374 184.738H144.053C144.194 184.738 144.329 184.794 144.429 184.894C144.529 184.994 144.585 185.13 144.585 185.271C144.585 185.412 144.529 185.547 144.429 185.647C144.329 185.747 144.194 185.803 144.053 185.803Z"
        fill="#C7C7C7" />
    <path
        d="M146.152 179.316H43.146C43.0048 179.316 42.8693 179.26 42.7695 179.16C42.6696 179.06 42.6135 178.925 42.6135 178.784C42.6135 178.642 42.6696 178.507 42.7695 178.407C42.8693 178.307 43.0048 178.251 43.146 178.251H146.152C146.293 178.251 146.428 178.307 146.528 178.407C146.628 178.507 146.684 178.642 146.684 178.784C146.684 178.925 146.628 179.06 146.528 179.16C146.428 179.26 146.293 179.316 146.152 179.316Z"
        fill="#C7C7C7" />
    <path
        d="M57.8769 226.44C57.7418 226.44 57.6116 226.389 57.5128 226.297C57.4139 226.205 57.3537 226.079 57.3444 225.944L53.244 172.437C53.2382 172.367 53.2463 172.297 53.2678 172.231C53.2894 172.164 53.3239 172.103 53.3695 172.05C53.4151 171.997 53.4707 171.953 53.5333 171.922C53.5958 171.891 53.6639 171.872 53.7336 171.868C53.8742 171.859 54.0127 171.905 54.1199 171.997C54.2272 172.088 54.2949 172.217 54.3089 172.357L58.4093 225.828C58.4194 225.968 58.3736 226.107 58.2819 226.213C58.1902 226.32 58.06 226.386 57.9197 226.397L57.8769 226.44Z"
        fill="#C7C7C7" />
    <path
        d="M124.052 222.921C124.008 222.927 123.962 222.927 123.918 222.921C123.781 222.884 123.665 222.794 123.594 222.671C123.523 222.549 123.503 222.403 123.538 222.266L137.131 172.278C137.168 172.141 137.258 172.025 137.38 171.954C137.503 171.883 137.649 171.863 137.786 171.898C137.853 171.917 137.916 171.948 137.972 171.991C138.027 172.034 138.073 172.088 138.108 172.148C138.143 172.209 138.165 172.276 138.174 172.346C138.183 172.415 138.178 172.486 138.159 172.553L124.573 222.542C124.537 222.652 124.468 222.748 124.375 222.816C124.281 222.885 124.168 222.921 124.052 222.921Z"
        fill="#C7C7C7" />
    <path
        d="M66.402 226.012C66.2623 226.01 66.1287 225.954 66.0294 225.856C65.93 225.758 65.8727 225.625 65.8696 225.485L64.5476 172.413C64.5459 172.271 64.5992 172.135 64.6963 172.032C64.7934 171.929 64.9266 171.868 65.0678 171.862C65.2076 171.862 65.3418 171.916 65.4423 172.013C65.5428 172.11 65.6016 172.242 65.6064 172.382L66.9222 225.461C66.9255 225.603 66.8727 225.74 66.7753 225.843C66.6779 225.946 66.5438 226.007 66.402 226.012Z"
        fill="#C7C7C7" />
    <path
        d="M75.1536 225.534C75.0837 225.533 75.0148 225.517 74.9508 225.489C74.8868 225.461 74.829 225.42 74.7807 225.37C74.7324 225.319 74.6945 225.259 74.6693 225.194C74.644 225.129 74.6318 225.059 74.6334 224.99L75.6126 172.388C75.6158 172.248 75.6731 172.116 75.7725 172.017C75.8718 171.919 76.0054 171.863 76.1451 171.862C76.215 171.863 76.2839 171.879 76.3479 171.907C76.4119 171.935 76.4697 171.976 76.518 172.026C76.5663 172.077 76.6042 172.137 76.6295 172.202C76.6547 172.267 76.6669 172.337 76.6653 172.406L75.6861 225.038C75.6768 225.173 75.6166 225.299 75.5177 225.391C75.4189 225.484 75.2887 225.535 75.1536 225.534Z"
        fill="#C7C7C7" />
    <path
        d="M114.738 223.337H114.634C114.498 223.31 114.378 223.231 114.3 223.117C114.222 223.002 114.193 222.861 114.218 222.725L124.542 172.321C124.573 172.187 124.653 172.07 124.767 171.993C124.88 171.916 125.018 171.884 125.154 171.905C125.289 171.933 125.408 172.012 125.486 172.127C125.564 172.241 125.594 172.381 125.57 172.517L115.246 222.921C115.219 223.037 115.155 223.14 115.063 223.215C114.971 223.291 114.857 223.333 114.738 223.337Z"
        fill="#C7C7C7" />
    <path
        d="M104.126 223.992H104.04C103.901 223.968 103.777 223.89 103.695 223.776C103.612 223.662 103.578 223.519 103.599 223.38L111.959 172.339C111.983 172.201 112.061 172.077 112.176 171.996C112.29 171.914 112.433 171.882 112.571 171.905C112.64 171.916 112.706 171.94 112.766 171.977C112.825 172.014 112.876 172.063 112.917 172.12C112.957 172.177 112.986 172.241 113.001 172.309C113.017 172.377 113.018 172.448 113.006 172.517L104.652 223.527C104.635 223.655 104.572 223.772 104.475 223.857C104.379 223.942 104.255 223.99 104.126 223.992Z"
        fill="#C7C7C7" />
    <path
        d="M84.1134 225.026H84.0705C84.0008 225.022 83.9327 225.003 83.8702 224.972C83.8077 224.941 83.752 224.897 83.7064 224.844C83.6608 224.791 83.6263 224.73 83.6047 224.663C83.5832 224.597 83.5751 224.527 83.5809 224.457L87.4794 172.358C87.4899 172.216 87.5561 172.085 87.6635 171.993C87.7708 171.9 87.9104 171.854 88.0516 171.865C88.1928 171.875 88.324 171.942 88.4164 172.049C88.5088 172.156 88.5548 172.296 88.5443 172.437L84.6458 224.537C84.6337 224.67 84.5724 224.794 84.474 224.884C84.3756 224.975 84.2471 225.025 84.1134 225.026Z"
        fill="#C7C7C7" />
    <path
        d="M94.609 224.347H94.5478C94.4763 224.339 94.4071 224.316 94.3444 224.281C94.2818 224.245 94.2268 224.198 94.1829 224.141C94.139 224.083 94.1069 224.018 94.0886 223.949C94.0704 223.879 94.0663 223.806 94.0766 223.735L99.7927 172.327C99.8003 172.257 99.8215 172.19 99.8552 172.129C99.8889 172.067 99.9343 172.013 99.9888 171.97C100.043 171.926 100.106 171.893 100.173 171.874C100.24 171.854 100.311 171.848 100.38 171.856C100.45 171.863 100.517 171.885 100.578 171.918C100.64 171.952 100.694 171.997 100.737 172.052C100.781 172.106 100.814 172.169 100.833 172.236C100.853 172.303 100.859 172.374 100.851 172.443L95.1353 223.851C95.1261 223.985 95.0668 224.11 94.9692 224.202C94.8717 224.294 94.743 224.346 94.609 224.347Z"
        fill="#C7C7C7" />
    <path
        d="M51.2305 281.863C54.5327 281.863 57.2097 279.186 57.2097 275.883C57.2097 272.581 54.5327 269.904 51.2305 269.904C47.9282 269.904 45.2512 272.581 45.2512 275.883C45.2512 279.186 47.9282 281.863 51.2305 281.863Z"
        fill="#263238" />
    <path
        d="M53.9477 275.883C53.9477 276.421 53.7884 276.946 53.4898 277.393C53.1912 277.84 52.7668 278.188 52.2703 278.394C51.7738 278.6 51.2274 278.653 50.7003 278.548C50.1732 278.444 49.6891 278.185 49.3091 277.805C48.929 277.425 48.6702 276.941 48.5654 276.414C48.4606 275.886 48.5144 275.34 48.72 274.844C48.9257 274.347 49.274 273.923 49.7208 273.624C50.1677 273.325 50.693 273.166 51.2305 273.166C51.9511 273.166 52.6423 273.452 53.1519 273.962C53.6615 274.472 53.9477 275.163 53.9477 275.883Z"
        fill="#EBEBEB" />
    <path
        d="M104.738 281.863C108.04 281.863 110.717 279.186 110.717 275.883C110.717 272.581 108.04 269.904 104.738 269.904C101.436 269.904 98.7585 272.581 98.7585 275.883C98.7585 279.186 101.436 281.863 104.738 281.863Z"
        fill="#263238" />
    <path
        d="M107.455 275.883C107.455 276.421 107.296 276.946 106.997 277.393C106.699 277.84 106.274 278.188 105.778 278.394C105.281 278.6 104.735 278.653 104.208 278.548C103.681 278.444 103.196 278.185 102.816 277.805C102.436 277.425 102.178 276.941 102.073 276.414C101.968 275.886 102.022 275.34 102.227 274.844C102.433 274.347 102.781 273.923 103.228 273.624C103.675 273.325 104.2 273.166 104.738 273.166C105.458 273.166 106.15 273.452 106.659 273.962C107.169 274.472 107.455 275.163 107.455 275.883Z"
        fill="#EBEBEB" />
    <path
        d="M36.6527 149.04C36.4312 149.041 36.2115 149.002 36.004 148.924L27.5829 145.729C27.3575 145.644 27.1511 145.515 26.9756 145.349C26.8 145.184 26.6588 144.986 26.5599 144.766C26.461 144.546 26.4064 144.309 26.3993 144.068C26.3921 143.826 26.4324 143.586 26.518 143.361C26.6036 143.136 26.7328 142.929 26.8981 142.754C27.0635 142.578 27.2618 142.437 27.4817 142.338C27.7016 142.239 27.9389 142.185 28.1799 142.177C28.4209 142.17 28.661 142.21 28.8864 142.296L37.332 145.491C37.7319 145.645 38.0654 145.933 38.2748 146.307C38.4841 146.681 38.5562 147.116 38.4784 147.537C38.4007 147.959 38.1781 148.34 37.8492 148.614C37.5202 148.889 37.1056 149.039 36.6772 149.04H36.6527Z"
        fill="#009196" />
    <path
        d="M29.731 281.863C108.679 281.489 197.297 281.483 276.269 281.863C197.321 282.242 108.703 282.236 29.731 281.863Z"
        fill="#263238" />
    <path
        d="M224.748 47.5585H121.283C119.896 47.5713 118.525 47.8572 117.248 48.3999C115.971 48.9426 114.814 49.7315 113.842 50.7214C112.871 51.7114 112.103 52.8831 111.584 54.1697C111.065 55.4562 110.805 56.8323 110.818 58.2195V271.196C110.793 273.997 111.882 276.693 113.844 278.692C115.806 280.691 118.482 281.829 121.283 281.857H224.748C227.55 281.829 230.227 280.691 232.191 278.693C234.155 276.694 235.246 273.998 235.225 271.196V58.2195C235.248 55.4168 234.157 52.7197 232.193 50.7207C230.228 48.7217 227.55 47.5843 224.748 47.5585ZM228.677 264.617C228.677 270.222 224.478 274.757 219.301 274.757H126.742C121.552 274.757 117.354 270.222 117.354 264.617V66.2918C117.354 54.8719 121.552 54.315 126.742 54.315H145.286C146.363 54.315 147.244 55.539 147.244 57.0567V57.7116C147.244 61.2673 149.19 61.2795 151.577 61.2795H194.442C196.853 61.2795 198.787 61.2795 198.787 57.7116V57.0567C198.787 55.539 199.656 54.315 200.751 54.315H219.289C224.466 54.315 228.665 55.8327 228.665 66.2918L228.677 264.617Z"
        fill="#263238" />
    <path
        d="M228.714 66.4693V264.794C228.714 270.4 224.515 274.935 219.338 274.935H126.748C121.558 274.935 117.36 270.4 117.36 264.794V66.4693C117.36 55.08 121.558 54.468 126.748 54.468H145.292C146.369 54.468 147.25 55.692 147.25 57.2098V57.8646C147.25 61.4203 149.196 61.4326 151.583 61.4326H194.442C196.853 61.4326 198.787 61.4326 198.787 57.8646V57.2343C198.787 55.7165 199.656 54.4925 200.751 54.4925H219.289C224.485 54.468 228.714 56.0103 228.714 66.4693Z"
        fill="white" />
    <path
        d="M178.866 56.8364H167.171C166.979 56.8364 166.795 56.7603 166.66 56.6249C166.525 56.4895 166.448 56.3058 166.448 56.1143C166.448 55.9227 166.525 55.739 166.66 55.6036C166.795 55.4682 166.979 55.3921 167.171 55.3921H178.866C179.057 55.3921 179.241 55.4682 179.377 55.6036C179.512 55.739 179.588 55.9227 179.588 56.1143C179.588 56.3058 179.512 56.4895 179.377 56.6249C179.241 56.7603 179.057 56.8364 178.866 56.8364Z"
        fill="white" />
    <path
        d="M142.085 58.7521L141.907 58.9295L141.803 59.0336C141.345 58.5776 140.724 58.3217 140.077 58.3217C139.431 58.3217 138.81 58.5776 138.352 59.0336C138.316 59.0019 138.283 58.9671 138.254 58.9295C138.192 58.8745 138.137 58.8133 138.076 58.7521C138.156 58.6909 138.229 58.6174 138.303 58.5562C138.463 58.4223 138.64 58.3092 138.829 58.2196C139.047 58.1094 139.28 58.0311 139.52 57.9871L139.869 57.9442H140.175H140.408C140.617 57.9666 140.823 58.016 141.02 58.0911C141.17 58.1459 141.316 58.2135 141.454 58.2931C141.598 58.3783 141.735 58.4745 141.864 58.5807L142.054 58.7521H142.085Z"
        fill="#A6A6A6" />
    <path
        d="M138.915 59.6149C138.823 59.517 138.731 59.4252 138.633 59.3334C138.822 59.1434 139.046 58.9926 139.294 58.8897C139.541 58.7867 139.806 58.7338 140.074 58.7338C140.342 58.7338 140.607 58.7867 140.855 58.8897C141.102 58.9926 141.327 59.1434 141.516 59.3334L141.234 59.6149C140.926 59.3074 140.509 59.1346 140.074 59.1346C139.639 59.1346 139.222 59.3074 138.915 59.6149Z"
        fill="#A6A6A6" />
    <path
        d="M140.952 59.8965L140.671 60.178C140.513 60.0218 140.3 59.9342 140.077 59.9342C139.855 59.9342 139.642 60.0218 139.484 60.178C139.386 60.0862 139.294 59.9883 139.202 59.8965C139.316 59.7799 139.452 59.6873 139.603 59.624C139.753 59.5608 139.914 59.5282 140.077 59.5282C140.24 59.5282 140.402 59.5608 140.552 59.624C140.702 59.6873 140.838 59.7799 140.952 59.8965Z"
        fill="#A6A6A6" />
    <path
        d="M140.328 60.435C140.328 60.5016 140.302 60.5654 140.255 60.6124C140.208 60.6595 140.144 60.6859 140.077 60.6859C140.044 60.6868 140.011 60.6809 139.979 60.6686C139.948 60.6564 139.92 60.638 139.896 60.6146C139.872 60.5913 139.853 60.5633 139.84 60.5325C139.827 60.5016 139.82 60.4685 139.82 60.435C139.82 60.3668 139.847 60.3015 139.896 60.2533C139.944 60.2051 140.009 60.178 140.077 60.178C140.111 60.178 140.144 60.1847 140.175 60.1976C140.206 60.2106 140.234 60.2297 140.257 60.2536C140.28 60.2776 140.299 60.306 140.311 60.3371C140.323 60.3683 140.329 60.4016 140.328 60.435Z"
        fill="#A6A6A6" />
    <path
        d="M124.612 59.3089C124.612 59.1624 124.656 59.0192 124.737 58.8975C124.818 58.7757 124.934 58.6808 125.069 58.6247C125.205 58.5687 125.354 58.554 125.497 58.5826C125.641 58.6112 125.773 58.6817 125.876 58.7853C125.98 58.8888 126.051 59.0208 126.079 59.1644C126.108 59.3081 126.093 59.457 126.037 59.5923C125.981 59.7276 125.886 59.8432 125.764 59.9246C125.642 60.006 125.499 60.0494 125.353 60.0494C125.156 60.0494 124.968 59.9714 124.829 59.8325C124.69 59.6936 124.612 59.5053 124.612 59.3089Z"
        fill="#A6A6A6" />
    <path
        d="M126.938 59.3089C126.938 59.1624 126.981 59.0192 127.063 58.8975C127.144 58.7757 127.26 58.6808 127.395 58.6247C127.53 58.5687 127.679 58.554 127.823 58.5826C127.966 58.6112 128.098 58.6817 128.202 58.7853C128.305 58.8888 128.376 59.0208 128.405 59.1644C128.433 59.3081 128.418 59.457 128.362 59.5923C128.306 59.7276 128.211 59.8432 128.09 59.9246C127.968 60.006 127.825 60.0494 127.678 60.0494C127.581 60.0494 127.485 60.0302 127.395 59.993C127.305 59.9558 127.223 59.9013 127.155 59.8325C127.086 59.7637 127.031 59.6821 126.994 59.5923C126.957 59.5024 126.938 59.4061 126.938 59.3089Z"
        fill="#A6A6A6" />
    <path
        d="M129.263 59.3089C129.263 59.1621 129.307 59.0187 129.389 58.8968C129.47 58.7749 129.586 58.68 129.722 58.6241C129.858 58.5683 130.007 58.554 130.151 58.583C130.295 58.6121 130.426 58.6833 130.53 58.7874C130.633 58.8916 130.703 59.0241 130.731 59.1682C130.759 59.3122 130.743 59.4613 130.686 59.5965C130.629 59.7317 130.533 59.8469 130.411 59.9276C130.288 60.0082 130.145 60.0506 129.998 60.0494C129.901 60.0494 129.805 60.0302 129.715 59.9929C129.626 59.9556 129.545 59.901 129.476 59.8321C129.408 59.7633 129.354 59.6816 129.318 59.5918C129.281 59.502 129.263 59.4058 129.263 59.3089Z"
        fill="#A6A6A6" />
    <path
        d="M131.589 59.3089C131.589 59.1621 131.633 59.0187 131.714 58.8968C131.796 58.7749 131.912 58.68 132.048 58.6241C132.183 58.5683 132.333 58.554 132.476 58.583C132.62 58.6121 132.752 58.6833 132.855 58.7874C132.959 58.8916 133.029 59.0241 133.057 59.1682C133.085 59.3122 133.069 59.4613 133.012 59.5965C132.955 59.7317 132.859 59.8469 132.737 59.9276C132.614 60.0082 132.47 60.0506 132.324 60.0494C132.227 60.0494 132.131 60.0302 132.041 59.9929C131.952 59.9556 131.87 59.901 131.802 59.8321C131.734 59.7633 131.68 59.6816 131.643 59.5918C131.607 59.502 131.588 59.4058 131.589 59.3089Z"
        fill="#A6A6A6" />
    <path
        d="M133.908 59.3089C133.908 59.1624 133.952 59.0192 134.033 58.8975C134.115 58.7757 134.23 58.6808 134.366 58.6247C134.501 58.5687 134.65 58.554 134.793 58.5826C134.937 58.6112 135.069 58.6817 135.173 58.7853C135.276 58.8888 135.347 59.0208 135.375 59.1644C135.404 59.3081 135.389 59.457 135.333 59.5923C135.277 59.7276 135.182 59.8432 135.06 59.9246C134.939 60.006 134.795 60.0494 134.649 60.0494C134.453 60.0494 134.264 59.9714 134.125 59.8325C133.986 59.6936 133.908 59.5053 133.908 59.3089Z"
        fill="#A6A6A6" />
    <path
        d="M220.329 60.9246H214.319V58.14H220.329V60.9246ZM214.625 60.6186H220.023V58.446H214.637L214.625 60.6186Z"
        fill="#A6A6A6" />
    <path d="M218.695 58.6112H214.821V60.4472H218.695V58.6112Z" fill="#A6A6A6" />
    <path d="M220.862 58.7887H220.329V60.2759H220.862V58.7887Z" fill="#A6A6A6" />
    <path d="M179.417 45.9734H166.632V76.0532H179.417V45.9734Z" fill="#009196" />
    <path
        d="M179.411 76.0471C179.411 76.0471 178.187 82.1671 173.021 82.1671C167.856 82.1671 166.632 76.0471 166.632 76.0471H179.411Z"
        fill="#009196" />
    <path opacity="0.1"
        d="M179.411 76.0471C179.411 76.0471 178.187 82.1671 173.021 82.1671C167.856 82.1671 166.632 76.0471 166.632 76.0471H179.411Z"
        fill="black" />
    <path d="M166.626 76.0532H153.841L155.145 45.9734H166.626V76.0532Z" fill="white" />
    <path
        d="M166.626 76.0532L153.841 76.1328H153.756C153.756 76.1328 154.98 46.0102 154.98 45.9673V45.8204H155.12H166.601H166.73C166.779 45.9367 166.65 60.894 166.681 61.0164L166.601 76.0226L166.626 76.0532ZM166.626 76.0532L166.546 60.9797L166.504 45.9734L166.626 46.0958L155.145 46.1264L155.298 45.9796C155.255 45.9796 154.037 76.4082 153.841 75.9676L166.626 76.0471V76.0532Z"
        fill="#263238" />
    <path
        d="M166.632 76.0471C166.632 76.0471 165.408 82.1671 160.231 82.1671C155.053 82.1671 153.841 76.0471 153.841 76.0471H166.632Z"
        fill="#EBEBEB" />
    <path d="M153.841 76.0532H141.057L143.664 45.9734H155.145L153.841 76.0532Z" fill="#009196" />
    <path
        d="M153.841 76.0471C153.841 76.0471 152.617 82.1671 147.446 82.1671C142.275 82.1671 141.057 76.0471 141.057 76.0471H153.841Z"
        fill="#009196" />
    <path opacity="0.1"
        d="M153.841 76.0471C153.841 76.0471 152.617 82.1671 147.446 82.1671C142.275 82.1671 141.057 76.0471 141.057 76.0471H153.841Z"
        fill="black" />
    <path d="M141.051 76.0532H128.266L132.183 45.9734H143.664L141.051 76.0532Z" fill="white" />
    <path
        d="M141.051 76.0532L128.266 76.1328H128.174C128.174 76.1328 132.017 46.004 132.017 45.9551V45.8204H132.152H143.633H143.768V45.9551L142.421 61.0531L141.038 76.0532H141.051ZM141.051 76.0532L142.275 60.9736L143.535 45.9612L143.658 46.0958L132.177 46.1264L132.323 45.9918C132.281 45.9918 128.437 76.4327 128.26 75.9798L141.044 76.0594L141.051 76.0532Z"
        fill="#263238" />
    <path
        d="M141.051 76.0471C141.051 76.0471 139.827 82.1671 134.655 82.1671C129.484 82.1671 128.266 76.0471 128.266 76.0471H141.051Z"
        fill="#EBEBEB" />
    <path d="M128.266 76.0532H115.481L120.702 45.9734H132.177L128.266 76.0532Z" fill="#009196" />
    <path
        d="M128.266 76.0471C128.266 76.0471 127.042 82.1671 121.877 82.1671C116.711 82.1671 115.475 76.0471 115.475 76.0471H128.266Z"
        fill="#009196" />
    <path opacity="0.1"
        d="M128.266 76.0471C128.266 76.0471 127.042 82.1671 121.877 82.1671C116.711 82.1671 115.475 76.0471 115.475 76.0471H128.266Z"
        fill="black" />
    <path
        d="M115.493 76.0532H102.69L108.4 49.7372C108.872 47.5646 111.185 45.9795 113.908 45.9795H120.695L115.493 76.0532Z"
        fill="white" />
    <path
        d="M115.493 76.0532L102.709 76.1328H102.611V76.0349C103.413 72.2956 107.262 54.3578 107.972 51.0347C108.095 50.1739 108.34 49.3352 108.7 48.5438C110.053 46.0958 113.052 45.6613 115.585 45.8327H120.695H120.848L120.818 45.9734L118.162 61.0409L115.493 76.0532ZM115.493 76.0532L118.027 60.9674L120.591 45.949L120.714 46.0958H115.604C113.156 45.949 110.298 46.3406 108.976 48.6785C108.627 49.4423 108.39 50.2523 108.272 51.0836L107.176 56.0776L102.788 76.0594L102.709 75.9614L115.493 76.041V76.0532Z"
        fill="#263238" />
    <path
        d="M115.493 76.0471C115.493 76.0471 114.269 82.1671 109.104 82.1671C103.939 82.1671 102.715 76.0471 102.715 76.0471H115.493Z"
        fill="#EBEBEB" />
    <path d="M179.417 76.0532H192.201L190.898 45.9734H179.417V76.0532Z" fill="white" />
    <path
        d="M179.417 76.0533L192.202 75.9737L192.122 76.0533L190.769 45.9796L190.922 46.1265L179.441 46.0959L179.564 45.9735L179.521 60.9797L179.441 76.0533H179.417ZM179.417 76.0533L179.337 61.047L179.294 45.9735V45.8511H179.423H190.904H191.045V45.998C191.045 46.1081 192.269 76.0655 192.269 76.1634H192.183L179.398 76.0839L179.417 76.0533Z"
        fill="#263238" />
    <path
        d="M192.201 76.0471C192.201 76.0471 190.977 82.1671 185.812 82.1671C180.647 82.1671 179.411 76.0471 179.411 76.0471H192.201Z"
        fill="#EBEBEB" />
    <path d="M192.202 76.0532H204.986L202.379 45.9734H190.898L192.202 76.0532Z" fill="#009196" />
    <path
        d="M204.986 76.0471C204.986 76.0471 203.762 82.1671 198.597 82.1671C193.432 82.1671 192.201 76.0471 192.201 76.0471H204.986Z"
        fill="#009196" />
    <path opacity="0.1"
        d="M204.986 76.0471C204.986 76.0471 203.762 82.1671 198.597 82.1671C193.432 82.1671 192.201 76.0471 192.201 76.0471H204.986Z"
        fill="black" />
    <path d="M204.992 76.0532H217.777L213.86 45.9734H202.379L204.992 76.0532Z" fill="white" />
    <path
        d="M204.992 76.0533L217.777 75.9737C217.6 76.5245 213.775 45.8694 213.713 45.9857L213.86 46.1204L202.398 46.0959L202.52 45.9612C203.163 53.4582 204.405 68.5502 205.011 76.0533H204.992ZM204.992 76.0533L203.622 61.0532L202.269 45.9857V45.8511H202.398H213.879H214.026C214.068 46.0714 217.863 75.9309 217.9 76.1634H217.808L205.023 76.0839L204.992 76.0533Z"
        fill="#263238" />
    <path
        d="M217.777 76.0471C217.777 76.0471 216.553 82.1671 211.388 82.1671C206.223 82.1671 204.992 76.0471 204.992 76.0471H217.777Z"
        fill="#EBEBEB" />
    <path d="M217.777 76.0532H230.562L225.341 45.9734H213.866L217.777 76.0532Z" fill="#009196" />
    <path
        d="M230.549 76.0471C230.549 76.0471 229.325 82.1671 224.148 82.1671C218.97 82.1671 217.759 76.0471 217.759 76.0471H230.549Z"
        fill="#009196" />
    <path opacity="0.1"
        d="M230.549 76.0471C230.549 76.0471 229.325 82.1671 224.148 82.1671C218.97 82.1671 217.759 76.0471 217.759 76.0471H230.549Z"
        fill="black" />
    <path
        d="M230.549 76.0532H243.334L237.624 49.7372C237.153 47.5646 234.84 45.9795 232.116 45.9795H225.347L230.549 76.0532Z"
        fill="white" />
    <path
        d="M230.549 76.0532L243.334 75.9737L243.254 76.0716L238.866 56.0898L237.771 51.0959C237.653 50.2646 237.416 49.4546 237.067 48.6907C235.745 46.3529 232.899 45.9612 230.439 46.1081H225.329L225.451 45.9612C226.761 53.446 229.325 68.544 230.549 76.0532ZM230.549 76.0532L227.863 61.0592L225.225 45.9918L225.194 45.851H225.347H230.458C233.438 45.6124 237.067 46.463 237.802 49.7984C238.72 54.0824 242.453 71.4755 243.432 76.0532V76.1512H243.334L230.549 76.0532Z"
        fill="#263238" />
    <path
        d="M243.346 76.0471C243.346 76.0471 242.122 82.1671 236.957 82.1671C231.792 82.1671 230.568 76.0471 230.568 76.0471H243.346Z"
        fill="#EBEBEB" />
    <path d="M202.771 134.964H143.278V194.457H202.771V134.964Z" fill="#009196" />
    <path d="M192.569 163.441H153.474V157.896H192.569V163.441Z" fill="white" />
    <path d="M190.39 162.266L189.099 182.835H156.95L155.653 162.266H190.39Z" fill="white" />
    <path
        d="M177.177 160.044C177.177 160.866 176.933 161.669 176.477 162.353C176.02 163.036 175.371 163.569 174.612 163.883C173.852 164.198 173.017 164.28 172.211 164.12C171.405 163.959 170.664 163.564 170.083 162.983C169.502 162.401 169.106 161.661 168.946 160.855C168.785 160.049 168.868 159.213 169.182 158.454C169.497 157.695 170.029 157.046 170.713 156.589C171.396 156.132 172.2 155.889 173.021 155.889C174.123 155.89 175.179 156.329 175.958 157.108C176.737 157.887 177.175 158.943 177.177 160.044Z"
        fill="white" />
    <path
        d="M167.55 166.715V178.551C167.552 178.69 167.526 178.829 167.474 178.958C167.421 179.087 167.344 179.204 167.246 179.303C167.148 179.402 167.032 179.481 166.903 179.535C166.775 179.588 166.637 179.616 166.497 179.616H166.326C166.211 179.615 166.098 179.592 165.992 179.547C165.886 179.502 165.79 179.437 165.709 179.355C165.628 179.273 165.565 179.176 165.521 179.07C165.478 178.964 165.456 178.85 165.457 178.735V166.715C165.459 166.485 165.551 166.265 165.713 166.102C165.876 165.94 166.096 165.848 166.326 165.846H166.669C166.784 165.844 166.898 165.866 167.005 165.909C167.112 165.951 167.209 166.015 167.291 166.096C167.373 166.177 167.438 166.273 167.483 166.38C167.527 166.486 167.55 166.6 167.55 166.715Z"
        fill="#009196" />
    <path
        d="M174.062 166.715V178.551C174.063 178.69 174.037 178.828 173.985 178.958C173.933 179.087 173.856 179.204 173.758 179.303C173.66 179.402 173.543 179.481 173.415 179.535C173.286 179.588 173.148 179.616 173.009 179.616H172.838C172.723 179.615 172.609 179.592 172.503 179.547C172.397 179.502 172.301 179.437 172.221 179.355C172.14 179.273 172.076 179.176 172.033 179.07C171.99 178.963 171.968 178.85 171.969 178.735V166.715C171.972 166.486 172.065 166.267 172.227 166.106C172.39 165.945 172.609 165.854 172.838 165.852H173.181C173.295 165.85 173.409 165.871 173.515 165.914C173.622 165.957 173.719 166.02 173.801 166.1C173.883 166.18 173.948 166.276 173.993 166.381C174.038 166.487 174.061 166.6 174.062 166.715Z"
        fill="#009196" />
    <path
        d="M180.574 166.715V178.551C180.575 178.69 180.549 178.829 180.497 178.958C180.445 179.087 180.367 179.204 180.27 179.303C180.172 179.402 180.055 179.481 179.927 179.535C179.798 179.588 179.66 179.616 179.521 179.616H179.35C179.235 179.615 179.121 179.592 179.015 179.547C178.909 179.502 178.813 179.437 178.732 179.355C178.652 179.273 178.588 179.176 178.545 179.07C178.502 178.964 178.48 178.85 178.48 178.735V166.715C178.482 166.485 178.574 166.265 178.737 166.102C178.899 165.94 179.12 165.848 179.35 165.846H179.692C179.807 165.844 179.922 165.866 180.029 165.909C180.135 165.951 180.233 166.015 180.315 166.096C180.397 166.177 180.462 166.273 180.506 166.38C180.551 166.486 180.574 166.6 180.574 166.715Z"
        fill="#009196" />
    <path d="M184.423 159.708H182.587V148.716H163.456V159.708H161.62V146.88H184.423V159.708Z"
        fill="white" />
    <path
        d="M209.958 141.521C213.572 137.548 213.281 131.398 209.308 127.784C205.335 124.17 199.185 124.461 195.571 128.434C191.957 132.407 192.248 138.558 196.221 142.172C200.194 145.786 206.344 145.494 209.958 141.521Z"
        fill="#F9A51A" />
    <path
        d="M204.784 133.955C205.103 134.266 205.356 134.638 205.529 135.049C205.701 135.46 205.789 135.902 205.788 136.348C205.79 137.022 205.591 137.682 205.218 138.243C204.844 138.805 204.312 139.243 203.689 139.501C203.066 139.759 202.38 139.827 201.718 139.695C201.057 139.563 200.45 139.237 199.974 138.759C199.892 138.689 199.825 138.604 199.778 138.507C199.731 138.41 199.704 138.305 199.7 138.198C199.695 138.091 199.713 137.983 199.752 137.883C199.791 137.783 199.851 137.692 199.927 137.616C200.003 137.54 200.094 137.481 200.194 137.442C200.294 137.403 200.401 137.385 200.508 137.389C200.616 137.394 200.721 137.42 200.818 137.468C200.914 137.515 201 137.581 201.069 137.663C201.24 137.835 201.444 137.97 201.667 138.063C201.891 138.155 202.131 138.202 202.373 138.202C202.617 138.204 202.859 138.158 203.085 138.065C203.311 137.973 203.516 137.836 203.689 137.663C203.864 137.492 204.002 137.287 204.097 137.061C204.192 136.835 204.24 136.592 204.239 136.348C204.24 136.105 204.192 135.865 204.097 135.642C204.003 135.419 203.864 135.218 203.689 135.05C203.519 134.877 203.316 134.739 203.092 134.644C202.868 134.549 202.628 134.5 202.385 134.499C202.279 134.505 202.172 134.486 202.075 134.443C201.977 134.401 201.89 134.336 201.822 134.254C201.678 134.107 201.598 133.909 201.598 133.704C201.598 133.498 201.678 133.3 201.822 133.153L203.217 131.733H200.996C200.802 131.716 200.622 131.627 200.491 131.484C200.36 131.34 200.288 131.153 200.288 130.959C200.288 130.765 200.36 130.577 200.491 130.434C200.622 130.291 200.802 130.202 200.996 130.185H205.041C205.143 130.183 205.244 130.202 205.339 130.239C205.433 130.277 205.519 130.333 205.592 130.404C205.665 130.475 205.723 130.56 205.763 130.654C205.803 130.747 205.824 130.848 205.825 130.95C205.821 131.078 205.788 131.204 205.727 131.317C205.69 131.388 205.645 131.453 205.592 131.513L203.86 133.294C204.207 133.453 204.521 133.677 204.784 133.955Z"
        fill="white" />
    <path
        d="M174.836 66.096C175.102 68.6472 176.072 71.0742 177.638 73.1061C179.203 75.138 181.303 76.6947 183.702 77.6025C186.101 78.5103 188.705 78.7334 191.223 78.247C193.742 77.7605 196.075 76.5836 197.964 74.8476L204.885 75.888L201.422 69.9027C202.29 67.7953 202.618 65.5044 202.376 63.238C201.994 59.586 200.177 56.2354 197.324 53.9233C194.471 51.6112 190.817 50.527 187.165 50.9092C183.513 51.2915 180.162 53.1088 177.85 55.9615C175.538 58.8142 174.454 62.4685 174.836 66.1205V66.096Z"
        fill="white" />
    <path
        d="M178.98 54.6578C181.281 52.4163 184.284 51.0358 187.483 50.7486C190.683 50.4614 193.884 51.285 196.547 53.0808C199.211 54.8766 201.174 57.5351 202.108 60.6088C203.041 63.6826 202.888 66.9841 201.673 69.9578V69.7191L205.118 75.7167L205.375 76.1635L204.873 76.0839L197.952 75.019L198.117 74.9701C196.193 76.713 193.822 77.885 191.269 78.3544C190.637 78.4717 189.996 78.5372 189.353 78.5503C188.712 78.584 188.07 78.5717 187.431 78.5135C186.154 78.3917 184.9 78.093 183.704 77.6261C182.51 77.1746 181.385 76.5565 180.363 75.7901C179.85 75.4156 179.363 75.0067 178.906 74.5661C178.457 74.1124 178.038 73.6299 177.652 73.1218C175.577 70.4165 174.567 67.0433 174.816 63.6428C175.064 60.2424 176.552 57.0515 178.998 54.6761L178.98 54.6578ZM177.67 73.0729C178.436 74.0915 179.354 74.9854 180.393 75.7228C181.411 76.4831 182.535 77.0894 183.729 77.5221C184.919 77.9633 186.166 78.2372 187.431 78.3361C188.061 78.3789 188.693 78.3789 189.322 78.3361C189.954 78.3076 190.582 78.2299 191.201 78.1035C193.686 77.6055 195.982 76.4227 197.829 74.6885L197.897 74.6273H197.995L204.922 75.6004L204.678 75.9615L201.189 69.9884L201.128 69.8782L201.177 69.7497C201.944 67.8373 202.277 65.7782 202.15 63.7215C202.013 61.6618 201.413 59.6596 200.394 57.8647C199.356 56.0766 197.942 54.5355 196.25 53.3481C194.542 52.1688 192.587 51.3963 190.534 51.0898C187.823 50.6728 185.048 51.0805 182.571 52.26C180.094 53.4395 178.029 55.3363 176.643 57.7043C175.258 60.0722 174.616 62.802 174.801 65.5392C174.987 68.2765 175.99 70.8948 177.682 73.0545L177.67 73.0729Z"
        fill="#263238" />
    <path
        d="M187.082 72.5405L181.164 66.5551L183.153 64.5967L186.605 68.0912L193.784 56.8427L196.134 58.3421L187.082 72.5405Z"
        fill="#009196" />
    <path d="M141.47 281.863H75.5085L85.1292 214.671H131.855L141.47 281.863Z" fill="#F9A51A" />
    <path d="M131.849 214.671L124.524 281.863H141.47L131.849 214.671Z" fill="#C97D00" />
    <path
        d="M98.2873 219.304L96.2249 218.87C96.2249 218.808 97.4489 213.166 98.7096 207.468C100.093 201.311 106.151 198.478 111.213 199.292C115.001 199.904 119.199 202.86 118.557 209.176C117.877 215.908 117.333 219.121 117.333 219.255L115.252 218.919C115.252 218.919 115.778 215.65 116.445 208.967C116.929 204.114 113.875 201.862 110.852 201.373C106.757 200.712 101.855 202.982 100.741 207.927C99.4929 213.588 98.2995 219.249 98.2873 219.304Z"
        fill="#263238" />
    <path
        d="M125.417 281.349C126.77 280.382 128.177 279.513 129.579 278.613C130.98 277.713 132.412 276.899 133.863 276.079L134.059 275.963L134.242 276.098C135.356 276.936 136.47 277.775 137.553 278.656C138.636 279.537 139.726 280.406 140.766 281.343C139.542 280.62 138.404 279.849 137.253 279.06C136.103 278.27 134.958 277.475 133.832 276.655H134.206C132.78 277.493 131.329 278.301 129.873 279.103C128.416 279.904 126.929 280.657 125.417 281.349Z"
        fill="white" />
    <path
        d="M134.028 276.379C133.74 272.095 133.526 267.811 133.324 263.527C133.122 259.243 132.975 254.959 132.804 250.675C132.633 246.391 132.535 242.107 132.443 237.823L132.327 231.336C132.327 229.194 132.271 227.052 132.278 224.898C132.431 227.04 132.535 229.182 132.669 231.324L132.987 237.756C133.189 242.04 133.33 246.324 133.502 250.608C133.673 254.892 133.771 259.176 133.857 263.46C133.942 267.744 134.028 272.083 134.028 276.379Z"
        fill="white" />
    <path
        d="M100.056 219.096C100.057 219.651 99.8936 220.194 99.586 220.656C99.2785 221.117 98.8408 221.478 98.3284 221.691C97.816 221.903 97.2519 221.96 96.7076 221.852C96.1633 221.744 95.6633 221.477 95.2709 221.084C94.8786 220.692 94.6115 220.192 94.5035 219.647C94.3956 219.103 94.4516 218.539 94.6645 218.027C94.8774 217.514 95.2376 217.077 95.6995 216.769C96.1614 216.462 96.7041 216.298 97.259 216.299C98.0003 216.301 98.7107 216.596 99.2349 217.12C99.7591 217.644 100.054 218.355 100.056 219.096Z"
        fill="#263238" />
    <path
        d="M118.899 219.096C118.901 219.651 118.737 220.194 118.43 220.656C118.122 221.117 117.684 221.478 117.172 221.691C116.659 221.903 116.095 221.96 115.551 221.852C115.007 221.744 114.507 221.477 114.114 221.084C113.722 220.692 113.455 220.192 113.347 219.647C113.239 219.103 113.295 218.539 113.508 218.027C113.721 217.514 114.081 217.077 114.543 216.769C115.005 216.462 115.548 216.298 116.103 216.299C116.844 216.301 117.554 216.596 118.078 217.12C118.603 217.644 118.898 218.355 118.899 219.096Z"
        fill="#263238" />
    <path d="M107.688 281.863H50.3125L58.6785 223.417H99.3215L107.688 281.863Z" fill="#009196" />
    <path d="M99.3214 223.417L92.9443 281.863H107.687L99.3214 223.417Z" fill="#009196" />
    <path opacity="0.1" d="M99.3214 223.417L92.9443 281.863H107.687L99.3214 223.417Z"
        fill="black" />
    <path
        d="M70.1291 227.45L68.3298 227.07C68.3298 227.021 69.3825 222.107 70.4963 217.156C71.7203 211.795 76.9652 209.335 81.3654 210.045C84.6641 210.577 88.3178 213.147 87.767 218.613C87.155 224.494 86.7265 227.266 86.7082 227.383L84.8722 227.089C84.8722 227.058 85.3251 224.249 85.9126 218.435C86.3349 214.212 83.6727 212.254 81.0166 211.825C77.4609 211.25 73.1952 213.227 72.2283 217.529C71.1756 222.499 70.1352 227.401 70.1291 227.45Z"
        fill="#263238" />
    <path
        d="M93.7217 281.416C94.9028 280.577 96.1207 279.806 97.3447 279.041C98.5687 278.276 99.7927 277.542 101.066 276.832L101.237 276.734L101.39 276.85C102.363 277.579 103.33 278.307 104.273 279.072C105.215 279.837 106.164 280.596 107.069 281.41C106.029 280.798 105.013 280.112 104.009 279.427C103.006 278.741 102.014 278.044 101.035 277.334H101.366C100.142 278.062 98.8625 278.766 97.5895 279.451C96.3166 280.137 95.0375 280.816 93.7217 281.416Z"
        fill="white" />
    <path
        d="M101.213 277.089C100.962 273.362 100.772 269.635 100.601 265.908C100.429 262.181 100.301 258.448 100.148 254.714C99.9948 250.981 99.9152 247.254 99.8356 243.521L99.7316 237.921C99.7316 236.055 99.6826 234.188 99.6888 232.321C99.8234 234.157 99.9152 236.048 100.031 237.909L100.307 243.503C100.484 247.236 100.607 250.963 100.76 254.696C100.913 258.429 100.992 262.156 101.066 265.889C101.139 269.623 101.213 273.356 101.213 277.089Z"
        fill="white" />
    <path
        d="M71.6653 227.26C71.6653 227.744 71.5217 228.218 71.2527 228.62C70.9837 229.023 70.6014 229.337 70.1541 229.522C69.7068 229.707 69.2146 229.756 68.7397 229.661C68.2648 229.567 67.8287 229.333 67.4863 228.991C67.1439 228.649 66.9108 228.213 66.8163 227.738C66.7219 227.263 66.7703 226.771 66.9556 226.323C67.1409 225.876 67.4547 225.494 67.8573 225.225C68.2598 224.956 68.7331 224.812 69.2173 224.812C69.8665 224.812 70.4892 225.07 70.9483 225.529C71.4074 225.988 71.6653 226.611 71.6653 227.26Z"
        fill="#263238" />
    <path
        d="M88.0545 227.26C88.0545 227.744 87.9109 228.218 87.6419 228.62C87.3729 229.023 86.9906 229.337 86.5433 229.522C86.0959 229.707 85.6037 229.756 85.1289 229.661C84.654 229.567 84.2178 229.333 83.8755 228.991C83.5331 228.649 83.2999 228.213 83.2055 227.738C83.111 227.263 83.1595 226.771 83.3448 226.323C83.5301 225.876 83.8438 225.494 84.2464 225.225C84.649 224.956 85.1223 224.812 85.6065 224.812C86.2557 224.812 86.8784 225.07 87.3374 225.529C87.7965 225.988 88.0545 226.611 88.0545 227.26Z"
        fill="#263238" />
</svg>
