<svg width="234" height="255" viewBox="0 0 234 255" fill="none" xmlns="http://www.w3.org/2000/svg">
    <g opacity="0.15">
        <path
            d="M198.935 -10.4152C179.546 2.56716 169.092 47.256 176.879 70.1025C185.483 95.332 239.281 91.4995 245.454 85.3477C251.627 79.1959 201.16 59.5101 208.047 36.296C215.695 10.5291 254.099 10.4938 253.054 -0.508729C252.026 -11.3345 221.348 -25.42 198.935 -10.4152Z"
            stroke="white" stroke-miterlimit="10" />
        <path
            d="M192.865 -13.59C170.138 -2.27637 160.277 51.817 170.295 77.301C181.65 106.165 240.097 95.4664 248.773 90.8985C256.252 86.967 207.702 60.4931 213.506 32.4424C219.806 1.96625 254.444 -2.98347 251.856 -10.0545C249.075 -17.6346 219.534 -26.834 192.865 -13.59Z"
            stroke="white" stroke-miterlimit="10" />
        <path
            d="M186.795 -16.7576C160.767 -7.14811 151.48 56.3709 163.711 84.4924C177.841 117.019 240.448 99.3416 252.093 96.4566C260.557 94.3353 214.287 61.5116 218.96 28.5747C223.948 -6.55413 255.569 -16.8566 250.66 -19.5507C246.996 -24.3236 217.817 -28.2198 186.795 -16.7576Z"
            stroke="white" stroke-miterlimit="10" />
        <path
            d="M180.725 -19.9537C151.414 -11.9776 142.701 60.8964 157.145 91.6695C174.074 127.788 241.627 108.322 255.43 101.993C264.076 98.0264 220.913 62.5157 224.432 24.714C228.138 -15.0676 256.319 -30.539 249.481 -29.0753C244.481 -30.8218 216.094 -29.5632 180.725 -19.9537Z"
            stroke="white" stroke-miterlimit="10" />
        <path
            d="M174.654 -23.1074C142.072 -16.7435 133.934 65.4501 150.542 98.889C170.277 138.628 241.233 112.593 258.73 107.565C268.549 104.737 227.521 63.5692 229.873 20.8814C232.291 -23.5529 257.684 -42.4113 248.265 -38.5717C242.231 -36.1181 214.383 -30.8714 174.654 -23.1074Z"
            stroke="white" stroke-miterlimit="10" />
        <path
            d="M168.591 -26.2823C132.732 -21.4953 125.174 69.9897 143.959 106.08C166.517 149.433 240.95 109.29 262.057 113.151C272.994 115.138 234.172 64.6298 235.333 17.0489C236.542 -32.024 258.611 -56.4261 247.069 -48.054C239.886 -42.878 212.679 -32.1584 168.591 -26.2823Z"
            stroke="white" stroke-miterlimit="10" />
        <path
            d="M162.521 -29.45C123.391 -26.2397 116.42 74.4941 137.369 113.279C162.763 160.23 241.21 112.204 265.37 118.674C277.19 121.842 240.817 65.6412 240.781 13.1671C240.745 -40.5727 259.342 -70.4125 245.866 -57.5997C237.413 -49.56 210.974 -33.431 162.521 -29.45Z"
            stroke="white" stroke-miterlimit="10" />
        <path
            d="M156.449 -32.625C114.048 -30.9703 107.682 79.0407 130.784 120.477C158.995 171.028 241.535 115.011 268.688 124.232C281.421 128.552 247.479 66.6593 246.239 9.31331C244.976 -49.0651 260.024 -84.2859 244.667 -67.1104C234.897 -56.1927 209.256 -34.6826 156.449 -32.625Z"
            stroke="white" stroke-miterlimit="10" />
        <path
            d="M150.38 -35.8C104.708 -35.6939 98.9156 83.566 124.2 127.675C155.241 181.825 241.917 117.776 272.008 129.796C285.684 135.262 254.148 67.6986 251.693 5.46654C249.208 -57.5646 260.696 -98.0957 243.471 -76.621C232.358 -62.783 207.557 -35.9273 150.38 -35.8Z"
            stroke="white" stroke-miterlimit="10" />
        <path
            d="M144.309 -38.9676C95.3362 -40.3818 90.1668 88.0846 117.616 134.867C151.474 192.609 242.346 120.463 275.327 135.34C289.971 141.945 260.817 68.717 257.147 1.60592C253.447 -66.0779 261.379 -111.891 242.267 -86.1455C229.813 -69.3518 205.846 -37.1575 144.309 -38.9676Z"
            stroke="white" stroke-miterlimit="10" />
        <path
            d="M138.239 -42.1425C86.0135 -45.1194 81.4064 92.603 111.032 142.065C147.744 203.399 242.836 123.143 278.647 140.898C294.276 148.634 267.498 69.7423 262.607 -2.24778C257.691 -74.5914 262.038 -125.651 241.071 -95.656C227.261 -75.9067 204.129 -38.3807 138.239 -42.1425Z"
            stroke="white" stroke-miterlimit="10" />
        <path
            d="M132.169 -45.3176C76.6658 -49.8289 72.6815 97.1212 104.447 149.263C144.001 214.182 243.301 125.801 281.966 146.435C298.586 155.316 274.172 70.7745 268.06 -6.1229C261.935 -83.1193 262.709 -139.419 239.873 -105.188C224.716 -82.4546 202.412 -39.6042 132.169 -45.3176Z"
            stroke="white" stroke-miterlimit="10" />
        <path
            d="M126.099 -48.4855C67.3133 -54.5312 63.9396 101.668 97.864 156.454C140.259 224.965 243.816 128.453 285.292 152.006C302.922 162.019 280.86 71.7856 273.52 -9.96251C266.18 -91.7106 263.381 -153.144 238.677 -114.706C222.165 -88.9954 200.695 -40.8134 126.099 -48.4855Z"
            stroke="white" stroke-miterlimit="10" />
        <path
            d="M120.029 -51.6603C57.9603 -59.2334 55.1973 106.151 91.274 163.652C136.517 235.777 244.354 131.126 288.605 157.564C307.257 168.715 287.541 72.8039 278.974 -13.8162C270.431 -100.132 264.058 -166.869 237.474 -124.202C219.614 -95.529 198.978 -42.0296 120.029 -51.6603Z"
            stroke="white" stroke-miterlimit="10" />
        <path
            d="M113.958 -54.8351C48.6059 -63.9355 46.5502 110.584 84.7068 170.851C132.912 246.426 244.927 133.728 291.941 163.115C311.615 175.412 294.245 73.8222 284.444 -17.6698C274.698 -108.646 264.752 -180.6 236.293 -133.719C217.061 -102.062 197.248 -43.2316 113.958 -54.8351Z"
            stroke="white" stroke-miterlimit="10" />
        <path
            d="M107.888 -58.003C39.2534 -68.6308 37.8023 115.103 78.1053 178.035C129.14 257.23 245.466 136.316 295.243 168.659C315.951 182.094 300.914 74.8262 289.88 -21.5519C278.937 -117.195 265.412 -194.347 235.079 -143.265C214.51 -108.596 195.526 -44.4408 107.888 -58.003Z"
            stroke="white" stroke-miterlimit="10" />
        <path
            d="M101.818 -61.1779C29.8698 -73.3259 29.0476 119.628 71.5211 185.24C125.385 267.971 246.034 138.989 298.562 174.224C320.328 188.811 307.746 75.8374 295.334 -25.3844C283.332 -125.708 266.089 -208.043 233.882 -152.748C211.959 -115.123 193.796 -45.6429 101.818 -61.1779Z"
            stroke="white" stroke-miterlimit="10" />
        <path
            d="M95.748 -64.3526C20.517 -77.8654 20.2933 124.154 64.9374 192.439C121.631 278.804 246.615 141.619 301.888 179.782C324.664 195.508 314.403 76.8558 300.794 -29.2379C287.559 -134.221 266.767 -221.754 232.679 -162.265C209.408 -121.649 192.044 -46.6468 95.748 -64.3526Z"
            stroke="white" stroke-miterlimit="10" />
        <path
            d="M89.6767 -67.5206C11.1627 -82.596 11.5497 128.672 58.3521 199.637C117.869 289.595 247.201 144.243 305.206 185.339C329.022 202.211 321.065 77.8597 306.246 -33.0917C291.784 -142.735 267.449 -235.472 231.481 -171.776C206.837 -128.14 190.319 -47.8914 89.6767 -67.5206Z"
            stroke="white" stroke-miterlimit="10" />
        <path
            d="M83.6068 -70.6953C1.80978 -87.3264 2.78924 133.198 51.7683 206.828C114.115 300.364 247.799 146.873 308.526 190.89C333.387 208.914 327.758 78.8993 311.7 -36.9241C295.98 -151.227 268.03 -249.239 230.284 -181.272C204.232 -134.752 188.596 -49.1429 83.6068 -70.6953Z"
            stroke="white" stroke-miterlimit="10" />
        <path
            d="M77.5373 -73.8704C-7.54276 -92.0783 -5.98288 137.73 45.1849 214.026C110.361 311.175 248.399 149.503 311.846 196.42C337.759 215.596 334.392 79.8891 317.16 -40.8275C300.238 -159.769 268.762 -262.928 229.088 -190.811C201.717 -141.243 186.886 -50.3592 77.5373 -73.8704Z"
            stroke="white" stroke-miterlimit="10" />
        <path
            d="M227.884 -200.322C199.201 -147.741 185.144 -51.6391 71.4665 -77.0383C-16.9026 -96.7876 -14.7199 142.241 38.5942 221.225C106.606 321.973 248.997 152.134 315.165 201.999C368.672 242.332 311.761 -354.095 227.884 -200.322Z"
            stroke="white" stroke-miterlimit="10" />
    </g>
</svg>
