<svg width="336" height="336" viewBox="0 0 336 336" fill="none" xmlns="http://www.w3.org/2000/svg">
    <g clip-path="url(#clip0_1009_2765)">
        <path
            d="M62.3016 213.642L53.4782 213.824L49.0027 213.904C47.5108 213.904 46.0056 213.904 44.507 213.938H44.2046V213.635V206.123V205.78H44.5473L53.4446 205.82C56.4081 205.82 59.3716 205.894 62.3419 205.928H62.4964V206.109C62.4964 207.379 62.436 208.649 62.4091 209.906L62.3016 213.642ZM62.3016 213.642L62.2008 209.839C62.2008 208.589 62.1268 207.352 62.1134 206.123L62.3016 206.304C59.3313 206.338 56.3678 206.411 53.4043 206.411L44.507 206.452L44.843 206.123L44.8027 213.635L44.507 213.34C45.972 213.34 47.4302 213.34 48.9019 213.34L53.3236 213.42L62.3016 213.642Z"
            fill="#EBEBEB" />
        <path
            d="M52.3694 223.104L43.5528 223.292L39.0773 223.373C37.5787 223.373 36.0801 223.373 34.5749 223.406H34.2725V223.104V215.604V215.262H34.6085L43.5057 215.302C46.476 215.302 49.4395 215.376 52.403 215.41H52.5912V215.591C52.5912 216.861 52.5307 218.131 52.5038 219.388L52.3694 223.104ZM52.3694 223.104L52.2753 219.307C52.2753 218.057 52.2014 216.821 52.188 215.591L52.3694 215.772C49.4059 215.806 46.4424 215.88 43.4721 215.88L34.5749 215.92L34.9109 215.591L34.8773 223.104L34.5749 222.808C36.0465 222.808 37.5048 222.808 38.9765 222.842L43.3982 222.923L52.3694 223.104Z"
            fill="#EBEBEB" />
        <path
            d="M72.6838 223.104L63.8403 223.306L59.3648 223.386C57.8662 223.386 56.3676 223.386 54.8624 223.42H54.5667V223.104L54.5264 215.591V215.248H54.8624L63.7596 215.289C66.7299 215.289 69.6934 215.363 72.6569 215.396H72.8451V215.578C72.8451 216.848 72.7846 218.118 72.7577 219.374L72.6838 223.104ZM72.6838 223.104L72.5897 219.307C72.5897 218.057 72.5158 216.821 72.5024 215.591L72.6838 215.772C69.7203 215.806 66.7568 215.88 63.7865 215.88L54.8892 215.92L55.2252 215.591L55.1916 223.104L54.8892 222.808C56.3609 222.808 57.8192 222.808 59.2908 222.842L63.7126 222.923L72.6838 223.104Z"
            fill="#EBEBEB" />
        <path
            d="M250.219 152.463L241.403 152.652L236.927 152.725C235.429 152.725 233.923 152.725 232.425 152.725H232.129V152.423L232.089 144.903V144.567H232.425L241.322 144.608C244.286 144.608 247.256 144.682 250.219 144.722H250.408V144.903C250.408 146.18 250.354 147.45 250.32 148.7L250.219 152.463ZM250.219 152.463L250.125 148.667C250.125 147.41 250.051 146.173 250.038 144.944L250.219 145.125C247.256 145.125 244.286 145.233 241.322 145.239L232.425 145.28L232.761 144.944L232.727 152.463L232.425 152.161C233.89 152.161 235.355 152.161 236.826 152.201L241.248 152.275L250.219 152.463Z"
            fill="#EBEBEB" />
        <path
            d="M301.574 223.104L292.757 223.292L288.282 223.373C286.783 223.373 285.278 223.373 283.779 223.406H283.484V223.104L283.443 215.591V215.248H283.779L292.677 215.289C295.647 215.289 298.61 215.363 301.574 215.396H301.762V215.578C301.762 216.848 301.708 218.118 301.675 219.374L301.574 223.104ZM301.574 223.104L301.48 219.307C301.446 218.057 301.406 216.821 301.392 215.591L301.574 215.772C298.61 215.806 295.647 215.88 292.677 215.88L283.779 215.92L284.115 215.591L284.082 223.104L283.779 222.808C285.244 222.808 286.709 222.808 288.181 222.842L292.603 222.923L301.574 223.104Z"
            fill="#EBEBEB" />
        <path
            d="M291.648 43.1424L282.832 43.3306L278.35 43.4045C276.858 43.4045 275.352 43.4045 273.854 43.4448H273.558V43.1424L273.504 35.616V35.28H273.84L282.738 35.3204C285.701 35.3204 288.671 35.401 291.635 35.4346H291.823V35.616C291.823 36.8928 291.769 38.1629 291.736 39.4128L291.648 43.1424ZM291.648 43.1424L291.554 39.3456C291.521 38.089 291.48 36.8525 291.467 35.6227L291.648 35.8042C288.685 35.8042 285.715 35.9117 282.751 35.9184L273.854 35.9587L274.19 35.6227V43.1424L273.887 42.84C275.352 42.84 276.817 42.84 278.289 42.8804L282.704 42.9543L291.648 43.1424Z"
            fill="#EBEBEB" />
        <path
            d="M301.574 52.6244L292.757 52.8125L288.288 52.8864C286.79 52.8864 285.284 52.8864 283.786 52.9268H283.49V52.6244L283.45 45.1047V44.7687H283.786L292.683 44.809C295.653 44.809 298.617 44.8896 301.58 44.9232H301.768V45.1047C301.768 46.3815 301.715 47.6516 301.681 48.9015L301.574 52.6244ZM301.574 52.6244L301.479 48.8276C301.446 47.5709 301.406 46.3344 301.392 45.1047L301.574 45.2861C298.61 45.2861 295.647 45.3936 292.676 45.4004L283.779 45.4407L284.115 45.1047L284.081 52.6244L283.779 52.322C285.244 52.322 286.709 52.322 288.181 52.3623L292.602 52.4362L301.574 52.6244Z"
            fill="#EBEBEB" />
        <path
            d="M129.542 101.015L120.725 101.203L116.25 101.277C114.751 101.277 113.252 101.277 111.747 101.318H111.451V101.015L111.411 93.4954V93.1594H111.747L120.644 93.2065C123.615 93.2065 126.578 93.2804 129.542 93.314H129.73V93.4954C129.73 94.7722 129.669 96.0423 129.642 97.2989L129.542 101.015ZM129.542 101.015L129.448 97.2183C129.448 95.9684 129.374 94.7319 129.36 93.4954L129.542 93.6836C126.578 93.7172 123.615 93.7911 120.644 93.7911L111.747 93.8314L112.083 93.4954V101.015L111.781 100.719C113.252 100.719 114.711 100.719 116.182 100.753L120.604 100.827L129.542 101.015Z"
            fill="#EBEBEB" />
        <path
            d="M139.474 110.497L130.65 110.685L126.175 110.759C124.676 110.793 123.178 110.759 121.679 110.799H121.377V110.497L121.343 102.977V102.641H121.686L130.583 102.688C133.547 102.688 136.51 102.762 139.481 102.796H139.662V102.977C139.662 104.254 139.601 105.524 139.575 106.781L139.474 110.497ZM139.474 110.497L139.373 106.7C139.373 105.45 139.299 104.207 139.286 102.977L139.474 103.165C136.504 103.165 133.54 103.273 130.577 103.273L121.679 103.313L122.015 102.977L121.975 110.497L121.679 110.201C123.144 110.201 124.602 110.201 126.074 110.201L130.496 110.275L139.474 110.497Z"
            fill="#EBEBEB" />
        <path
            d="M52.3694 43.1424L43.5528 43.3306L39.0773 43.4045C37.5787 43.4045 36.0801 43.4045 34.5749 43.4448H34.2725V43.1424V35.616V35.28H34.6085L43.5057 35.3204C46.476 35.3204 49.4395 35.401 52.403 35.4346H52.5912V35.616C52.5912 36.8928 52.5307 38.1629 52.5038 39.4128L52.3694 43.1424ZM52.3694 43.1424L52.2753 39.3456C52.2753 38.089 52.2014 36.8525 52.188 35.6227L52.3694 35.8042C49.4059 35.8042 46.4424 35.9117 43.4721 35.9184L34.5749 35.9587L34.9445 35.616L34.8773 43.1424L34.5749 42.84C36.0465 42.84 37.5048 42.84 38.9765 42.8804L43.3982 42.9543L52.3694 43.1424Z"
            fill="#EBEBEB" />
        <path
            d="M196.097 42.1424L187.28 42.3306L182.805 42.4045C181.306 42.4045 179.808 42.4045 178.302 42.4448H178V42.1424V34.616V34.28H178.336L187.233 34.3204C190.204 34.3204 193.167 34.401 196.131 34.4346H196.319V34.616C196.319 35.8928 196.258 37.1629 196.231 38.4128L196.097 42.1424ZM196.097 42.1424L196.003 38.3456C196.003 37.089 195.929 35.8525 195.916 34.6227L196.097 34.8042C193.133 34.8042 190.17 34.9117 187.2 34.9184L178.302 34.9587L178.672 34.616L178.605 42.1424L178.302 41.84C179.774 41.84 181.232 41.84 182.704 41.8804L187.126 41.9543L196.097 42.1424Z"
            fill="#EBEBEB" />
        <path d="M56.9927 0H56.4551V63.0202H56.9927V0Z" fill="#C7C7C7" />
        <path
            d="M78.8663 84.3696L77.0855 88.2874H36.3556L34.5815 84.3696L51.9191 72.3677H61.5287L78.8663 84.3696Z"
            fill="#EBEBEB" />
        <path d="M62.7317 60.8026L61.5288 72.3677H51.9192L50.7163 60.8026H62.7317Z"
            fill="#DBDBDB" />
        <path d="M78.8662 84.3696L77.0854 88.2874H36.3555L34.5747 84.3696H78.8662Z"
            fill="#DBDBDB" />
        <path d="M104.543 0H104.006V50.3933H104.543V0Z" fill="#C7C7C7" />
        <path d="M248.271 -1H247.733V49.3933H248.271V-1Z" fill="#C7C7C7" />
        <path
            d="M126.417 71.7361L124.636 75.6538H83.9063L82.1255 71.7361L99.4698 59.7341H109.073L126.417 71.7361Z"
            fill="#EBEBEB" />
        <path
            d="M270.145 70.7361L268.364 74.6538H227.634L225.853 70.7361L243.197 58.7341H252.8L270.145 70.7361Z"
            fill="#EBEBEB" />
        <path d="M110.275 48.1689L109.072 59.7341H99.4695L98.2666 48.1689H110.275Z"
            fill="#DBDBDB" />
        <path d="M254.003 47.1689L252.8 58.7341H243.197L241.994 47.1689H254.003Z" fill="#DBDBDB" />
        <path d="M126.41 71.736L124.629 75.6537H83.8996L82.1255 71.736H126.41Z" fill="#DBDBDB" />
        <path d="M270.138 70.736L268.357 74.6537H227.627L225.853 70.736H270.138Z" fill="#DBDBDB" />
        <path
            d="M57.839 128.749C31.7587 128.749 31.7184 165.83 57.839 165.83C83.9597 165.83 83.9597 128.749 57.839 128.749Z"
            fill="#F9A51A" />
        <path
            d="M73.6986 150.763C72.3076 157.14 67.019 162.678 57.8327 162.678C36.1607 162.678 36.1943 131.9 57.8327 131.9H58.2628C37.8945 132.27 37.9953 161.421 58.6593 161.421C67.0929 161.428 72.1127 156.576 73.6986 150.763Z"
            fill="#DBDBDB" />
        <path
            d="M57.9939 135.959C58.1632 135.958 58.3264 136.022 58.451 136.136C58.5756 136.251 58.6523 136.409 58.6659 136.577V137.605C60.4748 137.729 62.2134 138.355 63.6857 139.413C63.9411 139.595 64.0822 139.749 64.0822 140.011C64.0826 140.105 64.0634 140.197 64.0259 140.283C63.9884 140.369 63.9335 140.446 63.8645 140.509C63.7955 140.572 63.7141 140.62 63.6255 140.65C63.5368 140.68 63.4429 140.692 63.3497 140.683C63.1625 140.69 62.9798 140.625 62.839 140.502C61.6088 139.564 60.1441 138.983 58.6054 138.822V146.026C62.8995 146.852 64.7004 148.324 64.7004 150.851C64.7004 153.586 62.1939 155.555 58.6524 155.628V157.644C58.6524 157.823 58.5816 157.994 58.4556 158.12C58.3296 158.246 58.1587 158.316 57.9804 158.316C57.8022 158.316 57.6313 158.246 57.5053 158.12C57.3792 157.994 57.3084 157.823 57.3084 157.644V155.628C54.9831 155.48 52.7637 154.603 50.9648 153.122C50.8726 153.064 50.7957 152.986 50.7407 152.892C50.6857 152.798 50.6542 152.693 50.6489 152.584C50.6592 152.404 50.7378 152.234 50.8688 152.109C50.9999 151.984 51.1735 151.914 51.3545 151.912C51.5416 151.906 51.7241 151.971 51.8652 152.094C53.4007 153.446 55.3303 154.268 57.3689 154.439V147.081C53.1353 146.234 51.3881 144.809 51.3881 142.229C51.3881 139.648 53.8678 137.632 57.3084 137.525V136.544C57.33 136.379 57.4121 136.227 57.5387 136.119C57.6653 136.011 57.8275 135.954 57.9939 135.959ZM57.3756 145.763V138.721C54.6339 138.768 52.8329 140.267 52.8329 142.128C52.8329 143.882 53.7603 144.964 57.3756 145.763ZM58.6121 147.343V154.466C61.4345 154.412 63.2691 152.914 63.2691 150.958C63.2691 149.184 62.2812 148.089 58.6121 147.343Z"
            fill="#DBDBDB" />
        <path
            d="M258.809 90.7202C235.329 94.9337 241.532 129.696 265.052 125.496C288.572 121.296 282.329 86.5001 258.809 90.7202Z"
            fill="#DBDBDB" />
        <path
            d="M261.013 90.3236C238.636 94.3556 244.838 129.125 267.256 125.1C289.674 121.074 283.431 86.2984 261.013 90.3236Z"
            fill="#F9A51A" />
        <path
            d="M278.33 108.528C278.209 114.731 274.601 120.732 266.725 122.143C248.124 125.503 242.97 96.6069 261.544 93.2805L261.907 93.22C244.495 96.7077 249.488 124.031 267.222 120.846C274.453 119.549 277.947 114.2 278.33 108.528Z"
            fill="#DBDBDB" />
        <path
            d="M265.482 97.0436C265.639 97.0654 265.781 97.148 265.878 97.2737C265.975 97.3994 266.018 97.5581 265.999 97.7156L265.885 98.69C267.457 99.0028 268.901 99.7772 270.031 100.914C270.126 100.983 270.201 101.074 270.249 101.18C270.297 101.286 270.317 101.403 270.307 101.519C270.282 101.676 270.199 101.817 270.074 101.916C269.95 102.014 269.793 102.062 269.635 102.05C269.553 102.045 269.472 102.023 269.399 101.984C269.326 101.946 269.262 101.893 269.211 101.828C268.277 100.829 267.068 100.128 265.737 99.8123L264.931 106.653C268.553 107.87 269.951 109.442 269.675 111.841C269.366 114.428 266.987 116.007 263.916 115.745L263.688 117.647C263.657 117.791 263.573 117.917 263.454 118.003C263.335 118.088 263.188 118.126 263.042 118.11C262.896 118.093 262.762 118.022 262.665 117.912C262.568 117.802 262.516 117.66 262.518 117.513L262.74 115.584C260.715 115.186 258.88 114.125 257.525 112.567C257.425 112.48 257.355 112.364 257.326 112.235C257.297 112.106 257.31 111.971 257.364 111.849C257.417 111.728 257.508 111.627 257.623 111.562C257.738 111.496 257.871 111.469 258.002 111.485C258.141 111.502 258.269 111.566 258.365 111.666C259.505 113.08 261.094 114.062 262.868 114.448L263.741 107.513C260.173 106.277 258.816 104.751 259.105 102.312C259.393 99.8728 261.793 98.2129 264.749 98.4952L264.864 97.5611C264.884 97.4133 264.958 97.2783 265.072 97.1825C265.187 97.0868 265.333 97.0373 265.482 97.0436ZM263.856 106.29L264.635 99.5704C262.263 99.3419 260.529 100.572 260.328 102.332C260.133 104.019 260.791 105.141 263.856 106.29ZM264.749 107.91L263.956 114.63C266.409 114.872 268.163 113.642 268.378 111.787C268.58 110.094 267.847 108.978 264.749 107.883V107.91Z"
            fill="#DBDBDB" />
        <path
            d="M184.494 101.23C169.441 103.961 173.418 126.495 188.496 123.772C203.574 121.05 199.572 98.494 184.494 101.23Z"
            fill="#DBDBDB" />
        <path
            d="M185.99 101.21C171.617 103.828 175.601 126.403 189.999 123.79C204.398 121.176 200.388 98.5966 185.99 101.21Z"
            fill="#F9A51A" />
        <path
            d="M197 112.963C196.923 116.999 194.636 120.905 189.645 121.823C177.857 124.01 174.59 105.204 186.362 103.039L186.592 103C175.557 105.27 178.721 123.052 189.96 120.979C194.543 120.135 196.757 116.654 197 112.963Z"
            fill="#DBDBDB" />
        <path
            d="M189.029 106C189.125 106.014 189.213 106.065 189.273 106.142C189.332 106.22 189.359 106.318 189.347 106.415L189.277 107.016C190.245 107.209 191.133 107.687 191.829 108.388C191.887 108.431 191.933 108.487 191.963 108.553C191.993 108.618 192.005 108.69 191.998 108.762C191.983 108.858 191.932 108.946 191.855 109.006C191.779 109.067 191.682 109.097 191.585 109.089C191.534 109.086 191.485 109.072 191.44 109.049C191.395 109.025 191.356 108.992 191.324 108.952C190.749 108.336 190.005 107.903 189.186 107.709L188.69 111.929C190.919 112.68 191.779 113.65 191.61 115.13C191.419 116.726 189.955 117.701 188.065 117.539L187.924 118.712C187.905 118.801 187.854 118.879 187.781 118.932C187.707 118.984 187.617 119.008 187.527 118.998C187.437 118.987 187.355 118.944 187.295 118.876C187.236 118.808 187.203 118.72 187.205 118.629L187.341 117.439C186.095 117.194 184.965 116.539 184.132 115.578C184.07 115.524 184.027 115.453 184.009 115.373C183.991 115.293 183.999 115.21 184.032 115.135C184.065 115.06 184.121 114.998 184.192 114.958C184.263 114.917 184.345 114.901 184.426 114.91C184.511 114.921 184.589 114.961 184.649 115.022C185.35 115.894 186.328 116.5 187.42 116.739L187.958 112.46C185.761 111.697 184.926 110.756 185.104 109.251C185.282 107.746 186.758 106.722 188.578 106.896L188.648 106.32C188.661 106.228 188.706 106.145 188.777 106.086C188.847 106.027 188.937 105.996 189.029 106ZM188.028 111.705L188.508 107.559C187.048 107.418 185.981 108.177 185.857 109.263C185.737 110.304 186.142 110.996 188.028 111.705ZM188.578 112.705L188.09 116.851C189.6 117 190.679 116.241 190.811 115.097C190.935 114.052 190.485 113.364 188.578 112.688V112.705Z"
            fill="#DBDBDB" />
        <path
            d="M295.19 208.69C295.153 209.425 294.921 210.137 294.518 210.753C294.518 210.611 294.464 210.47 294.43 210.323C294.397 210.175 294.357 210.027 294.309 209.879C293.954 208.863 293.409 207.923 292.703 207.11L292.461 206.835L292.401 206.761C292.359 206.722 292.321 206.679 292.287 206.633C285.789 198.401 279.599 211.74 279.472 212.05C279.472 212.05 279.116 198.744 286.192 198.374C291.776 198.092 295.519 204.577 295.19 208.69Z"
            fill="#EBEBEB" />
        <path
            d="M294.531 210.753C294.368 210.985 294.171 211.191 293.946 211.364C290.586 213.958 280.157 212.171 279.512 212.036C289.289 212.977 291.971 209.415 292.441 206.741L292.501 206.815L292.743 207.09C293.445 207.906 293.989 208.845 294.349 209.859C294.397 210.007 294.437 210.161 294.47 210.302C294.504 210.444 294.511 210.612 294.531 210.753Z"
            fill="#EBEBEB" />
        <path opacity="0.2"
            d="M294.531 210.753C294.368 210.985 294.171 211.191 293.946 211.364C290.586 213.958 280.157 212.171 279.512 212.036C289.289 212.977 291.971 209.415 292.441 206.741L292.501 206.815L292.743 207.09C293.445 207.906 293.989 208.845 294.349 209.859C294.397 210.007 294.437 210.161 294.47 210.302C294.504 210.444 294.511 210.612 294.531 210.753Z"
            fill="black" />
        <path
            d="M263.525 210.202C263.625 210.938 263.92 211.634 264.379 212.218C264.379 212.076 264.379 211.929 264.426 211.781C264.443 211.629 264.47 211.479 264.506 211.331C264.763 210.283 265.219 209.295 265.85 208.421L266.059 208.118C266.074 208.092 266.092 208.067 266.112 208.044L266.213 207.91C271.898 199.093 279.331 211.781 279.485 212.076C279.485 212.076 278.571 198.798 271.475 199.107C265.918 199.329 262.806 206.143 263.525 210.202Z"
            fill="#EBEBEB" />
        <path
            d="M264.378 212.191C264.56 212.407 264.776 212.593 265.017 212.742C268.632 215 278.82 212.238 279.451 212.07C269.802 213.938 266.798 210.652 266.072 208.038C266.052 208.061 266.034 208.085 266.018 208.112L265.81 208.414C265.181 209.29 264.725 210.277 264.466 211.324C264.432 211.478 264.405 211.626 264.385 211.774C264.365 211.922 264.385 212.05 264.378 212.191Z"
            fill="#EBEBEB" />
        <path opacity="0.2"
            d="M264.378 212.191C264.56 212.407 264.776 212.593 265.017 212.742C268.632 215 278.82 212.238 279.451 212.07C269.802 213.938 266.798 210.652 266.072 208.038C266.052 208.061 266.034 208.085 266.018 208.112L265.81 208.414C265.181 209.29 264.725 210.277 264.466 211.324C264.432 211.478 264.405 211.626 264.385 211.774C264.365 211.922 264.385 212.05 264.378 212.191Z"
            fill="black" />
        <path d="M298.502 256.281H260.689L263.814 213.629L294.726 214.953L298.502 256.281Z"
            fill="#DBDBDB" />
        <path d="M307.232 256.281H295.492L293.846 214.953L305.135 215.934L307.232 256.281Z"
            fill="#A6A6A6" />
        <path d="M260.179 213.629V221.955L293.846 220.927V211.391L260.179 213.629Z"
            fill="#C7C7C7" />
        <path d="M306.513 221.955L293.846 220.927V211.391L307.232 213.629L306.513 221.955Z"
            fill="#DBDBDB" />
        <path d="M282.375 256.281H274.465L273.666 212.735L283.013 212.11L282.375 256.281Z"
            fill="#EBEBEB" />
        <path d="M300.344 256.281H303.032L302.79 212.89L299.034 212.258L300.344 256.281Z"
            fill="#EBEBEB" />
        <path
            d="M265.649 227.875C265.534 228.556 265.24 229.194 264.795 229.723C264.795 229.589 264.795 229.454 264.795 229.313C264.795 229.172 264.755 229.031 264.728 228.883C264.514 227.895 264.112 226.958 263.545 226.121L263.357 225.839L263.303 225.765L263.209 225.637C258.089 217.231 250.818 228.957 250.656 229.226C250.656 229.226 251.826 216.794 258.478 217.251C263.659 217.614 266.415 224.085 265.649 227.875Z"
            fill="#DBDBDB" />
        <path
            d="M264.768 229.723C264.591 229.921 264.385 230.091 264.157 230.227C260.709 232.243 251.221 229.421 250.629 229.246C259.634 231.228 262.537 228.218 263.276 225.779L263.33 225.852L263.518 226.135C264.08 226.974 264.481 227.911 264.701 228.897C264.701 229.044 264.748 229.186 264.768 229.327C264.788 229.468 264.768 229.589 264.768 229.723Z"
            fill="#A6A6A6" />
        <path
            d="M235.966 225.705C235.985 226.393 236.182 227.064 236.538 227.653C236.538 227.519 236.591 227.385 236.632 227.25C236.666 227.111 236.709 226.974 236.759 226.84C237.113 225.893 237.647 225.024 238.332 224.28L238.56 224.025L238.621 223.957L238.735 223.843C245.025 216.27 250.509 228.937 250.623 229.219C250.623 229.219 251.295 216.747 244.629 216.229C239.427 215.84 235.758 221.834 235.966 225.705Z"
            fill="#DBDBDB" />
        <path
            d="M236.544 227.653C236.692 227.873 236.871 228.07 237.075 228.238C240.193 230.751 249.998 229.327 250.603 229.239C241.403 229.911 238.97 226.484 238.594 223.964L238.534 224.031L238.305 224.287C237.624 225.033 237.091 225.902 236.733 226.847C236.682 226.981 236.639 227.118 236.605 227.257C236.591 227.385 236.544 227.519 236.544 227.653Z"
            fill="#A6A6A6" />
        <path d="M233.426 256.187H268.464L267.181 231.376L236.927 230.294L233.426 256.187Z"
            fill="#EBEBEB" />
        <path opacity="0.6"
            d="M233.426 256.187H268.464L267.181 231.376L236.927 230.294L233.426 256.187Z"
            fill="white" />
        <path d="M226.263 256.187H236.222L237.747 230.294L227.479 232.21L226.263 256.187Z"
            fill="#EBEBEB" />
        <path d="M268.941 230.388V239.051L237.747 237.975V228.07L268.941 230.388Z" fill="#EBEBEB" />
        <path opacity="0.4" d="M268.941 230.388V239.051L237.747 237.975V228.07L268.941 230.388Z"
            fill="white" />
        <path d="M226.014 239.051L237.747 237.975V228.07L225.342 230.388L226.014 239.051Z"
            fill="#EBEBEB" />
        <path opacity="0.1"
            d="M226.014 239.051L237.747 237.975V228.07L225.342 230.388L226.014 239.051Z"
            fill="black" />
        <path d="M258.888 229.643L258.586 256.187H250.314L250.179 228.997L258.888 229.643Z"
            fill="#DBDBDB" />
        <path d="M232.801 228.997L229.69 229.575V256.187H232.291L232.801 228.997Z" fill="#DBDBDB" />
        <path
            d="M69.0682 227.875C68.9532 228.555 68.6612 229.192 68.2215 229.723C68.2215 229.589 68.2215 229.454 68.2215 229.313C68.2084 229.169 68.186 229.025 68.1543 228.883C67.94 227.895 67.5385 226.958 66.9716 226.121C66.9111 226.027 66.8506 225.933 66.7834 225.839C66.7678 225.813 66.7498 225.788 66.7297 225.765C66.7297 225.718 66.6692 225.678 66.6423 225.637C61.515 217.231 54.2439 228.957 54.0894 229.226C54.0894 229.226 55.2654 216.794 61.9182 217.251C67.0858 217.614 69.841 224.085 69.0682 227.875Z"
            fill="#DBDBDB" />
        <path
            d="M68.2219 229.723C68.0435 229.92 67.8375 230.09 67.6104 230.227C64.163 232.243 54.6676 229.421 54.083 229.246C63.0878 231.228 65.9908 228.218 66.73 225.779C66.7501 225.802 66.7681 225.826 66.7838 225.852C66.851 225.947 66.9115 226.041 66.972 226.135C67.5389 226.971 67.9404 227.909 68.1547 228.897C68.1864 229.038 68.2088 229.182 68.2219 229.327C68.2084 229.454 68.2152 229.589 68.2219 229.723Z"
            fill="#A6A6A6" />
        <path
            d="M39.3927 225.705C39.4113 226.393 39.6081 227.064 39.9639 227.653C39.9639 227.519 40.0177 227.385 40.0513 227.25C40.0849 227.116 40.1319 226.981 40.179 226.84C40.5357 225.893 41.0719 225.024 41.7582 224.28L41.9866 224.025L42.0471 223.957L42.1546 223.843C48.4513 216.27 53.9348 228.937 54.049 229.219C54.049 229.219 54.721 216.747 48.0615 216.229C42.8535 215.84 39.1844 221.834 39.3927 225.705Z"
            fill="#DBDBDB" />
        <path
            d="M39.9639 227.653C40.1099 227.874 40.2889 228.071 40.4947 228.238C43.6128 230.751 53.4106 229.327 54.0221 229.239C44.8291 229.911 42.3965 226.484 42.0202 223.964L41.9597 224.031L41.7312 224.287C41.0489 225.034 40.5132 225.902 40.152 226.847C40.105 226.988 40.0647 227.123 40.0243 227.257C39.984 227.391 39.984 227.519 39.9639 227.653Z"
            fill="#A6A6A6" />
        <path d="M36.8525 256.187H71.8906L70.6071 231.376L40.3537 230.294L36.8525 256.187Z"
            fill="#EBEBEB" />
        <path opacity="0.6"
            d="M36.8525 256.187H71.8906L70.6071 231.376L40.3537 230.294L36.8525 256.187Z"
            fill="white" />
        <path d="M29.689 256.187H39.6413L41.1667 230.294L30.8986 232.21L29.689 256.187Z"
            fill="#EBEBEB" />
        <path d="M72.368 230.388V239.051L41.167 237.975V228.07L72.368 230.388Z" fill="#EBEBEB" />
        <path opacity="0.4" d="M72.368 230.388V239.051L41.167 237.975V228.07L72.368 230.388Z"
            fill="white" />
        <path d="M29.4338 239.051L41.167 237.975V228.07L28.7686 230.388L29.4338 239.051Z"
            fill="#EBEBEB" />
        <path opacity="0.1"
            d="M29.4338 239.051L41.167 237.975V228.07L28.7686 230.388L29.4338 239.051Z"
            fill="black" />
        <path d="M62.3146 229.643L62.0055 256.187H53.7399L53.6055 228.997L62.3146 229.643Z"
            fill="#DBDBDB" />
        <path d="M36.2276 228.997L33.1162 229.575V256.187H35.7169L36.2276 228.997Z"
            fill="#DBDBDB" />
        <path
            d="M27.8545 256.247L62.8926 256.086L97.9307 256.025L168 255.918L238.07 256.025L273.108 256.086L308.146 256.247L273.108 256.415L238.07 256.475L168 256.583L97.9307 256.475L62.8926 256.415L27.8545 256.247Z"
            fill="#263238" />
        <path
            d="M168 299.309C231.939 299.309 283.772 294.54 283.772 288.658C283.772 282.775 231.939 278.006 168 278.006C104.061 278.006 52.228 282.775 52.228 288.658C52.228 294.54 104.061 299.309 168 299.309Z"
            fill="#EBEBEB" />
        <path
            d="M53.874 194.604C54.0355 191.851 54.4244 189.116 55.0366 186.426C55.5198 183.949 56.5155 181.601 57.9598 179.531C58.6299 178.587 59.4812 177.785 60.4641 177.172C61.4471 176.56 62.542 176.149 63.6852 175.963C65.9297 175.688 68.033 176.689 69.7332 178.1C71.8097 179.847 73.4023 182.166 74.8942 184.417C76.5344 186.929 78.0243 189.537 79.3562 192.225C79.366 192.243 79.3684 192.264 79.3627 192.284C79.357 192.303 79.3438 192.32 79.326 192.33C79.3082 192.339 79.2872 192.342 79.2677 192.336C79.2481 192.33 79.2316 192.317 79.2218 192.299C78.067 190.017 76.7322 187.831 75.2302 185.761C73.865 183.778 72.3293 181.919 70.6404 180.203C69.1015 178.698 67.1393 177.294 64.9082 177.22C63.8138 177.233 62.7374 177.501 61.7645 178.002C60.7917 178.504 59.9491 179.225 59.3038 180.109C57.8119 182.018 57.0526 184.41 56.4814 186.735C55.8935 189.297 55.5092 191.901 55.3322 194.524C54.8954 199.9 54.7745 205.329 54.6602 210.732C54.593 213.79 54.5527 216.848 54.5191 219.905C54.5191 221.451 54.5191 223.003 54.5191 224.549C54.5766 226.045 54.5159 227.544 54.3377 229.031C54.2906 229.333 53.7934 229.306 53.7463 229.031C53.5626 227.623 53.4929 226.203 53.538 224.784C53.538 223.319 53.538 221.847 53.491 220.382C53.4641 217.529 53.4529 214.673 53.4574 211.814C53.4103 206.075 53.4842 200.323 53.874 194.604Z"
            fill="#263238" />
        <path
            d="M61.5684 190.546C61.8573 189.02 62.368 187.031 63.2349 185.842C64.8007 183.718 66.4807 184.645 64.9216 186.991C63.7725 188.735 63.0264 190.714 62.7376 192.783C62.7376 192.783 65.3584 196.526 68.5236 198.368C68.3892 196.93 67.9792 194.719 68.2615 192.582C68.8663 187.952 71.6685 188.214 70.9495 191.91C70.4357 194.352 70.2101 196.847 70.2775 199.342C71.3278 200.025 72.4558 200.58 73.6375 200.995C73.456 200.464 73.2612 199.819 73.0461 199.04C71.9239 194.893 74.6925 193.596 74.7799 195.928C74.9591 197.919 75.319 199.889 75.8551 201.815C77.3738 202.326 78.6304 202.675 79.4032 202.944C81.3961 203.683 83.1774 204.898 84.5911 206.485C86.0282 205.181 87.2247 203.635 88.1258 201.916C87.1581 201.083 85.626 199.846 83.5092 198.347C79.5309 195.539 80.9152 191.997 84.0669 194.201C86.345 195.787 88.0989 198.737 88.9053 200.249C89.982 197.615 90.5936 194.814 90.713 191.97C87.5882 189.04 79.8602 184.955 82.192 184.955C84.2887 184.955 88.9725 188.026 90.6929 189.208C90.6516 188.402 90.5641 187.599 90.4308 186.803C87.4874 184.874 77.9316 181.877 79.4503 181.01C81.1236 180.062 87.7965 183.154 89.8125 184.128C89.432 182.819 88.8346 181.583 88.0452 180.472C83.9796 175.029 76.6212 173.154 73.4493 174.189C71.1914 174.922 71.85 180.667 71.3661 180.472C62.3613 176.803 58.2285 179.424 61.5684 190.546ZM83.8519 189.914C84.5239 189.134 87.4807 191.426 86.6205 192.683C85.7604 193.939 83.0253 190.915 83.8519 189.914ZM68.2682 185.015C69.0477 185.519 67.8919 188.415 66.6823 187.542C65.6474 186.816 67.4752 184.511 68.2682 185.015Z"
            fill="#009196" />
        <path opacity="0.1"
            d="M61.5684 190.546C61.8573 189.02 62.368 187.031 63.2349 185.842C64.8007 183.718 66.4807 184.645 64.9216 186.991C63.7725 188.735 63.0264 190.714 62.7376 192.783C62.7376 192.783 65.3584 196.526 68.5236 198.368C68.3892 196.93 67.9792 194.719 68.2615 192.582C68.8663 187.952 71.6685 188.214 70.9495 191.91C70.4357 194.352 70.2101 196.847 70.2775 199.342C71.3278 200.025 72.4558 200.58 73.6375 200.995C73.456 200.464 73.2612 199.819 73.0461 199.04C71.9239 194.893 74.6925 193.596 74.7799 195.928C74.9591 197.919 75.319 199.889 75.8551 201.815C77.3738 202.326 78.6304 202.675 79.4032 202.944C81.3961 203.683 83.1774 204.898 84.5911 206.485C86.0282 205.181 87.2247 203.635 88.1258 201.916C87.1581 201.083 85.626 199.846 83.5092 198.347C79.5309 195.539 80.9152 191.997 84.0669 194.201C86.345 195.787 88.0989 198.737 88.9053 200.249C89.982 197.615 90.5936 194.814 90.713 191.97C87.5882 189.04 79.8602 184.955 82.192 184.955C84.2887 184.955 88.9725 188.026 90.6929 189.208C90.6516 188.402 90.5641 187.599 90.4308 186.803C87.4874 184.874 77.9316 181.877 79.4503 181.01C81.1236 180.062 87.7965 183.154 89.8125 184.128C89.432 182.819 88.8346 181.583 88.0452 180.472C83.9796 175.029 76.6212 173.154 73.4493 174.189C71.1914 174.922 71.85 180.667 71.3661 180.472C62.3613 176.803 58.2285 179.424 61.5684 190.546ZM83.8519 189.914C84.5239 189.134 87.4807 191.426 86.6205 192.683C85.7604 193.939 83.0253 190.915 83.8519 189.914ZM68.2682 185.015C69.0477 185.519 67.8919 188.415 66.6823 187.542C65.6474 186.816 67.4752 184.511 68.2682 185.015Z"
            fill="black" />
        <path
            d="M69.4575 185.909C69.8675 185.096 70.2908 184.289 70.7612 183.51C71.1905 182.736 71.6946 182.007 72.2665 181.332C72.1321 181.171 72.0111 181.01 71.8767 180.855C71.7423 180.701 71.9171 180.701 71.9708 180.761C72.1254 180.936 72.2665 181.111 72.4143 181.292C72.4446 181.308 72.4684 181.334 72.4815 181.366C73.0393 182.038 73.5702 182.71 74.0742 183.436C74.9683 183.641 75.8501 183.897 76.7151 184.202C77.6089 184.504 78.4892 184.813 79.3561 185.176C79.4502 185.217 79.4031 185.364 79.3158 185.324C78.4556 184.948 77.582 184.578 76.695 184.276C75.8079 183.973 74.9948 183.772 74.1414 183.53C74.4169 183.926 74.6924 184.316 74.9545 184.719C76.5602 185.229 78.1221 185.867 79.6249 186.628C81.1974 187.374 82.7161 188.247 84.2281 189.121C84.3155 189.168 84.2281 189.302 84.1475 189.249C82.6608 188.381 81.1312 187.589 79.5644 186.876C78.1062 186.204 76.5875 185.633 75.1158 184.981C78.8252 190.774 81.0563 197.46 84.0332 203.65C84.0735 203.737 83.9324 203.811 83.8988 203.723C82.9849 201.553 81.9433 199.436 80.9487 197.299C80.0617 195.384 79.1948 193.455 78.3078 191.54C78.0457 190.982 77.7769 190.418 77.5081 189.86C77.6694 192.958 77.6022 196.103 78.1062 199.161C78.1062 199.18 78.0984 199.199 78.0845 199.213C78.0707 199.227 78.0519 199.235 78.0323 199.235C78.0127 199.235 77.9939 199.227 77.98 199.213C77.9661 199.199 77.9583 199.18 77.9583 199.161C77.7433 195.848 77.1587 192.595 77.1855 189.269C77.1855 189.269 77.1855 189.269 77.1855 189.228C76.5539 187.965 75.8819 186.715 75.1695 185.506C73.9398 188.402 72.6495 191.338 72.0716 194.45C72.0716 194.544 71.8969 194.504 71.9238 194.403C72.7638 191.285 73.5366 188.167 75.0351 185.284C74.2482 183.971 73.3749 182.711 72.4211 181.514C72.0111 182.287 71.4803 183.012 71.0166 183.745C70.5529 184.477 70.1027 185.19 69.6726 185.929C68.7624 187.496 67.9869 189.137 67.3542 190.835C67.3542 190.929 67.166 190.882 67.2063 190.794C67.9254 189.168 68.6444 187.488 69.4575 185.909Z"
            fill="#263238" />
        <path
            d="M40.192 192.951C42.5709 190.559 45.3462 187.427 49.0221 187.434C52.577 187.434 55.1911 190.297 56.6963 193.254C58.2688 196.338 58.8333 199.833 59.2768 203.233C59.7986 207.305 60.1126 211.4 60.2176 215.504C60.2848 217.782 60.2714 220.067 60.2176 222.345C60.2181 224.653 60.0429 226.958 59.6935 229.239C59.6263 229.609 59.0215 229.622 59.0215 229.239C58.9139 227.324 59.0215 225.395 59.0215 223.474C59.0215 221.552 59.0215 219.69 58.9341 217.802C58.793 213.978 58.5175 210.161 58.0672 206.378C57.6775 203.065 57.3616 199.658 56.3671 196.446C55.4733 193.549 53.7933 190.243 50.8634 188.973C46.8314 187.239 42.9539 190.404 40.3399 193.079C40.2391 193.119 40.1248 193.019 40.192 192.951Z"
            fill="#263238" />
        <path
            d="M28.0356 198.287C28.0356 198.778 28.0827 199.261 28.1163 199.732C29.264 198.878 30.6054 198.321 32.0206 198.112C35.3806 197.756 35.1857 200.323 32.9278 200.431C31.3377 200.452 29.7653 200.769 28.291 201.365C28.842 205.827 30.0651 209.429 30.2532 209.429C33.2526 209.27 36.237 208.899 39.1841 208.32C38.3441 206.532 36.4289 204.147 37.4033 203.959C38.3777 203.77 39.4529 205.887 39.9905 208.159C42.1999 207.733 44.3726 207.135 46.4888 206.371C45.0036 205.081 42.6987 203.482 43.579 202.796C44.4593 202.111 46.267 204.369 47.3758 206.008C48.3734 205.605 49.317 205.079 50.1848 204.442C48.1688 201.499 43.2968 200.901 43.9352 198.778C44.5736 196.654 49.1432 199.597 51.1928 203.535C53.6052 201.042 54.3108 197.487 54.0555 194.483C51.9588 194.242 47.9201 194.678 48.2091 193.173C48.498 191.668 51.4212 191.957 53.8068 192.83C53.5886 191.634 53.114 190.499 52.4158 189.504C50.1982 186.668 43.4513 190.277 43.4513 190.277C43.4513 190.277 44.1771 183.496 41.5966 182.32C40.1182 181.648 37.4974 181.648 34.8766 183.201C36.3483 183.322 38.1358 183.785 38.8481 184.807C39.762 186.11 38.3172 186.823 37.4033 186.218C36.7313 185.794 35.5486 184.45 33.3713 184.276C32.4397 185.057 31.619 185.961 30.932 186.964C30.6812 187.337 30.4502 187.722 30.2398 188.12C31.4865 187.561 32.841 187.284 34.2069 187.308C35.5728 187.333 36.9166 187.658 38.1425 188.261C41.0657 189.719 39.4328 192.756 36.9128 191.574C34.3928 190.391 32.0004 189.235 29.3326 189.9C28.3915 192.308 27.9546 194.884 28.0491 197.467C29.3534 196.513 30.8229 195.809 32.3835 195.391C35.2932 194.625 36.1736 196.365 32.9748 196.688C31.2363 196.877 29.5551 197.421 28.0356 198.287ZM31.5838 193.617C31.3822 192.676 33.4452 192.407 33.788 193.173C34.0702 193.825 31.772 194.564 31.5838 193.617ZM49.2372 198.838C49.4321 198.327 50.8097 198.912 50.682 199.55C50.5073 200.404 49.0558 199.355 49.2305 198.838H49.2372ZM39.4932 202.144C40.4945 201.741 42.067 204.248 40.9716 204.832C39.8763 205.417 38.66 202.474 39.4865 202.144H39.4932Z"
            fill="#009196" />
        <path
            d="M30.6498 208.992C32.1618 206.452 33.6603 203.905 35.253 201.419C35.9922 200.256 36.7717 199.12 37.5781 198.005C37.4571 198.005 37.3362 197.944 37.2152 197.924L36.6104 197.803C36.1467 197.723 35.6763 197.655 35.2059 197.608C34.7355 197.561 34.3189 197.541 33.8619 197.534C33.388 197.508 32.9127 197.533 32.444 197.608C32.4379 197.611 32.4312 197.612 32.4245 197.611C32.4178 197.611 32.4114 197.609 32.4058 197.605C32.4002 197.601 32.3956 197.596 32.3924 197.59C32.3893 197.585 32.3876 197.578 32.3876 197.571C32.3876 197.565 32.3893 197.558 32.3924 197.552C32.3956 197.546 32.4002 197.541 32.4058 197.538C32.4114 197.534 32.4178 197.532 32.4245 197.531C32.4312 197.531 32.4379 197.532 32.444 197.534C32.9144 197.534 33.3983 197.494 33.8754 197.487C34.3525 197.481 34.796 197.487 35.2597 197.521C35.6919 197.542 36.1226 197.587 36.5499 197.655L37.2219 197.776C37.3644 197.798 37.5057 197.827 37.6453 197.864C38.4651 196.735 39.3186 195.633 40.1989 194.544C37.5733 193.269 34.7785 192.377 31.8997 191.896C31.8527 191.896 31.8997 191.816 31.8997 191.822C34.8229 192.227 37.6643 193.089 40.3199 194.376C40.8037 193.785 41.2943 193.187 41.7848 192.602C42.2754 192.017 42.9138 191.298 43.4111 190.586C43.4111 190.546 43.5119 190.586 43.4715 190.633C42.791 191.386 42.1495 192.173 41.5496 192.992C42.6334 193.746 43.664 194.575 44.6341 195.471C45.6421 196.365 46.6501 197.292 47.5842 198.24C47.6245 198.274 47.5842 198.327 47.5304 198.294C46.5896 197.353 45.6063 196.457 44.5803 195.606C43.5589 194.752 42.477 193.973 41.4488 193.133L40.7432 194.067L40.3871 194.531C39.9906 195.041 39.6008 195.559 39.2111 196.076C39.6684 196.74 40.06 197.447 40.3803 198.186C40.7231 198.905 41.0523 199.644 41.2875 200.384C41.8325 201.932 42.2549 203.52 42.5509 205.135C42.5536 205.141 42.5547 205.148 42.5541 205.154C42.5536 205.161 42.5513 205.167 42.5477 205.173C42.544 205.178 42.539 205.183 42.5331 205.186C42.5272 205.189 42.5206 205.191 42.5139 205.191C42.5072 205.191 42.5007 205.189 42.4948 205.186C42.4889 205.183 42.4839 205.178 42.4802 205.173C42.4765 205.167 42.4743 205.161 42.4738 205.154C42.4732 205.148 42.4743 205.141 42.477 205.135C42.1672 203.548 41.7175 201.992 41.133 200.484C40.8373 199.705 40.5013 198.952 40.1586 198.2C39.8159 197.447 39.4866 196.856 39.164 196.184C38.828 196.641 38.492 197.091 38.156 197.528L37.8671 197.931C37.8725 197.937 37.876 197.944 37.8771 197.952C37.8782 197.96 37.8769 197.969 37.8732 197.976C37.8696 197.983 37.8639 197.989 37.8568 197.993C37.8497 197.997 37.8415 197.999 37.8335 197.998C36.7919 199.456 35.8175 200.941 34.8363 202.447C34.8937 202.551 34.9388 202.661 34.9707 202.776C35.0312 202.964 35.0917 203.146 35.1455 203.334C35.2534 203.705 35.3409 204.082 35.4075 204.463C35.4747 204.819 35.5218 205.175 35.5554 205.538C35.5631 205.949 35.5945 206.36 35.6495 206.768C35.6495 206.828 35.5621 206.828 35.5755 206.768C35.6037 206.385 35.5742 206 35.4882 205.625C35.4344 205.229 35.3605 204.846 35.2731 204.456C35.1858 204.066 35.0984 203.784 34.9909 203.421C34.9439 203.246 34.8834 203.078 34.8296 202.91L34.7221 202.628C34.2719 203.334 33.8216 204.046 33.3781 204.758C32.5045 206.176 31.6376 207.601 30.7707 209.019C30.717 209.093 30.6027 209.026 30.6498 208.992Z"
            fill="#263238" />
        <path
            d="M54.0288 228.426C54.0691 226.988 54.2976 225.537 54.4522 224.112C54.6067 222.687 54.768 221.242 54.9226 219.804C55.1171 217.015 55.4874 214.241 56.0314 211.498C56.512 209.14 57.6813 206.977 59.3914 205.282C60.2861 204.394 61.4571 203.837 62.711 203.703C63.9708 203.667 65.2069 204.05 66.2256 204.792C67.3899 205.648 68.3933 206.704 69.1891 207.91C70.0477 209.1 70.8181 210.351 71.4941 211.653C71.4941 211.707 71.4403 211.734 71.4134 211.687C70.1367 209.51 68.4394 207.609 66.4205 206.096C65.5268 205.354 64.4313 204.898 63.2755 204.785C62.7117 204.775 62.1514 204.877 61.6275 205.086C61.1037 205.295 60.6267 205.606 60.2246 206.002C58.6164 207.546 57.4952 209.527 56.999 211.7C56.4234 214.229 56.0148 216.792 55.776 219.374C55.5744 220.893 55.3795 222.418 55.1779 223.937C54.9763 225.456 54.8486 227.002 54.5059 228.493C54.4816 228.54 54.4433 228.579 54.3963 228.603C54.3493 228.627 54.2959 228.636 54.2436 228.629C54.1912 228.621 54.1424 228.598 54.1039 228.562C54.0655 228.525 54.0392 228.478 54.0288 228.426Z"
            fill="#263238" />
        <path
            d="M61.0983 217.264C61.54 217.868 62.0649 218.407 62.6573 218.864C62.4221 217.459 62.1399 214.966 62.8455 213.642C63.9475 211.586 65.2445 212.607 64.5927 214.402C63.9378 216.016 63.5781 217.734 63.5309 219.475C65.025 220.415 66.627 221.171 68.3021 221.726C68.1256 220.922 68.0734 220.094 68.1475 219.274C68.3693 217.069 70.056 217.11 69.6125 219.401C69.4531 220.288 69.3767 221.188 69.384 222.089C71.8165 222.841 74.3037 223.403 76.8231 223.769C78.1076 222.102 79.1442 220.257 79.9008 218.292C78.1066 217.842 74.4778 217.741 74.5248 216.458C74.6256 214.738 78.1402 216.061 80.1965 217.311C80.6664 215.812 80.8777 214.244 80.8215 212.675C79.2073 212.224 77.549 211.949 75.8755 211.855C72.1863 211.539 72.3677 209.442 75.0423 209.496C77.0112 209.53 79.5111 210.739 80.6938 211.364C79.921 206.344 76.0906 203.125 73.0263 203.004C67.8653 202.796 69.72 209.22 69.72 209.22C69.72 209.22 66.2256 206.761 62.9194 206.828C59.6131 206.895 57.5703 212.352 61.0983 217.264ZM74.881 207.984C74.7667 207.258 77.0717 207.084 77.1927 207.984C77.3271 209.052 75.0019 208.716 74.881 207.984ZM78.624 215.517C78.577 215.047 79.5715 214.959 79.7933 215.557C79.9143 215.94 78.624 215.981 78.624 215.517ZM66.2256 215.954C67.0051 216.068 67.4487 218.85 66.1114 218.79C65.0563 218.749 65.5335 215.86 66.192 215.954H66.2256Z"
            fill="#009196" />
        <path opacity="0.1"
            d="M61.0983 217.264C61.54 217.868 62.0649 218.407 62.6573 218.864C62.4221 217.459 62.1399 214.966 62.8455 213.642C63.9475 211.586 65.2445 212.607 64.5927 214.402C63.9378 216.016 63.5781 217.734 63.5309 219.475C65.025 220.415 66.627 221.171 68.3021 221.726C68.1256 220.922 68.0734 220.094 68.1475 219.274C68.3693 217.069 70.056 217.11 69.6125 219.401C69.4531 220.288 69.3767 221.188 69.384 222.089C71.8165 222.841 74.3037 223.403 76.8231 223.769C78.1076 222.102 79.1442 220.257 79.9008 218.292C78.1066 217.842 74.4778 217.741 74.5248 216.458C74.6256 214.738 78.1402 216.061 80.1965 217.311C80.6664 215.812 80.8777 214.244 80.8215 212.675C79.2073 212.224 77.549 211.949 75.8755 211.855C72.1863 211.539 72.3677 209.442 75.0423 209.496C77.0112 209.53 79.5111 210.739 80.6938 211.364C79.921 206.344 76.0906 203.125 73.0263 203.004C67.8653 202.796 69.72 209.22 69.72 209.22C69.72 209.22 66.2256 206.761 62.9194 206.828C59.6131 206.895 57.5703 212.352 61.0983 217.264ZM74.881 207.984C74.7667 207.258 77.0717 207.084 77.1927 207.984C77.3271 209.052 75.0019 208.716 74.881 207.984ZM78.624 215.517C78.577 215.047 79.5715 214.959 79.7933 215.557C79.9143 215.94 78.624 215.981 78.624 215.517ZM66.2256 215.954C67.0051 216.068 67.4487 218.85 66.1114 218.79C65.0563 218.749 65.5335 215.86 66.192 215.954H66.2256Z"
            fill="black" />
        <path
            d="M67.2738 219.072C67.4015 218.723 67.5157 218.4 67.6233 218.017C67.5225 218.38 67.4351 218.736 67.3679 219.099C67.3545 219.139 67.2469 219.112 67.2738 219.072Z"
            fill="#263238" />
        <path
            d="M68.6313 214.576C68.8733 213.864 69.1488 213.158 69.4243 212.459C69.5721 212.083 69.7267 211.714 69.888 211.344C70.0071 211.018 70.1627 210.707 70.3517 210.417C70.1896 210.128 70.0503 209.827 69.935 209.516C69.935 209.516 69.935 209.462 69.9821 209.516C70.3584 210.007 70.6933 210.529 70.9833 211.075C71.1312 211.324 71.2656 211.572 71.4067 211.814C71.698 211.842 71.9875 211.887 72.2736 211.949L73.2009 212.137L74.1149 212.352C74.424 212.426 74.7264 212.527 75.0355 212.574C75.1027 212.574 75.0758 212.695 75.0355 212.668C74.7204 212.558 74.3967 212.475 74.0678 212.419C73.7721 212.352 73.4765 212.298 73.1741 212.258C72.8717 212.218 72.576 212.177 72.2736 212.15L71.6016 212.09C71.7293 212.312 71.8569 212.52 71.9779 212.762C71.9932 212.797 72.0112 212.83 72.0317 212.863C72.2807 212.861 72.529 212.891 72.7709 212.95L73.5705 213.111C74.1081 213.232 74.6457 213.353 75.1766 213.508C76.2921 213.817 77.3942 214.18 78.4963 214.536C78.5568 214.536 78.4963 214.643 78.456 214.623C77.3534 214.256 76.2318 213.949 75.096 213.703L73.5101 213.346L72.7104 213.178C72.5038 213.147 72.2995 213.102 72.0989 213.044C72.6633 214.092 73.2009 215.161 73.6915 216.25C74.76 218.615 75.6605 221.054 76.5811 223.487C76.5811 223.547 76.5072 223.588 76.487 223.527C75.5987 221.088 74.5687 218.703 73.4025 216.384C73.1942 215.961 72.9792 215.544 72.7709 215.127C72.7709 215.208 72.7373 215.295 72.7171 215.383C72.6633 215.665 72.6163 215.954 72.5625 216.243C72.4685 216.821 72.3677 217.392 72.287 217.97C72.0416 219.151 71.9021 220.352 71.8704 221.558C71.8704 221.632 71.7561 221.632 71.7696 221.558C71.8424 220.979 71.8851 220.395 71.8973 219.811C71.9376 219.206 71.9779 218.602 72.0518 218.003C72.1257 217.405 72.1929 216.841 72.287 216.27C72.3341 215.981 72.3878 215.692 72.4416 215.403C72.4538 215.186 72.5086 214.974 72.6029 214.778L71.6957 212.963C71.4067 212.392 71.1177 211.828 70.8221 211.263L70.4256 210.544C70.3335 210.841 70.2213 211.13 70.0896 211.411L69.6864 212.392C69.3907 213.111 69.1152 213.837 68.8397 214.563C68.4499 215.598 68.0198 216.653 67.6973 217.728C68.0131 216.686 68.2819 215.618 68.6313 214.576Z"
            fill="#263238" />
        <path
            d="M67.623 217.99C67.623 217.909 67.6701 217.829 67.697 217.741C67.6768 217.829 67.6499 217.909 67.623 217.99Z"
            fill="#263238" />
        <path
            d="M45.3999 225.631L45.7628 233.312L46.6969 253.116H67.1257L68.0597 233.312L68.4226 225.631H45.3999Z"
            fill="#37474F" />
        <path d="M45.3999 225.631L45.7628 233.312H68.0597L68.4226 225.631H45.3999Z"
            fill="#263238" />
        <path d="M43.942 228.729H69.8745V222.519H43.942V228.729Z" fill="#37474F" />
        <path d="M65.4728 253.115H61.8843V256.368H65.4728V253.115Z" fill="#37474F" />
        <path d="M65.4728 253.115H61.8843V254.742H65.4728V253.115Z" fill="#263238" />
        <path d="M51.9319 253.115H48.3501V256.368H51.9319V253.115Z" fill="#37474F" />
        <path d="M51.9319 253.115H48.3501V254.742H51.9319V253.115Z" fill="#263238" />
        <path
            d="M181.414 179.349L181.213 179.624C180.937 179.987 174.459 188.542 170.165 187.608C168.821 187.312 168.028 186.586 168.001 185.592C167.934 183.629 170.575 181.203 173.76 180.296C176.146 179.666 178.604 179.349 181.072 179.355L181.414 179.349ZM168.868 184.053C168.548 184.506 168.368 185.044 168.351 185.598C168.351 186.445 169.023 187.03 170.239 187.299C173.895 188.091 179.533 181.251 180.709 179.732C178.394 179.753 176.091 180.064 173.854 180.659C171.853 181.167 170.09 182.355 168.868 184.019V184.053Z"
            fill="#263238" />
        <path
            d="M205.573 140.373C205.472 140.263 205.35 140.174 205.215 140.111C205.08 140.048 204.933 140.012 204.784 140.006C204.635 140 204.486 140.023 204.346 140.074C204.205 140.126 204.077 140.204 203.967 140.306L176.213 165.694C176.085 165.813 175.986 165.959 175.923 166.122C175.86 166.285 175.835 166.46 175.85 166.635L176.751 177.796V177.958L176.785 178.247V178.374L177.127 182.601C177.145 182.854 177.247 183.094 177.418 183.282C177.589 183.47 177.818 183.594 178.068 183.636L182.288 184.355L182.671 184.416L193.867 186.317C194.039 186.35 194.216 186.342 194.385 186.293C194.553 186.244 194.707 186.155 194.834 186.035L222.581 160.647C222.693 160.545 222.783 160.423 222.846 160.286C222.91 160.15 222.946 160.002 222.952 159.851C222.958 159.701 222.935 159.55 222.883 159.409C222.83 159.268 222.751 159.138 222.649 159.027L205.573 140.373Z"
            fill="white" />
        <path
            d="M205.573 140.373C205.451 140.238 205.298 140.135 205.127 140.073C204.956 140.011 204.772 139.992 204.592 140.017C204.411 140.04 204.238 140.107 204.088 140.212C203.94 140.319 203.819 140.453 203.678 140.574L202.072 142.053L198.86 145.003L192.429 150.916L179.573 162.744L176.361 165.694C176.229 165.799 176.124 165.933 176.053 166.086C175.981 166.238 175.947 166.406 175.951 166.574L176.039 167.656L176.22 169.833L176.946 178.536L177.127 180.713L177.215 181.802L177.262 182.346V182.615C177.269 182.693 177.287 182.77 177.315 182.843C177.368 182.994 177.457 183.13 177.574 183.239C177.691 183.348 177.833 183.427 177.987 183.468C178.31 183.535 178.659 183.589 179.049 183.65L181.199 184.012L189.815 185.457L191.965 185.827L193.04 186.008L193.578 186.102L193.847 186.149C193.924 186.162 194.004 186.162 194.082 186.149C194.238 186.144 194.39 186.1 194.525 186.022C194.596 185.986 194.661 185.94 194.72 185.887L194.922 185.699L195.728 184.967L197.341 183.495L203.799 177.615L216.708 165.855L219.94 162.918L221.553 161.447L222.359 160.708C222.499 160.6 222.619 160.471 222.716 160.324C222.801 160.176 222.851 160.011 222.863 159.841C222.876 159.667 222.844 159.494 222.769 159.337C222.692 159.179 222.587 159.035 222.46 158.913L221.728 158.107L220.256 156.494L217.319 153.268L205.573 140.373ZM205.573 140.373L217.4 153.228L220.357 156.44L221.835 158.046L222.575 158.853C222.712 158.982 222.826 159.134 222.911 159.303C222.99 159.48 223.027 159.674 223.018 159.868C223.006 160.06 222.949 160.246 222.85 160.412C222.75 160.574 222.623 160.717 222.474 160.835L221.674 161.574L220.061 163.053L216.849 166.01L204 177.83L197.569 183.744L195.963 185.222L195.164 185.961L194.962 186.149C194.886 186.219 194.803 186.28 194.713 186.331C194.53 186.435 194.326 186.495 194.115 186.506C194.015 186.516 193.913 186.516 193.813 186.506L193.537 186.459L193 186.371L191.925 186.19L189.774 185.827L181.166 184.301L179.015 183.932C178.653 183.865 178.31 183.818 177.927 183.737C177.728 183.681 177.545 183.578 177.394 183.437C177.243 183.295 177.128 183.119 177.06 182.924C177.03 182.828 177.009 182.729 176.999 182.628V182.353L176.952 181.808L176.872 180.72L176.704 178.542L176.032 169.84L175.864 167.663L175.776 166.567C175.774 166.371 175.817 166.176 175.9 165.998C175.984 165.82 176.107 165.663 176.26 165.539L179.493 162.596L192.402 150.836L198.813 144.976L202.045 142.033L203.658 140.561C203.799 140.447 203.92 140.312 204.068 140.205C204.22 140.101 204.395 140.034 204.578 140.01C204.761 139.986 204.947 140.006 205.12 140.069C205.293 140.132 205.449 140.237 205.573 140.373Z"
            fill="#EBEBEB" />
        <path
            d="M180.628 178.395C180.697 178.283 180.778 178.179 180.87 178.085C181.172 177.866 181.544 177.766 181.916 177.805C182.287 177.843 182.631 178.018 182.881 178.295C183.131 178.572 183.27 178.931 183.271 179.305C183.272 179.678 183.135 180.038 182.886 180.316C182.818 180.38 182.744 180.436 182.664 180.484L182.516 180.558C182.223 180.693 181.895 180.731 181.579 180.665C181.263 180.599 180.977 180.433 180.763 180.192C180.548 179.951 180.417 179.648 180.387 179.327C180.358 179.005 180.433 178.683 180.601 178.408L180.628 178.395Z"
            fill="white" />
        <path
            d="M180.628 178.395C180.695 178.28 180.777 178.173 180.87 178.079C181.168 177.802 181.559 177.647 181.966 177.642C182.175 177.639 182.382 177.678 182.576 177.757C182.77 177.835 182.946 177.952 183.094 178.099C183.249 178.254 183.37 178.439 183.451 178.643C183.531 178.846 183.569 179.064 183.563 179.283C183.557 179.501 183.506 179.717 183.414 179.915C183.322 180.114 183.19 180.291 183.027 180.438L182.893 180.538L182.752 180.632C182.432 180.82 182.054 180.884 181.69 180.814C181.34 180.752 181.02 180.575 180.783 180.31C180.554 180.05 180.415 179.723 180.388 179.378C180.36 179.033 180.444 178.688 180.628 178.395ZM180.628 178.395C180.459 178.685 180.395 179.024 180.447 179.356C180.498 179.672 180.654 179.962 180.891 180.178C181.128 180.394 181.431 180.523 181.75 180.545C182.048 180.561 182.343 180.486 182.597 180.33L182.705 180.243L182.819 180.155C183.077 179.913 183.234 179.581 183.256 179.228C183.282 178.867 183.172 178.51 182.947 178.227C182.828 178.08 182.682 177.958 182.515 177.869C182.349 177.781 182.167 177.726 181.979 177.709C181.784 177.691 181.588 177.712 181.402 177.772C181.216 177.833 181.044 177.93 180.897 178.059C180.79 178.155 180.699 178.269 180.628 178.395Z"
            fill="#EBEBEB" />
        <path
            d="M203.684 142.691L178.148 166.05C178.02 166.166 177.918 166.31 177.852 166.47C177.786 166.631 177.756 166.804 177.765 166.977L178.383 177.696V178.045L178.572 181.277C178.585 181.532 178.688 181.773 178.863 181.958C179.038 182.142 179.273 182.259 179.526 182.285L193.698 184.375C193.869 184.402 194.044 184.389 194.21 184.337C194.375 184.286 194.526 184.198 194.653 184.08L220.189 160.721C220.414 160.523 220.553 160.243 220.573 159.944C220.593 159.644 220.493 159.348 220.296 159.122L205.277 142.725C205.175 142.618 205.053 142.532 204.917 142.472C204.782 142.412 204.636 142.38 204.488 142.376C204.34 142.373 204.192 142.4 204.054 142.454C203.917 142.508 203.791 142.588 203.684 142.691ZM205.129 142.866L220.135 159.249C220.22 159.342 220.286 159.451 220.327 159.57C220.369 159.69 220.386 159.816 220.377 159.942C220.368 160.067 220.334 160.19 220.276 160.302C220.218 160.414 220.138 160.513 220.041 160.593L194.505 183.952C194.4 184.051 194.274 184.125 194.137 184.169C194 184.214 193.855 184.227 193.712 184.207L179.539 182.117C179.34 182.089 179.157 181.991 179.022 181.842C178.883 181.693 178.802 181.5 178.793 181.298L178.605 178.079V177.723L177.987 166.971C177.98 166.828 178.004 166.685 178.059 166.552C178.113 166.42 178.197 166.301 178.303 166.205L203.839 142.846C204.014 142.679 204.247 142.588 204.488 142.592C204.729 142.596 204.96 142.694 205.129 142.866Z"
            fill="#263238" />
        <path
            d="M114.912 178.295C117.972 178.286 121.019 178.677 123.977 179.458C127.922 180.58 131.188 183.584 131.114 186.016C131.074 187.273 130.119 188.167 128.426 188.536C123.104 189.692 115.073 179.095 114.737 178.645L114.482 178.302L114.912 178.295ZM123.856 179.881C121.079 179.149 118.221 178.77 115.349 178.752C116.807 180.6 123.796 189.114 128.325 188.126C129.824 187.804 130.63 187.071 130.664 186.023C130.64 185.336 130.419 184.671 130.025 184.108C128.518 182.023 126.332 180.529 123.843 179.881H123.856Z"
            fill="#263238" />
        <path
            d="M84.5379 130.012C84.6628 129.871 84.8148 129.757 84.9848 129.676C85.1548 129.595 85.3393 129.549 85.5274 129.541C85.7154 129.533 85.9032 129.563 86.0796 129.629C86.2559 129.694 86.4172 129.795 86.5539 129.924L120.94 161.388C121.098 161.534 121.221 161.716 121.299 161.917C121.377 162.118 121.408 162.335 121.39 162.55L120.288 176.38V176.575L120.255 176.938V177.099L119.838 182.334C119.814 182.647 119.685 182.942 119.474 183.174C119.262 183.405 118.978 183.559 118.669 183.611L113.441 184.504L112.97 184.578L99.1068 186.937C98.894 186.976 98.6749 186.965 98.4672 186.904C98.2595 186.844 98.0689 186.735 97.9107 186.588L63.4707 155.124C63.3315 154.998 63.2188 154.846 63.1389 154.676C63.0591 154.506 63.0139 154.322 63.0057 154.135C62.9976 153.947 63.0268 153.76 63.0916 153.584C63.1564 153.408 63.2556 153.246 63.3833 153.108L84.5379 130.012Z"
            fill="white" />
        <path
            d="M69.9687 146.012L66.3197 150.011L64.4986 152.027L63.5914 153.021C63.4327 153.171 63.3028 153.349 63.2084 153.545C63.1219 153.739 63.0828 153.951 63.0941 154.163C63.1057 154.377 63.1679 154.584 63.2756 154.768C63.396 154.951 63.5459 155.112 63.7191 155.245L64.7136 156.159L66.7296 157.98L70.7616 161.623L86.688 176.178L94.752 183.456L96.768 185.277L97.7626 186.191L98.018 186.419C98.0906 186.485 98.1693 186.544 98.2532 186.594C98.4194 186.689 98.6062 186.742 98.7975 186.749C98.8958 186.758 98.9948 186.758 99.0932 186.749L99.4292 186.695L100.101 186.574L101.445 186.346L104.133 185.889L114.805 184.101L117.493 183.651C117.929 183.577 118.4 183.51 118.837 183.429C119.026 183.375 119.201 183.277 119.346 183.142C119.49 183.008 119.601 182.841 119.67 182.656C119.7 182.562 119.721 182.466 119.73 182.367V182.031L119.784 181.359L119.898 180.015L120.12 177.327L121.021 166.575L121.242 163.887L121.357 162.543C121.362 162.335 121.318 162.128 121.23 161.939C121.141 161.75 121.01 161.584 120.846 161.455L116.861 157.792L100.8 143.075L92.8637 135.744L88.8788 132.082L86.8628 130.247C86.702 130.089 86.5314 129.94 86.352 129.803C86.1694 129.672 85.9569 129.589 85.7338 129.562C85.5092 129.53 85.2804 129.554 85.0672 129.632C84.8541 129.709 84.663 129.837 84.5108 130.005L69.9687 146.012ZM85.7607 129.562C85.9843 129.591 86.1981 129.672 86.3856 129.797C86.5635 129.938 86.734 130.088 86.8964 130.247L88.9124 132.068L92.9444 135.71L100.948 142.995L116.928 157.564L120.96 161.206C121.151 161.359 121.303 161.553 121.406 161.775C121.508 161.996 121.558 162.239 121.551 162.483L121.451 163.827L121.242 166.515L120.396 177.3L120.187 179.988L120.08 181.332L120.026 182.004V182.347C120.016 182.473 119.989 182.598 119.945 182.717C119.861 182.958 119.72 183.174 119.534 183.349C119.348 183.523 119.123 183.65 118.877 183.718C118.4 183.819 117.983 183.879 117.533 183.96L114.845 184.424L104.18 186.265L101.492 186.715L100.148 186.937L99.4762 187.044L99.1469 187.105C99.0196 187.118 98.8912 187.118 98.7639 187.105C98.5038 187.094 98.2502 187.02 98.0247 186.89C97.9142 186.827 97.8125 186.751 97.7223 186.661L97.4736 186.433L96.4791 185.519L94.4631 183.684L86.4999 176.36L70.56 161.771L66.5818 158.108L64.5658 156.274L63.5645 155.36C63.3846 155.212 63.2283 155.037 63.1008 154.842C62.9834 154.636 62.9123 154.407 62.8925 154.17C62.8871 153.939 62.933 153.71 63.0269 153.498C63.1306 153.288 63.2692 153.097 63.4368 152.934L64.3575 151.939L66.1853 149.923L69.8544 145.945L84.504 130.019C84.6598 129.845 84.8559 129.712 85.0751 129.633C85.2943 129.553 85.5298 129.528 85.7607 129.562Z"
            fill="#EBEBEB" />
        <path
            d="M115.457 177.119C115.369 176.98 115.265 176.851 115.147 176.736V176.702C114.781 176.368 114.297 176.193 113.802 176.216C113.307 176.239 112.841 176.457 112.507 176.823C112.172 177.19 111.997 177.674 112.02 178.169C112.043 178.664 112.261 179.13 112.627 179.464C112.715 179.54 112.81 179.607 112.91 179.666C112.965 179.706 113.026 179.738 113.091 179.76C113.457 179.934 113.869 179.984 114.266 179.903C114.663 179.822 115.023 179.614 115.291 179.31C115.56 179.007 115.722 178.625 115.754 178.221C115.787 177.817 115.687 177.414 115.47 177.072L115.457 177.119Z"
            fill="white" />
        <path
            d="M115.228 179.458C114.933 179.787 114.535 180.007 114.099 180.083C113.639 180.173 113.162 180.094 112.755 179.861L112.58 179.74L112.412 179.619C112.208 179.436 112.043 179.214 111.928 178.966C111.812 178.717 111.748 178.448 111.74 178.174C111.738 177.906 111.789 177.64 111.89 177.392C111.992 177.144 112.142 176.919 112.332 176.729C112.515 176.546 112.733 176.4 112.973 176.302C113.213 176.204 113.47 176.155 113.729 176.158C114.229 176.165 114.707 176.356 115.073 176.696L115.107 176.729C115.222 176.847 115.324 176.978 115.409 177.119C115.627 177.479 115.726 177.898 115.694 178.317C115.661 178.737 115.498 179.135 115.228 179.458ZM115.141 176.736L115.107 176.702C114.925 176.541 114.712 176.419 114.481 176.344C114.249 176.269 114.005 176.242 113.763 176.266C113.529 176.293 113.303 176.367 113.098 176.482C112.893 176.598 112.712 176.752 112.567 176.938C112.291 177.291 112.155 177.733 112.184 178.181C112.218 178.618 112.411 179.027 112.728 179.33L112.876 179.444L113.01 179.545C113.333 179.746 113.713 179.837 114.092 179.804C114.471 179.772 114.83 179.617 115.114 179.364C115.414 179.095 115.613 178.733 115.678 178.335C115.74 177.925 115.662 177.506 115.456 177.146C115.37 176.996 115.264 176.858 115.141 176.736Z"
            fill="#EBEBEB" />
        <path
            d="M84.9071 132.922L66.3195 153.216C66.0756 153.495 65.9521 153.86 65.9761 154.23C66 154.6 66.1694 154.946 66.4472 155.192L98.0715 184.128C98.2289 184.273 98.4167 184.382 98.6213 184.446C98.8258 184.51 99.042 184.528 99.2543 184.498L116.814 181.91C117.117 181.865 117.397 181.717 117.604 181.491C117.812 181.264 117.936 180.974 117.956 180.667L118.191 176.635V176.205L118.957 162.926C118.969 162.712 118.933 162.498 118.852 162.299C118.77 162.1 118.646 161.922 118.487 161.777L86.8626 132.834C86.5893 132.591 86.2322 132.465 85.8671 132.481C85.502 132.497 85.1576 132.655 84.9071 132.922ZM86.6879 133.056L118.312 161.999C118.445 162.118 118.549 162.266 118.616 162.431C118.684 162.597 118.713 162.775 118.702 162.953L117.936 176.239V176.676L117.707 180.674C117.692 180.923 117.593 181.16 117.425 181.346C117.246 181.531 117.009 181.649 116.753 181.682L99.1938 184.269C99.0176 184.293 98.8383 184.277 98.6687 184.224C98.4991 184.171 98.3434 184.08 98.2127 183.96L66.6152 155.024C66.3851 154.823 66.244 154.539 66.2226 154.234C66.2012 153.929 66.3013 153.629 66.501 153.397L85.0885 133.096C85.2984 132.885 85.582 132.762 85.8801 132.755C86.1781 132.747 86.4675 132.855 86.6879 133.056Z"
            fill="#263238" />
        <path
            d="M192.123 170.335C192.661 170.968 192.942 171.78 192.911 172.61C192.88 173.44 192.539 174.229 191.955 174.819C191.371 175.41 190.586 175.761 189.756 175.801C188.927 175.842 188.112 175.57 187.473 175.039C187.284 174.858 187.103 174.676 186.928 174.481C186.276 173.785 185.755 172.977 185.389 172.096C184.997 171.176 184.898 170.157 185.107 169.179C185.289 168.471 185.663 167.827 186.189 167.318C186.26 167.247 186.343 167.191 186.436 167.153C186.528 167.115 186.627 167.095 186.727 167.095C186.827 167.095 186.925 167.115 187.018 167.153C187.11 167.191 187.194 167.247 187.264 167.318C187.401 167.465 187.477 167.658 187.477 167.859C187.477 168.06 187.401 168.253 187.264 168.4C186.943 168.717 186.711 169.113 186.592 169.549C186.495 169.974 186.495 170.415 186.592 170.839C186.621 170.969 186.659 171.097 186.707 171.222C186.885 170.807 187.151 170.436 187.486 170.134C188.131 169.553 188.979 169.249 189.846 169.287C190.713 169.324 191.53 169.701 192.123 170.335ZM191.001 171.363C190.841 171.19 190.649 171.049 190.436 170.949C190.222 170.849 189.991 170.793 189.755 170.783C189.279 170.762 188.815 170.931 188.464 171.252C188.113 171.574 187.904 172.022 187.883 172.498C187.862 172.974 188.031 173.438 188.353 173.789C188.675 174.14 189.123 174.349 189.598 174.37C190.074 174.391 190.539 174.222 190.89 173.9C191.241 173.578 191.45 173.13 191.471 172.655C191.491 172.179 191.322 171.714 191.001 171.363Z"
            fill="#455A64" />
        <path
            d="M192.701 167.808C191.907 166.968 191.378 165.911 191.182 164.771C191.055 164.266 191.067 163.737 191.216 163.239C191.366 162.74 191.647 162.292 192.031 161.94C192.415 161.589 192.886 161.348 193.396 161.243C193.905 161.138 194.434 161.173 194.925 161.344C196.03 161.668 197.024 162.289 197.801 163.138C198.578 163.988 199.108 165.033 199.333 166.162C199.463 166.667 199.453 167.197 199.304 167.697C199.156 168.197 198.874 168.646 198.49 168.998C198.106 169.35 197.633 169.591 197.122 169.695C196.611 169.799 196.082 169.763 195.59 169.589C194.475 169.289 193.471 168.67 192.701 167.808ZM196.686 164.159C196.117 163.52 195.378 163.054 194.556 162.815C194.305 162.727 194.037 162.703 193.775 162.745C193.514 162.788 193.267 162.895 193.057 163.057C192.875 163.255 192.743 163.494 192.674 163.754C192.605 164.014 192.6 164.287 192.661 164.549C192.829 165.39 193.232 166.166 193.823 166.787C194.386 167.428 195.12 167.895 195.94 168.131C196.197 168.215 196.471 168.236 196.737 168.192C197.004 168.147 197.256 168.039 197.472 167.876C197.65 167.677 197.776 167.437 197.839 167.178C197.902 166.919 197.901 166.649 197.835 166.39C197.672 165.547 197.274 164.766 196.686 164.139V164.159Z"
            fill="#455A64" />
        <path
            d="M198.124 159.563C197.894 159.347 197.711 159.087 197.586 158.798C197.461 158.509 197.397 158.198 197.397 157.883C197.397 157.568 197.461 157.257 197.586 156.968C197.711 156.679 197.894 156.419 198.124 156.203C198.354 155.998 198.624 155.843 198.917 155.746C199.209 155.648 199.519 155.611 199.826 155.637C200.133 155.663 200.432 155.751 200.704 155.895C200.976 156.04 201.217 156.238 201.41 156.479C201.642 156.69 201.827 156.947 201.954 157.234C202.082 157.52 202.148 157.83 202.149 158.144C202.15 158.458 202.086 158.768 201.961 159.056C201.836 159.343 201.652 159.602 201.422 159.815C201.192 160.028 200.92 160.191 200.623 160.293C200.327 160.395 200.012 160.435 199.7 160.409C199.387 160.384 199.083 160.294 198.807 160.144C198.531 159.995 198.29 159.79 198.097 159.543L198.124 159.563ZM200.556 157.339C200.465 157.205 200.348 157.091 200.212 157.003C200.076 156.915 199.924 156.854 199.765 156.825C199.606 156.796 199.443 156.798 199.284 156.832C199.126 156.866 198.976 156.931 198.843 157.023C198.366 157.453 198.507 158.179 199.004 158.723C199.096 158.857 199.214 158.971 199.35 159.059C199.487 159.148 199.639 159.208 199.799 159.237C199.959 159.267 200.123 159.264 200.281 159.23C200.44 159.196 200.591 159.131 200.724 159.039C201.195 158.602 201.054 157.883 200.556 157.339ZM203.594 163.212L202.438 152.655C202.42 152.564 202.427 152.47 202.457 152.382C202.488 152.295 202.542 152.217 202.613 152.158C202.715 152.057 202.852 152 202.996 152C203.139 152 203.277 152.057 203.379 152.158C203.46 152.256 203.511 152.374 203.527 152.5L204.683 163.057C204.698 163.15 204.69 163.245 204.658 163.333C204.626 163.422 204.572 163.5 204.501 163.561C204.45 163.61 204.39 163.647 204.324 163.672C204.258 163.696 204.188 163.707 204.118 163.704C204.047 163.701 203.979 163.684 203.915 163.653C203.852 163.623 203.795 163.58 203.748 163.528C203.667 163.44 203.613 163.33 203.594 163.212ZM205.697 159.267C205.475 159.054 205.299 158.798 205.179 158.515C205.059 158.231 204.999 157.926 205.002 157.618C205.004 157.311 205.07 157.007 205.194 156.725C205.318 156.443 205.499 156.19 205.725 155.981C205.95 155.772 206.216 155.611 206.507 155.508C206.797 155.406 207.105 155.364 207.412 155.384C207.719 155.405 208.019 155.488 208.292 155.629C208.566 155.77 208.808 155.965 209.004 156.203C209.232 156.419 209.414 156.68 209.539 156.968C209.663 157.257 209.727 157.568 209.727 157.883C209.727 158.198 209.663 158.509 209.539 158.798C209.414 159.087 209.232 159.347 209.004 159.563C208.771 159.765 208.501 159.917 208.208 160.012C207.916 160.106 207.607 160.14 207.301 160.113C206.995 160.085 206.697 159.996 206.426 159.851C206.155 159.706 205.917 159.507 205.724 159.267H205.697ZM208.123 157.043C208.032 156.91 207.915 156.795 207.779 156.707C207.643 156.619 207.491 156.559 207.332 156.529C207.173 156.5 207.009 156.502 206.851 156.536C206.693 156.57 206.543 156.635 206.41 156.727C205.932 157.157 206.074 157.883 206.578 158.427C206.67 158.561 206.787 158.675 206.924 158.764C207.06 158.852 207.213 158.912 207.372 158.942C207.532 158.971 207.696 158.969 207.855 158.935C208.014 158.9 208.164 158.835 208.298 158.743C208.768 158.313 208.62 157.587 208.123 157.043Z"
            fill="#455A64" />
        <path
            d="M86.1909 152.369C86.2177 152.933 86.1317 153.496 85.9378 154.025C85.7439 154.555 85.4462 155.041 85.062 155.454C84.2871 156.275 83.22 156.758 82.0918 156.798C81.5313 156.826 80.9708 156.742 80.4433 156.551C79.9158 156.359 79.4321 156.064 79.0207 155.682C78.6113 155.303 78.2816 154.847 78.0508 154.339C77.82 153.832 77.6929 153.283 77.6767 152.725C77.6675 152.597 77.6848 152.467 77.7275 152.345C77.7701 152.223 77.8372 152.111 77.9247 152.016C78.0122 151.921 78.1182 151.845 78.2362 151.793C78.3541 151.74 78.4816 151.712 78.6108 151.711C78.7388 151.705 78.8666 151.725 78.9869 151.769C79.1072 151.813 79.2176 151.881 79.3118 151.967C79.4061 152.054 79.4823 152.159 79.5361 152.275C79.5899 152.391 79.6203 152.517 79.6255 152.645C79.6358 152.951 79.7071 153.252 79.8351 153.531C79.9632 153.809 80.1455 154.059 80.3714 154.266C80.5973 154.473 80.8623 154.633 81.1507 154.737C81.4392 154.84 81.7454 154.885 82.0514 154.869C82.6651 154.843 83.2442 154.578 83.6642 154.13C83.877 153.906 84.0412 153.641 84.1464 153.351C84.2517 153.06 84.2957 152.751 84.2758 152.443C84.2679 152.14 84.1976 151.841 84.0693 151.566C83.941 151.291 83.7573 151.045 83.5298 150.844C83.3067 150.633 83.0438 150.469 82.7564 150.362C82.469 150.255 82.163 150.206 81.8565 150.219C81.5979 150.228 81.3459 150.135 81.1549 149.961C80.9639 149.786 80.849 149.543 80.8351 149.285C80.8351 149.184 80.8351 149.09 80.8351 148.989C80.8351 148.888 80.8351 148.955 80.8351 148.942C80.8431 148.913 80.8431 148.883 80.8351 148.855C80.8351 148.814 80.8754 148.781 80.9023 148.754C80.9292 148.727 80.9023 148.754 80.9023 148.714C80.957 148.631 81.0252 148.558 81.1039 148.499L84.5042 145.562C84.6139 145.475 84.7401 145.411 84.8753 145.374C85.0104 145.337 85.1517 145.328 85.2905 145.347C85.3148 145.352 85.34 145.352 85.3644 145.347H85.4249C85.5738 145.386 85.7103 145.462 85.8213 145.569L89.5711 149.009C89.6655 149.098 89.7417 149.203 89.7951 149.321C89.8486 149.439 89.8784 149.566 89.8827 149.695C89.8871 149.824 89.866 149.953 89.8206 150.074C89.7752 150.195 89.7064 150.306 89.6181 150.4C89.5299 150.495 89.4239 150.571 89.3063 150.624C89.1886 150.678 89.0615 150.708 88.9324 150.712C88.8032 150.716 88.6744 150.695 88.5534 150.65C88.4324 150.604 88.3215 150.536 88.2271 150.447L85.1023 147.578L83.7919 148.693C84.1395 148.876 84.4624 149.101 84.7529 149.365C85.1829 149.743 85.532 150.204 85.7791 150.72C86.0263 151.236 86.1664 151.797 86.1909 152.369Z"
            fill="#37474F" />
        <path
            d="M88.3344 156.085C89.3037 154.993 90.5763 154.214 91.9901 153.848C92.6095 153.633 93.2755 153.59 93.9174 153.724C94.5592 153.857 95.1529 154.162 95.6353 154.606C96.1178 155.05 96.471 155.616 96.6574 156.244C96.8438 156.873 96.8565 157.54 96.6941 158.175C96.4386 159.61 95.7627 160.936 94.752 161.986C93.7867 163.077 92.5229 163.862 91.1165 164.244C90.4972 164.456 89.8321 164.497 89.1914 164.362C88.5506 164.228 87.9581 163.923 87.4763 163.48C86.9945 163.037 86.6414 162.472 86.4541 161.844C86.2669 161.217 86.2525 160.551 86.4125 159.916C86.6609 158.477 87.3296 157.144 88.3344 156.085ZM93.3543 160.695C94.099 159.912 94.6069 158.933 94.8192 157.873C94.9018 157.548 94.902 157.208 94.8198 156.883C94.7377 156.558 94.5758 156.258 94.3488 156.012C94.0801 155.806 93.7654 155.668 93.4318 155.611C93.0982 155.553 92.7557 155.578 92.4336 155.682C91.4037 155.997 90.4763 156.58 89.7474 157.373C89.0185 158.166 88.5145 159.139 88.2874 160.191C88.2097 160.523 88.2131 160.868 88.2973 161.198C88.3815 161.528 88.5441 161.833 88.7712 162.086C89.0405 162.289 89.3556 162.422 89.6885 162.473C90.0213 162.525 90.3618 162.493 90.6797 162.382C91.7125 162.083 92.6397 161.499 93.3543 160.695Z"
            fill="#37474F" />
        <path
            d="M95.2896 169.277L108.434 166.656C108.546 166.627 108.663 166.627 108.775 166.656C108.887 166.686 108.989 166.743 109.072 166.824C109.14 166.883 109.195 166.955 109.235 167.035C109.274 167.116 109.297 167.204 109.302 167.293C109.307 167.383 109.294 167.472 109.264 167.557C109.234 167.641 109.187 167.719 109.126 167.785C109.014 167.903 108.869 167.982 108.709 168.013L95.5651 170.621C95.4469 170.65 95.3233 170.648 95.2057 170.617C95.0882 170.585 94.9806 170.524 94.8931 170.439C94.8274 170.38 94.7742 170.307 94.7366 170.227C94.699 170.146 94.6777 170.059 94.6739 169.971C94.6702 169.882 94.6841 169.793 94.7148 169.71C94.7455 169.627 94.7924 169.55 94.8528 169.485C94.975 169.375 95.1268 169.302 95.2896 169.277ZM99.2813 162.006C99.5294 161.701 99.8367 161.449 100.185 161.266C100.533 161.083 100.914 160.973 101.306 160.941C101.698 160.91 102.092 160.958 102.465 161.084C102.838 161.209 103.181 161.408 103.475 161.67C103.757 161.937 103.983 162.26 104.137 162.617C104.291 162.975 104.37 163.36 104.37 163.75C104.37 164.139 104.291 164.524 104.137 164.882C103.983 165.239 103.757 165.562 103.475 165.829C103.226 166.135 102.918 166.386 102.569 166.569C102.221 166.752 101.839 166.863 101.446 166.894C101.054 166.926 100.659 166.877 100.286 166.752C99.9127 166.627 99.5686 166.427 99.2746 166.165C98.9947 165.896 98.7722 165.573 98.6204 165.215C98.4686 164.857 98.3907 164.473 98.3914 164.084C98.392 163.696 98.4712 163.311 98.6241 162.954C98.777 162.597 99.0006 162.274 99.2813 162.006ZM100.471 171.488C100.71 171.172 101.013 170.909 101.359 170.717C101.705 170.524 102.088 170.406 102.483 170.369C102.877 170.333 103.275 170.379 103.651 170.504C104.027 170.63 104.372 170.832 104.666 171.098C104.959 171.364 105.194 171.689 105.355 172.051C105.517 172.413 105.601 172.804 105.603 173.201C105.604 173.597 105.524 173.989 105.365 174.353C105.207 174.716 104.975 175.042 104.684 175.311C104.436 175.615 104.128 175.866 103.78 176.049C103.432 176.231 103.051 176.341 102.659 176.373C102.267 176.404 101.874 176.356 101.501 176.231C101.128 176.107 100.785 175.908 100.491 175.647C100.21 175.379 99.9863 175.057 99.8327 174.7C99.6792 174.344 99.5991 173.96 99.5972 173.572C99.5953 173.183 99.6717 172.799 99.8218 172.441C99.9719 172.083 100.193 171.759 100.471 171.488ZM102.339 164.821C103.011 164.109 103.125 163.148 102.554 162.624C101.983 162.1 101.062 162.335 100.437 163.02C99.7651 163.746 99.6576 164.687 100.229 165.211C100.8 165.735 101.707 165.507 102.339 164.821ZM103.535 174.297C104.207 173.591 104.321 172.63 103.75 172.106C103.179 171.582 102.258 171.817 101.627 172.502C100.955 173.228 100.84 174.176 101.412 174.7C101.983 175.224 102.903 174.982 103.535 174.297Z"
            fill="#37474F" />
        <path
            d="M247.296 246.429C247.298 250.931 249.085 255.249 252.266 258.435C255.447 261.621 259.762 263.415 264.264 263.424V285.224H71.7358V263.424C73.9965 263.469 76.2435 263.062 78.3451 262.228C80.4468 261.394 82.361 260.149 83.9757 258.567C85.5904 256.984 86.8731 255.095 87.7487 253.01C88.6244 250.925 89.0754 248.687 89.0754 246.426C89.0754 244.165 88.6244 241.926 87.7487 239.841C86.8731 237.757 85.5904 235.868 83.9757 234.285C82.361 232.702 80.4468 231.457 78.3451 230.623C76.2435 229.789 73.9965 229.383 71.7358 229.427V187.313H264.264V229.427C259.761 229.436 255.445 231.232 252.264 234.419C249.082 237.606 247.296 241.926 247.296 246.429Z"
            fill="#009196" />
        <path opacity="0.3"
            d="M264.264 263.424V285.224H71.7358V263.424C76.2438 263.424 80.5672 261.634 83.7554 258.447C86.9436 255.26 88.7357 250.937 88.7374 246.429H247.296C247.298 250.931 249.085 255.249 252.266 258.435C255.447 261.621 259.762 263.415 264.264 263.424Z"
            fill="white" />
        <g opacity="0.2">
            <path
                d="M90.0814 247.094H88.7374C88.5592 247.094 88.3883 247.024 88.2623 246.898C88.1362 246.772 88.0654 246.601 88.0654 246.422C88.0654 246.244 88.1362 246.073 88.2623 245.947C88.3883 245.821 88.5592 245.75 88.7374 245.75H90.0814C90.2597 245.75 90.4306 245.821 90.5566 245.947C90.6826 246.073 90.7534 246.244 90.7534 246.422C90.7534 246.601 90.6826 246.772 90.5566 246.898C90.4306 247.024 90.2597 247.094 90.0814 247.094Z"
                fill="black" />
            <path
                d="M239.823 247.094H237.135C236.957 247.094 236.786 247.024 236.66 246.898C236.534 246.772 236.463 246.601 236.463 246.422C236.463 246.244 236.534 246.073 236.66 245.947C236.786 245.821 236.957 245.75 237.135 245.75H239.823C240.001 245.75 240.172 245.821 240.298 245.947C240.424 246.073 240.495 246.244 240.495 246.422C240.495 246.601 240.424 246.772 240.298 246.898C240.172 247.024 240.001 247.094 239.823 247.094ZM231.013 247.094H228.325C228.147 247.094 227.976 247.024 227.85 246.898C227.724 246.772 227.653 246.601 227.653 246.422C227.653 246.244 227.724 246.073 227.85 245.947C227.976 245.821 228.147 245.75 228.325 245.75H231.013C231.191 245.75 231.362 245.821 231.488 245.947C231.614 246.073 231.685 246.244 231.685 246.422C231.685 246.601 231.614 246.772 231.488 246.898C231.362 247.024 231.191 247.094 231.013 247.094ZM222.203 247.094H219.515C219.337 247.094 219.166 247.024 219.04 246.898C218.914 246.772 218.843 246.601 218.843 246.422C218.843 246.244 218.914 246.073 219.04 245.947C219.166 245.821 219.337 245.75 219.515 245.75H222.203C222.381 245.75 222.552 245.821 222.678 245.947C222.804 246.073 222.875 246.244 222.875 246.422C222.875 246.601 222.804 246.772 222.678 246.898C222.552 247.024 222.381 247.094 222.203 247.094ZM213.393 247.094H210.705C210.527 247.094 210.356 247.024 210.23 246.898C210.104 246.772 210.033 246.601 210.033 246.422C210.033 246.244 210.104 246.073 210.23 245.947C210.356 245.821 210.527 245.75 210.705 245.75H213.393C213.572 245.75 213.742 245.821 213.869 245.947C213.995 246.073 214.065 246.244 214.065 246.422C214.065 246.601 213.995 246.772 213.869 246.898C213.742 247.024 213.572 247.094 213.393 247.094ZM204.59 247.094H201.902C201.724 247.094 201.553 247.024 201.427 246.898C201.301 246.772 201.23 246.601 201.23 246.422C201.23 246.244 201.301 246.073 201.427 245.947C201.553 245.821 201.724 245.75 201.902 245.75H204.59C204.768 245.75 204.939 245.821 205.065 245.947C205.191 246.073 205.262 246.244 205.262 246.422C205.262 246.601 205.191 246.772 205.065 246.898C204.939 247.024 204.768 247.094 204.59 247.094ZM195.78 247.094H193.092C192.914 247.094 192.743 247.024 192.617 246.898C192.491 246.772 192.42 246.601 192.42 246.422C192.42 246.244 192.491 246.073 192.617 245.947C192.743 245.821 192.914 245.75 193.092 245.75H195.78C195.958 245.75 196.129 245.821 196.255 245.947C196.381 246.073 196.452 246.244 196.452 246.422C196.452 246.601 196.381 246.772 196.255 246.898C196.129 247.024 195.958 247.094 195.78 247.094ZM186.97 247.094H184.282C184.104 247.094 183.933 247.024 183.807 246.898C183.681 246.772 183.61 246.601 183.61 246.422C183.61 246.244 183.681 246.073 183.807 245.947C183.933 245.821 184.104 245.75 184.282 245.75H186.97C187.149 245.75 187.319 245.821 187.445 245.947C187.571 246.073 187.642 246.244 187.642 246.422C187.642 246.601 187.571 246.772 187.445 246.898C187.319 247.024 187.149 247.094 186.97 247.094ZM178.16 247.094H175.472C175.294 247.094 175.123 247.024 174.997 246.898C174.871 246.772 174.8 246.601 174.8 246.422C174.8 246.244 174.871 246.073 174.997 245.947C175.123 245.821 175.294 245.75 175.472 245.75H178.16C178.339 245.75 178.51 245.821 178.636 245.947C178.762 246.073 178.832 246.244 178.832 246.422C178.832 246.601 178.762 246.772 178.636 246.898C178.51 247.024 178.339 247.094 178.16 247.094ZM169.357 247.094H166.669C166.491 247.094 166.32 247.024 166.194 246.898C166.068 246.772 165.997 246.601 165.997 246.422C165.997 246.244 166.068 246.073 166.194 245.947C166.32 245.821 166.491 245.75 166.669 245.75H169.357C169.535 245.75 169.706 245.821 169.832 245.947C169.958 246.073 170.029 246.244 170.029 246.422C170.029 246.601 169.958 246.772 169.832 246.898C169.706 247.024 169.535 247.094 169.357 247.094ZM160.547 247.094H157.859C157.681 247.094 157.51 247.024 157.384 246.898C157.258 246.772 157.187 246.601 157.187 246.422C157.187 246.244 157.258 246.073 157.384 245.947C157.51 245.821 157.681 245.75 157.859 245.75H160.547C160.725 245.75 160.896 245.821 161.022 245.947C161.148 246.073 161.219 246.244 161.219 246.422C161.219 246.601 161.148 246.772 161.022 246.898C160.896 247.024 160.725 247.094 160.547 247.094ZM151.737 247.094H149.049C148.871 247.094 148.7 247.024 148.574 246.898C148.448 246.772 148.377 246.601 148.377 246.422C148.377 246.244 148.448 246.073 148.574 245.947C148.7 245.821 148.871 245.75 149.049 245.75H151.737C151.916 245.75 152.086 245.821 152.213 245.947C152.339 246.073 152.409 246.244 152.409 246.422C152.409 246.601 152.339 246.772 152.213 246.898C152.086 247.024 151.916 247.094 151.737 247.094ZM142.927 247.094H140.239C140.061 247.094 139.89 247.024 139.764 246.898C139.638 246.772 139.567 246.601 139.567 246.422C139.567 246.244 139.638 246.073 139.764 245.947C139.89 245.821 140.061 245.75 140.239 245.75H142.927C143.106 245.75 143.277 245.821 143.403 245.947C143.529 246.073 143.599 246.244 143.599 246.422C143.599 246.601 143.529 246.772 143.403 246.898C143.277 247.024 143.106 247.094 142.927 247.094ZM134.124 247.094H131.436C131.258 247.094 131.087 247.024 130.961 246.898C130.835 246.772 130.764 246.601 130.764 246.422C130.764 246.244 130.835 246.073 130.961 245.947C131.087 245.821 131.258 245.75 131.436 245.75H134.124C134.302 245.75 134.473 245.821 134.599 245.947C134.725 246.073 134.796 246.244 134.796 246.422C134.796 246.601 134.725 246.772 134.599 246.898C134.473 247.024 134.302 247.094 134.124 247.094ZM125.314 247.094H122.626C122.448 247.094 122.277 247.024 122.151 246.898C122.025 246.772 121.954 246.601 121.954 246.422C121.954 246.244 122.025 246.073 122.151 245.947C122.277 245.821 122.448 245.75 122.626 245.75H125.314C125.493 245.75 125.663 245.821 125.789 245.947C125.915 246.073 125.986 246.244 125.986 246.422C125.986 246.601 125.915 246.772 125.789 246.898C125.663 247.024 125.493 247.094 125.314 247.094ZM116.504 247.094H113.816C113.638 247.094 113.467 247.024 113.341 246.898C113.215 246.772 113.144 246.601 113.144 246.422C113.144 246.244 113.215 246.073 113.341 245.947C113.467 245.821 113.638 245.75 113.816 245.75H116.504C116.683 245.75 116.854 245.821 116.98 245.947C117.106 246.073 117.176 246.244 117.176 246.422C117.176 246.601 117.106 246.772 116.98 246.898C116.854 247.024 116.683 247.094 116.504 247.094ZM107.701 247.094H105.013C104.835 247.094 104.664 247.024 104.538 246.898C104.412 246.772 104.341 246.601 104.341 246.422C104.341 246.244 104.412 246.073 104.538 245.947C104.664 245.821 104.835 245.75 105.013 245.75H107.701C107.879 245.75 108.05 245.821 108.176 245.947C108.302 246.073 108.373 246.244 108.373 246.422C108.373 246.601 108.302 246.772 108.176 246.898C108.05 247.024 107.879 247.094 107.701 247.094ZM98.8912 247.094H96.2032C96.025 247.094 95.8541 247.024 95.7281 246.898C95.602 246.772 95.5312 246.601 95.5312 246.422C95.5312 246.244 95.602 246.073 95.7281 245.947C95.8541 245.821 96.025 245.75 96.2032 245.75H98.8912C99.0695 245.75 99.2404 245.821 99.3664 245.947C99.4925 246.073 99.5633 246.244 99.5633 246.422C99.5633 246.601 99.4925 246.772 99.3664 246.898C99.2404 247.024 99.0695 247.094 98.8912 247.094Z"
                fill="black" />
            <path
                d="M247.296 247.094H245.952C245.774 247.094 245.603 247.024 245.477 246.898C245.351 246.772 245.28 246.601 245.28 246.422C245.28 246.244 245.351 246.073 245.477 245.947C245.603 245.821 245.774 245.75 245.952 245.75H247.296C247.474 245.75 247.645 245.821 247.771 245.947C247.897 246.073 247.968 246.244 247.968 246.422C247.968 246.601 247.897 246.772 247.771 246.898C247.645 247.024 247.474 247.094 247.296 247.094Z"
                fill="black" />
        </g>
        <path
            d="M146.14 226.343V226.215C146.14 220.167 150.286 215.147 156.408 215.147C162.53 215.147 166.555 220.154 166.555 226.094V226.215C166.555 232.216 162.469 237.29 156.287 237.29C150.225 237.29 146.14 232.277 146.14 226.343ZM161.045 226.343V226.215C161.045 222.755 159.069 219.912 156.287 219.912C153.377 219.912 151.643 222.755 151.643 226.094V226.215C151.643 229.743 153.659 232.525 156.408 232.525C159.318 232.512 161.045 229.683 161.045 226.343ZM153.256 255.239L181.641 216.458C181.863 216.104 182.174 215.815 182.544 215.62C182.913 215.425 183.327 215.332 183.745 215.349C184.066 215.343 184.386 215.401 184.684 215.519C184.983 215.637 185.256 215.814 185.486 216.038C185.716 216.262 185.899 216.53 186.025 216.826C186.15 217.122 186.216 217.44 186.218 217.762C186.205 218.341 186.012 218.902 185.667 219.368L157.248 258.135C157.009 258.486 156.685 258.772 156.307 258.965C155.929 259.159 155.509 259.255 155.084 259.244C154.766 259.25 154.449 259.191 154.154 259.072C153.859 258.952 153.591 258.775 153.366 258.55C153.141 258.325 152.963 258.056 152.844 257.761C152.725 257.466 152.666 257.15 152.671 256.832C152.693 256.248 152.898 255.687 153.256 255.226V255.239ZM172.307 248.519V248.391C172.307 242.343 176.447 237.323 182.569 237.323C188.691 237.323 192.716 242.33 192.716 248.27V248.391C192.716 254.392 188.57 259.466 182.448 259.466C176.326 259.466 172.307 254.419 172.307 248.485V248.519ZM187.212 248.519V248.391C187.212 244.931 185.23 242.088 182.448 242.088C179.538 242.088 177.811 244.931 177.811 248.27V248.391C177.811 251.919 179.787 254.701 182.569 254.701C185.472 254.688 187.212 251.825 187.212 248.485V248.519Z"
            fill="white" />
    </g>
    <defs>
        <clipPath id="clip0_1009_2765">
            <rect width="336" height="336" fill="white" />
        </clipPath>
    </defs>
</svg>
