<svg width="339" height="220" viewBox="0 0 339 220" fill="none" xmlns="http://www.w3.org/2000/svg">
    <path d="M338.056 81.3473H312.68V88.0601H338.056V81.3473Z" fill="#EBEBEB" />
    <path
        d="M327.326 95.131C327.323 95.128 327.321 95.0875 327.318 95.0089C327.316 94.919 327.314 94.8059 327.31 94.6643C327.306 94.3482 327.3 93.9077 327.291 93.3428C327.281 92.184 327.267 90.5179 327.248 88.4174L327.327 88.4961C321.532 88.5081 312.318 88.526 301.953 88.547C302.01 88.4893 301.822 88.6759 302.081 88.4182V88.4197V88.4234V88.4302V88.4436V88.4706V88.5245V88.6324V88.8482V89.2789C302.081 89.5651 302.081 89.8505 302.081 90.1351C302.081 90.7045 302.081 91.2693 302.08 91.8296C302.079 92.9503 302.078 94.0523 302.078 95.1317L301.951 95.0051C309.177 95.0284 315.5 95.0478 320.035 95.0628C322.293 95.0778 324.106 95.0905 325.372 95.0988C325.988 95.1055 326.47 95.1115 326.816 95.1153C326.971 95.119 327.095 95.1212 327.193 95.1235C327.278 95.1257 327.323 95.1287 327.326 95.131C327.329 95.134 327.289 95.1362 327.208 95.1392C327.115 95.1415 326.996 95.1437 326.846 95.1475C326.508 95.1512 326.034 95.1572 325.431 95.1639C324.171 95.1722 322.369 95.1849 320.122 95.1999C315.566 95.2141 309.212 95.2344 301.95 95.2576H301.824V95.131C301.823 94.0515 301.822 92.9496 301.822 91.8289C301.822 91.2686 301.821 90.7037 301.821 90.1344C301.821 89.8497 301.821 89.5643 301.821 89.2782V88.8474V88.6317V88.5238V88.4698V88.4429V88.4294V88.4227V88.4189V88.4174C302.079 88.159 301.893 88.3455 301.952 88.2878C312.317 88.3088 321.532 88.3268 327.326 88.3388H327.405L327.405 88.4174C327.386 90.5382 327.372 92.2199 327.361 93.39C327.353 93.9474 327.347 94.3819 327.342 94.6935C327.339 94.8291 327.336 94.9377 327.333 95.0239C327.331 95.098 327.329 95.134 327.326 95.131Z"
        fill="#E0E0E0" />
    <path
        d="M288.761 175.771C286.78 174.528 284.511 173.746 282.184 173.507C281.11 173.397 279.935 173.429 279.074 174.079C278.891 174.217 278.713 174.421 278.753 174.647C278.783 174.812 278.923 174.933 279.057 175.035C281.734 177.077 285.781 177.335 288.761 175.771Z"
        fill="#E0E0E0" />
    <path
        d="M288.592 175.585C287.104 174.423 285.606 173.254 284.345 171.848C283.083 170.443 282.059 168.774 281.682 166.923C281.567 166.362 281.532 165.721 281.892 165.275C285.278 167.92 287.938 171.339 288.592 175.585Z"
        fill="#E0E0E0" />
    <path
        d="M288.726 175.745C288.471 173.894 288.379 171.989 288.804 170.169C289.23 168.349 290.22 166.606 291.774 165.567C292.359 166.935 292.108 168.511 291.696 169.939C291.059 172.147 290.06 174.251 288.75 176.14"
        fill="#E0E0E0" />
    <path
        d="M292.045 181.693C290.03 181.938 288.275 183 286.771 184.362C285.267 185.725 284.197 187.56 283.754 189.541C285.731 189.418 287.407 188.025 288.623 186.462C289.839 184.9 290.681 183.185 292.017 181.724"
        fill="#E0E0E0" />
    <path
        d="M292.766 182.644C291.143 178.647 291.731 173.83 294.267 170.341C295.416 174.423 294.994 179.035 292.766 182.644Z"
        fill="#E0E0E0" />
    <path
        d="M297.151 187.866C295.323 187.752 293.464 188.188 291.876 189.102C290.288 190.016 288.977 191.404 288.158 193.043C288.046 193.265 287.948 193.548 288.097 193.748C288.227 193.921 288.478 193.937 288.694 193.923C290.466 193.808 292.037 192.742 293.333 191.527C294.629 190.313 295.758 188.911 297.191 187.86"
        fill="#E0E0E0" />
    <path
        d="M297.012 187.582C296.069 184.563 296.01 181.275 296.845 178.225C297.174 177.021 297.728 175.753 298.841 175.188C298.936 175.14 299.047 175.097 299.147 175.134C299.241 175.17 299.296 175.267 299.34 175.358C299.736 176.186 299.852 177.125 299.811 178.042C299.77 178.959 299.58 179.862 299.39 180.759C299.04 182.42 298.853 184.205 297.942 185.638C297.726 185.978 297.536 186.345 297.363 186.709C297.191 187.073 297.189 187.201 297.031 187.491"
        fill="#E0E0E0" />
    <path
        d="M308.619 189.311C307.759 186.039 308.672 182.073 310.733 179.392C310.885 179.194 311.086 178.983 311.334 179.005C311.714 179.04 311.812 179.546 311.795 179.927C311.647 183.271 310.532 186.564 308.619 189.311Z"
        fill="#E0E0E0" />
    <path
        d="M309.666 190.026C313.64 191.06 318.199 190.055 321.505 187.618C319.546 186.625 317.237 186.341 315.096 186.831C312.955 187.321 310.999 188.28 309.666 190.026Z"
        fill="#E0E0E0" />
    <path
        d="M310.549 187.848C312.775 184.22 317.042 181.85 321.294 181.635C320.804 183.365 319.383 184.709 317.779 185.521C316.175 186.333 314.386 186.686 312.621 187.03C311.935 187.162 310.994 187.309 310.549 187.848Z"
        fill="#E0E0E0" />
    <path
        d="M308.841 177.278C309.444 175.213 310.05 173.13 310.216 170.985C310.381 168.84 310.075 166.601 308.962 164.76C306.884 168.783 306.673 173.484 308.779 177.493"
        fill="#E0E0E0" />
    <path
        d="M315.84 173.74C318.272 169.321 323.233 165.791 328.252 165.296C326.317 170.117 321.035 173.844 315.84 173.74Z"
        fill="#E0E0E0" />
    <path
        d="M314.311 174.606C317.938 175.158 321.027 177.475 324.416 178.878C325.14 179.179 325.922 179.418 326.7 179.316C327.477 179.214 328.245 178.692 328.42 177.927C328.564 177.292 328.275 176.618 327.82 176.152C327.364 175.687 326.762 175.397 326.161 175.146C322.47 173.609 318.511 173.57 314.623 174.503"
        fill="#E0E0E0" />
    <path
        d="M312.212 177.149C313.033 177.385 313.314 177.809 313.964 178.363C316.169 180.242 318.814 181.601 321.627 182.299C321.919 182.372 322.303 182.401 322.448 182.136C322.575 181.906 322.415 181.625 322.251 181.42C321.072 179.946 319.392 178.938 317.624 178.279C315.855 177.621 314.323 176.827 312.213 176.997"
        fill="#E0E0E0" />
    <path
        d="M309.845 161.788C312.793 164.54 316.947 165.954 320.962 165.57C321.145 165.553 321.344 165.524 321.469 165.389C321.749 165.085 321.413 164.614 321.087 164.361C317.818 161.812 313.858 160.756 309.845 161.788Z"
        fill="#E0E0E0" />
    <path
        d="M312.652 160.761C316.55 157.839 321.896 156.957 326.525 158.472C324.778 160.194 322.354 161.12 319.914 161.374C317.474 161.628 315.032 161.357 312.652 160.761Z"
        fill="#E0E0E0" />
    <path
        d="M311.536 153.702C311.215 150.44 311.424 147.864 311.197 144.586C311.179 144.324 311.122 144.009 310.877 143.915C310.537 143.784 310.252 144.203 310.14 144.551C309.169 147.573 309.7 151.038 311.531 153.63"
        fill="#E0E0E0" />
    <path
        d="M311.302 154.062C313.513 152.695 315.172 150.909 316.706 148.81C317.773 147.349 318.673 145.6 318.43 143.806C316.931 143.776 315.507 144.603 314.532 145.742C313.557 146.881 312.978 148.305 312.545 149.741C312.112 151.177 311.81 152.652 311.302 154.062Z"
        fill="#E0E0E0" />
    <path
        d="M316.612 152.587C321.464 150.793 325.992 148.123 329.911 144.745C328.323 144.105 326.504 144.488 324.916 145.129C321.287 146.594 318.322 149.067 316.542 152.552"
        fill="#E0E0E0" />
    <path
        d="M312.795 155.848C315.25 156.116 317.744 156.29 320.18 155.883C322.575 155.483 324.838 154.534 327.075 153.593C327.26 153.515 327.463 153.421 327.544 153.237C327.632 153.037 327.538 152.793 327.376 152.647C327.214 152.5 326.998 152.43 326.788 152.371C324.355 151.691 321.73 152.009 319.337 152.816C316.944 153.623 314.981 154.582 312.795 155.848Z"
        fill="#E0E0E0" />
    <path
        d="M298.775 161.9C297.1 158.518 297.209 154.573 298.656 151.088C299.675 152.64 299.799 154.616 299.613 156.463C299.426 158.311 298.864 160.211 298.828 162.068"
        fill="#E0E0E0" />
    <path
        d="M292.083 158.525C287.901 158.445 283.717 160.227 280.878 163.298C282.965 163.626 285.115 163.088 287.014 162.16C288.913 161.233 290.6 159.933 292.272 158.641"
        fill="#E0E0E0" />
    <path
        d="M287.585 157.02C285.539 156.854 283.57 156.6 281.603 157.203C279.636 157.806 277.845 159.174 277.044 161.07C278.958 161.285 280.898 160.805 282.652 160.01C284.405 159.216 286 158.115 287.585 157.02Z"
        fill="#E0E0E0" />
    <path
        d="M294.246 157.089C292.405 155.883 290.515 154.655 288.372 154.155C286.229 153.656 283.745 154.025 282.251 155.64C283.986 156.658 286.09 156.779 288.102 156.777C290.114 156.774 292.58 156.752 294.476 157.423"
        fill="#E0E0E0" />
    <path
        d="M294.256 157.186C291.109 154.096 289.916 148.546 291.182 144.322C293.656 148.079 294.764 152.715 294.256 157.186Z"
        fill="#E0E0E0" />
    <path
        d="M302.91 148.431C303.503 147.051 303.92 145.603 304.453 144.2C304.985 142.795 305.647 141.414 306.653 140.298C307.659 139.183 309.05 138.353 310.55 138.279C309.611 142.531 306.787 146.329 302.986 148.454"
        fill="#E0E0E0" />
    <path
        d="M301.344 150.255C300.362 148.903 299.227 147.069 297.896 146.06C296.564 145.051 294.829 144.44 293.205 144.827C294.856 147.783 297.98 149.866 301.344 150.255Z"
        fill="#E0E0E0" />
    <path
        d="M301.657 148.544C301.013 146.908 300.365 145.255 300.105 143.516C299.844 141.778 300.003 139.921 300.892 138.404C302.619 141.67 303.175 145.174 301.745 148.58"
        fill="#E0E0E0" />
    <path
        d="M302.925 138.405C303.904 135.168 306.867 132.785 310.067 131.692C310.471 131.554 310.898 131.439 311.32 131.504C311.742 131.568 312.154 131.857 312.243 132.274C312.36 132.824 311.905 133.318 311.477 133.683C308.984 135.815 306.056 137.432 302.925 138.405Z"
        fill="#E0E0E0" />
    <path
        d="M302.961 135.758C303.085 133.671 303.215 131.554 303.894 129.576C304.573 127.598 305.881 125.744 307.784 124.878C308.108 126.986 307.178 129.083 306.057 130.897C304.935 132.71 303.583 134.422 302.91 136.446"
        fill="#E0E0E0" />
    <path
        d="M302.909 137.194C302.101 134.836 302.017 131.839 300.604 129.784C299.617 128.347 298.036 127.369 297.185 125.848C296.62 127.269 296.793 128.906 297.385 130.316C297.976 131.727 298.952 132.941 299.997 134.057C301.042 135.174 301.937 136.014 302.909 137.194Z"
        fill="#E0E0E0" />
    <path
        d="M302.925 206.662C302.862 206.662 302.808 190.926 302.803 171.519C302.799 152.105 302.846 136.373 302.909 136.373C302.972 136.373 303.026 152.106 303.03 171.519C303.035 190.926 302.988 206.662 302.925 206.662Z"
        fill="#E0E0E0" />
    <path
        d="M316.677 159.525C316.681 159.54 316.47 159.619 316.085 159.747C315.66 159.891 315.113 160.076 314.456 160.297C313.083 160.764 311.198 161.442 309.15 162.28C307.123 163.15 305.212 163.856 304.124 164.799C303.58 165.264 303.268 165.768 303.114 166.135C302.958 166.504 302.93 166.731 302.91 166.727C302.902 166.725 302.904 166.669 302.916 166.562C302.934 166.456 302.962 166.298 303.032 166.104C303.164 165.716 303.468 165.177 304.018 164.679C304.564 164.18 305.326 163.732 306.199 163.324C307.071 162.916 308.039 162.491 309.065 162.07C311.118 161.228 313.019 160.573 314.407 160.144C315.101 159.927 315.667 159.768 316.06 159.663C316.453 159.56 316.672 159.51 316.677 159.525Z"
        fill="#E0E0E0" />
    <path
        d="M321.184 148.454C321.189 148.46 321.132 148.52 321.018 148.631C320.884 148.756 320.717 148.913 320.513 149.105C320.044 149.531 319.406 150.111 318.629 150.817C317.001 152.267 314.793 154.232 312.354 156.404C309.904 158.584 307.788 160.667 306.321 162.236C305.587 163.02 305.008 163.668 304.614 164.121C304.43 164.331 304.279 164.504 304.158 164.641C304.052 164.76 303.994 164.819 303.988 164.814C303.982 164.808 304.028 164.74 304.123 164.612C304.218 164.486 304.356 164.297 304.546 164.064C304.92 163.593 305.482 162.926 306.203 162.127C307.644 160.526 309.748 158.418 312.203 156.234C314.66 154.059 316.897 152.105 318.522 150.697C319.32 150.012 319.974 149.451 320.455 149.038C320.671 148.859 320.847 148.713 320.988 148.596C321.111 148.497 321.179 148.448 321.184 148.454Z"
        fill="#E0E0E0" />
    <path
        d="M309.71 158.621C309.646 158.592 310.157 157.411 310.667 155.917C311.182 154.423 311.424 153.163 311.489 153.173C311.548 153.179 311.404 154.477 310.882 155.99C310.626 156.745 310.343 157.409 310.121 157.881C309.898 158.353 309.738 158.633 309.71 158.621Z"
        fill="#E0E0E0" />
    <path
        d="M302.94 168.145C302.927 168.154 302.793 167.997 302.562 167.707C302.306 167.379 301.982 166.963 301.595 166.467C300.783 165.417 299.66 163.968 298.402 162.382C297.142 160.796 295.986 159.374 295.148 158.344C294.753 157.855 294.421 157.445 294.16 157.122C293.929 156.831 293.807 156.665 293.819 156.655C293.831 156.645 293.976 156.791 294.227 157.065C294.479 157.338 294.836 157.74 295.271 158.242C296.141 159.246 297.319 160.653 298.58 162.241C299.84 163.829 300.944 165.295 301.724 166.371C302.114 166.909 302.424 167.347 302.633 167.655C302.843 167.961 302.952 168.136 302.94 168.145Z"
        fill="#E0E0E0" />
    <path
        d="M299.925 164.274C299.887 164.314 299.083 163.36 298.662 161.909C298.351 160.888 298.336 159.953 298.375 159.525L298.476 159.533C298.431 159.715 298.398 159.811 298.38 159.809C298.362 159.806 298.361 159.705 298.376 159.518L298.476 159.526C298.513 159.95 298.578 160.852 298.88 161.845C299.286 163.25 299.985 164.236 299.925 164.274Z"
        fill="#E0E0E0" />
    <path
        d="M296.031 159.377C296.002 159.409 295.743 159.083 295.15 158.865C294.561 158.637 293.674 158.587 292.701 158.67C291.727 158.741 290.857 158.915 290.235 159.068C289.612 159.222 289.232 159.344 289.22 159.311C289.21 159.285 289.573 159.109 290.192 158.913C290.811 158.718 291.693 158.516 292.684 158.443C293.667 158.359 294.601 158.434 295.21 158.716C295.827 158.989 296.052 159.372 296.031 159.377Z"
        fill="#E0E0E0" />
    <path
        d="M295.109 158.191C295.091 158.226 294.595 157.985 293.757 157.699C292.921 157.411 291.731 157.11 290.386 157.005C289.041 156.905 287.818 157.022 286.949 157.179C286.077 157.335 285.551 157.499 285.539 157.461C285.533 157.446 285.662 157.393 285.897 157.308C286.131 157.221 286.48 157.121 286.917 157.022C287.79 156.822 289.034 156.676 290.404 156.778C291.773 156.884 292.981 157.218 293.813 157.547C294.229 157.711 294.56 157.863 294.778 157.986C294.998 158.105 295.115 158.177 295.109 158.191Z"
        fill="#E0E0E0" />
    <path
        d="M302.91 153.172C302.849 153.188 302.408 151.656 301.925 149.75C301.441 147.843 301.099 146.286 301.16 146.271C301.22 146.255 301.662 147.788 302.145 149.694C302.628 151.599 302.97 153.157 302.91 153.172Z"
        fill="#E0E0E0" />
    <path
        d="M302.972 153.172C302.904 153.194 302.62 152.17 301.879 151.124C301.159 150.055 300.238 149.518 300.272 149.464C300.284 149.44 300.538 149.534 300.892 149.784C301.247 150.031 301.687 150.45 302.065 150.993C302.835 152.082 303.027 153.169 302.972 153.172Z"
        fill="#E0E0E0" />
    <path
        d="M302.925 198.274C302.9 198.278 302.854 197.895 302.677 197.227C302.502 196.559 302.172 195.611 301.625 194.503C300.538 192.281 298.56 189.464 296.046 186.642C294.8 185.219 293.592 183.877 292.566 182.591C291.539 181.308 290.694 180.084 290.078 179.002C289.459 177.921 289.057 176.993 288.822 176.339C288.706 176.011 288.622 175.755 288.575 175.577C288.526 175.401 288.503 175.307 288.511 175.305C288.531 175.298 288.646 175.665 288.905 176.307C289.164 176.948 289.586 177.858 290.217 178.92C290.847 179.984 291.699 181.189 292.73 182.459C293.76 183.731 294.97 185.066 296.218 186.492C298.738 189.322 300.712 192.174 301.771 194.432C302.303 195.56 302.614 196.525 302.763 197.206C302.836 197.546 302.885 197.812 302.903 197.995C302.924 198.177 302.933 198.273 302.925 198.274Z"
        fill="#E0E0E0" />
    <path
        d="M315.351 184.238C315.359 184.255 315.121 184.375 314.7 184.604C314.282 184.838 313.69 185.2 313.011 185.721C312.332 186.241 311.573 186.923 310.793 187.744C310.014 188.567 309.212 189.522 308.393 190.546C306.757 192.599 305.226 194.417 304.309 195.867C303.844 196.586 303.505 197.193 303.284 197.618C303.06 198.043 302.941 198.281 302.925 198.274C302.917 198.271 302.938 198.207 302.985 198.089C303.034 197.972 303.1 197.796 303.204 197.579C303.403 197.139 303.722 196.516 304.173 195.781C305.063 194.295 306.582 192.453 308.216 190.403C309.036 189.377 309.848 188.42 310.641 187.599C311.436 186.779 312.216 186.101 312.915 185.592C313.614 185.083 314.226 184.738 314.66 184.526C314.875 184.417 315.052 184.352 315.168 184.301C315.284 184.253 315.348 184.231 315.351 184.238Z"
        fill="#E0E0E0" />
    <path
        d="M315.594 188.792C315.597 188.824 315.068 188.889 314.217 188.992C313.369 189.101 312.189 189.242 310.953 189.634C309.72 190.036 308.696 190.647 308.03 191.168C307.355 191.689 307.039 192.12 307.007 192.094C306.996 192.086 307.062 191.969 307.211 191.777C307.358 191.584 307.599 191.327 307.928 191.043C308.584 190.478 309.618 189.83 310.883 189.418C312.15 189.017 313.346 188.901 314.202 188.831C315.061 188.77 315.592 188.762 315.594 188.792Z"
        fill="#E0E0E0" />
    <path
        d="M307.41 191.595C307.338 191.554 307.958 190.607 308.44 189.332C308.891 188.046 308.997 186.919 309.078 186.931C309.107 186.935 309.106 187.217 309.055 187.67C309.001 188.122 308.892 188.749 308.653 189.41C308.413 190.07 308.097 190.622 307.855 191.006C307.61 191.389 307.435 191.61 307.41 191.595Z"
        fill="#E0E0E0" />
    <path
        d="M319.376 172.014C319.379 172.022 319.303 172.062 319.156 172.131C318.985 172.209 318.771 172.306 318.509 172.426C318.226 172.547 317.882 172.701 317.494 172.906C317.106 173.107 316.652 173.313 316.179 173.597C315.939 173.734 315.688 173.876 315.428 174.024C315.167 174.174 314.91 174.352 314.636 174.523C314.082 174.859 313.528 175.272 312.935 175.695C311.777 176.573 310.559 177.615 309.387 178.816C308.226 180.03 307.227 181.282 306.388 182.47C305.986 183.077 305.592 183.645 305.275 184.21C305.113 184.49 304.944 184.753 304.803 185.018C304.664 185.283 304.53 185.539 304.402 185.784C304.135 186.265 303.944 186.726 303.756 187.122C303.565 187.516 303.423 187.865 303.311 188.153C303.201 188.418 303.111 188.636 303.039 188.809C302.975 188.958 302.938 189.036 302.93 189.033C302.923 189.03 302.946 188.948 302.997 188.793C303.058 188.615 303.135 188.392 303.229 188.12C303.329 187.827 303.459 187.471 303.64 187.07C303.817 186.668 303.999 186.2 304.259 185.71C304.383 185.462 304.514 185.203 304.649 184.934C304.787 184.665 304.953 184.397 305.113 184.113C305.425 183.54 305.816 182.964 306.216 182.351C307.052 181.148 308.054 179.88 309.224 178.657C310.406 177.446 311.638 176.402 312.812 175.526C313.412 175.105 313.974 174.695 314.535 174.364C314.813 174.194 315.075 174.019 315.339 173.872C315.604 173.728 315.858 173.588 316.102 173.456C316.582 173.179 317.043 172.981 317.439 172.791C317.834 172.597 318.184 172.454 318.473 172.345C318.743 172.241 318.963 172.157 319.139 172.089C319.292 172.033 319.373 172.007 319.376 172.014Z"
        fill="#E0E0E0" />
    <path
        d="M309.541 178.603C309.521 178.6 309.63 178.218 310.082 177.798C310.522 177.379 311.325 176.991 312.261 176.962C313.194 176.937 314.002 177.198 314.554 177.41C315.109 177.628 315.432 177.805 315.421 177.831C315.408 177.863 315.062 177.738 314.501 177.562C313.942 177.391 313.152 177.166 312.268 177.19C311.387 177.217 310.627 177.556 310.187 177.92C309.736 178.283 309.577 178.625 309.541 178.603Z"
        fill="#E0E0E0" />
    <path
        d="M308.071 180.12C308.009 180.085 308.563 179.272 308.69 178.107C308.835 176.943 308.483 176.025 308.551 176.005C308.576 175.995 308.7 176.209 308.807 176.592C308.915 176.973 308.985 177.528 308.915 178.134C308.844 178.739 308.647 179.263 308.455 179.609C308.262 179.956 308.093 180.135 308.071 180.12Z"
        fill="#E0E0E0" />
    <path
        d="M292.057 200.529C292.396 206.542 294.208 212.658 296.996 218.842H309.117C311.775 212.72 313.462 206.614 313.762 200.529H292.057Z"
        fill="#F9A51A" />
    <path
        d="M311.797 210.26C311.797 210.323 307.806 210.373 302.884 210.373C297.96 210.373 293.97 210.323 293.97 210.26C293.97 210.197 297.96 210.146 302.884 210.146C307.806 210.146 311.797 210.197 311.797 210.26Z"
        fill="#FAFAFA" />
    <path
        d="M311.526 212.438C311.526 212.501 307.785 212.552 303.171 212.552C298.555 212.552 294.814 212.501 294.814 212.438C294.814 212.375 298.555 212.324 303.171 212.324C307.785 212.325 311.526 212.376 311.526 212.438Z"
        fill="#FAFAFA" />
    <path
        d="M297.191 204.477C297.253 204.477 297.304 205.727 297.304 207.269C297.304 208.812 297.253 210.061 297.191 210.061C297.128 210.061 297.077 208.812 297.077 207.269C297.077 205.727 297.128 204.477 297.191 204.477Z"
        fill="#FAFAFA" />
    <path
        d="M303.685 204.477C303.748 204.477 303.799 205.772 303.799 207.368C303.799 208.965 303.748 210.26 303.685 210.26C303.622 210.26 303.571 208.965 303.571 207.368C303.571 205.772 303.622 204.477 303.685 204.477Z"
        fill="#FAFAFA" />
    <path
        d="M309.782 204.428C309.845 204.428 309.896 205.748 309.896 207.376C309.896 209.006 309.845 210.326 309.782 210.326C309.719 210.326 309.668 209.006 309.668 207.376C309.669 205.748 309.72 204.428 309.782 204.428Z"
        fill="#FAFAFA" />
    <path
        d="M313.377 204.477C313.377 204.54 308.696 204.591 302.923 204.591C297.148 204.591 292.468 204.54 292.468 204.477C292.468 204.414 297.148 204.363 302.923 204.363C308.696 204.363 313.377 204.414 313.377 204.477Z"
        fill="#FAFAFA" />
    <path
        d="M22.9351 175.771C20.9544 174.528 18.6854 173.746 16.3586 173.507C15.2844 173.397 14.1098 173.429 13.2483 174.079C13.0655 174.217 12.8872 174.421 12.9277 174.647C12.9576 174.812 13.0977 174.933 13.2318 175.035C15.9076 177.077 19.9551 177.335 22.9351 175.771Z"
        fill="#E0E0E0" />
    <path
        d="M22.7661 175.585C21.2777 174.423 19.7802 173.254 18.5187 171.848C17.2572 170.443 16.2324 168.774 15.8556 166.923C15.7409 166.362 15.7057 165.721 16.0661 165.275C19.4513 167.92 22.1114 171.339 22.7661 175.585Z"
        fill="#E0E0E0" />
    <path
        d="M22.8999 175.745C22.6452 173.894 22.553 171.989 22.9785 170.169C23.404 168.349 24.3943 166.606 25.9488 165.567C26.5338 166.935 26.2821 168.511 25.8701 169.939C25.2333 172.147 24.234 174.251 22.9246 176.14"
        fill="#E0E0E0" />
    <path
        d="M26.2192 181.693C24.2048 181.938 22.4496 183 20.9454 184.362C19.4412 185.725 18.3714 187.56 17.9287 189.541C19.9049 189.418 21.5814 188.025 22.7972 186.462C24.013 184.9 24.8558 183.185 26.1915 181.724"
        fill="#E0E0E0" />
    <path
        d="M26.9398 182.644C25.3172 178.647 25.9053 173.83 28.4418 170.341C29.5894 174.423 29.1684 179.035 26.9398 182.644Z"
        fill="#E0E0E0" />
    <path
        d="M31.3249 187.866C29.4963 187.752 27.6378 188.188 26.0496 189.102C24.4623 190.016 23.1513 191.404 22.3318 193.043C22.2202 193.265 22.122 193.548 22.2711 193.748C22.4007 193.921 22.6517 193.937 22.8674 193.923C24.6398 193.808 26.2107 192.742 27.5067 191.527C28.8026 190.313 29.9323 188.911 31.3646 187.86"
        fill="#E0E0E0" />
    <path
        d="M31.185 187.582C30.2418 184.563 30.1834 181.275 31.0179 178.225C31.3475 177.021 31.9011 175.753 33.0143 175.188C33.1094 175.14 33.2203 175.097 33.3199 175.134C33.4143 175.17 33.4698 175.267 33.5132 175.358C33.9095 176.186 34.0249 177.125 33.9837 178.042C33.9432 178.959 33.7529 179.862 33.5627 180.759C33.2121 182.42 33.0255 184.205 32.1146 185.638C31.8981 185.978 31.7078 186.345 31.5355 186.709C31.3632 187.073 31.3617 187.201 31.2037 187.491"
        fill="#E0E0E0" />
    <path
        d="M42.7937 189.311C41.9337 186.039 42.8461 182.073 44.9077 179.392C45.0597 179.194 45.2605 178.983 45.5085 179.005C45.8883 179.04 45.9864 179.546 45.9692 179.927C45.8208 183.271 44.7062 186.564 42.7937 189.311Z"
        fill="#E0E0E0" />
    <path
        d="M43.8398 190.026C47.8147 191.06 52.3738 190.055 55.6796 187.618C53.7207 186.625 51.4111 186.341 49.2702 186.831C47.1292 187.321 45.1725 188.28 43.8398 190.026Z"
        fill="#E0E0E0" />
    <path
        d="M44.7222 187.848C46.9485 184.22 51.2155 181.85 55.4675 181.635C54.9776 183.365 53.5565 184.709 51.9526 185.521C50.3488 186.333 48.5591 186.686 46.795 187.03C46.1088 187.162 45.1671 187.309 44.7222 187.848Z"
        fill="#E0E0E0" />
    <path
        d="M43.0143 177.278C43.6173 175.213 44.2234 173.13 44.3889 170.985C44.5545 168.84 44.2488 166.601 43.1356 164.76C41.0568 168.783 40.8463 173.484 42.9521 177.493"
        fill="#E0E0E0" />
    <path
        d="M50.0146 173.74C52.4463 169.321 57.4069 165.791 62.4267 165.296C60.4903 170.117 55.2098 173.844 50.0146 173.74Z"
        fill="#E0E0E0" />
    <path
        d="M48.4854 174.606C52.1118 175.158 55.2012 177.475 58.5902 178.878C59.3146 179.179 60.0966 179.418 60.8742 179.316C61.6518 179.214 62.4196 178.692 62.5942 177.927C62.7388 177.292 62.4496 176.618 61.9941 176.152C61.5387 175.687 60.9364 175.397 60.3349 175.146C56.644 173.609 52.6856 173.57 48.7977 174.503"
        fill="#E0E0E0" />
    <path
        d="M46.3872 177.149C47.2082 177.385 47.4884 177.809 48.1386 178.363C50.344 180.242 52.9899 181.601 55.8013 182.299C56.0942 182.372 56.4778 182.401 56.6231 182.136C56.7497 181.906 56.5894 181.625 56.4254 181.42C55.247 179.946 53.5667 178.938 51.7988 178.279C50.0302 177.621 48.4982 176.827 46.388 176.997"
        fill="#E0E0E0" />
    <path
        d="M44.019 161.788C46.9676 164.54 51.1214 165.954 55.1367 165.57C55.3194 165.553 55.5187 165.524 55.6431 165.389C55.9232 165.085 55.5869 164.614 55.261 164.361C51.9919 161.812 48.0328 160.756 44.019 161.788Z"
        fill="#E0E0E0" />
    <path
        d="M46.8267 160.761C50.7243 157.839 56.07 156.957 60.6995 158.472C58.9526 160.194 56.5285 161.12 54.0886 161.374C51.6487 161.628 49.2059 161.357 46.8267 160.761Z"
        fill="#E0E0E0" />
    <path
        d="M45.7107 153.702C45.3894 150.44 45.5984 147.864 45.3714 144.586C45.3534 144.324 45.2972 144.009 45.0523 143.915C44.7114 143.784 44.4267 144.203 44.3151 144.551C43.3435 147.573 43.8747 151.038 45.7062 153.63"
        fill="#E0E0E0" />
    <path
        d="M45.4761 154.062C47.6875 152.695 49.346 150.909 50.8802 148.81C51.9477 147.349 52.8474 145.6 52.6047 143.806C51.1057 143.776 49.6809 144.603 48.7063 145.742C47.7317 146.881 47.1518 148.305 46.7189 149.741C46.2866 151.177 45.9832 152.652 45.4761 154.062Z"
        fill="#E0E0E0" />
    <path
        d="M50.7857 152.587C55.6385 150.793 60.1669 148.123 64.0863 144.745C62.4974 144.105 60.6785 144.488 59.0904 145.129C55.4617 146.594 52.4967 149.067 50.7168 152.552"
        fill="#E0E0E0" />
    <path
        d="M46.9688 155.848C49.4236 156.116 51.9182 156.29 54.3543 155.883C56.7485 155.483 59.0115 154.534 61.2484 153.593C61.4334 153.515 61.6357 153.421 61.7166 153.237C61.805 153.037 61.7106 152.793 61.5488 152.647C61.387 152.5 61.1712 152.43 60.9607 152.371C58.5284 151.691 55.9035 152.009 53.51 152.816C51.1166 153.623 49.1547 154.582 46.9688 155.848Z"
        fill="#E0E0E0" />
    <path
        d="M32.9492 161.9C31.2742 158.518 31.3828 154.573 32.8301 151.088C33.8489 152.64 33.9732 154.616 33.7867 156.463C33.6002 158.311 33.0383 160.211 33.0016 162.068"
        fill="#E0E0E0" />
    <path
        d="M26.2575 158.525C22.0752 158.445 17.8914 160.227 15.0522 163.298C17.14 163.626 19.2892 163.088 21.1883 162.16C23.0873 161.233 24.7743 159.933 26.4463 158.641"
        fill="#E0E0E0" />
    <path
        d="M21.7581 157.02C19.7123 156.854 17.7436 156.6 15.7764 157.203C13.8092 157.806 12.0188 159.174 11.2173 161.07C13.1305 161.285 15.0715 160.805 16.8252 160.01C18.5788 159.216 20.1745 158.115 21.7581 157.02Z"
        fill="#E0E0E0" />
    <path
        d="M28.4196 157.089C26.5791 155.883 24.689 154.655 22.5458 154.155C20.4026 153.656 17.9193 154.025 16.4248 155.64C18.1598 156.658 20.264 156.779 22.2761 156.777C24.2875 156.775 26.7536 156.752 28.6496 157.423"
        fill="#E0E0E0" />
    <path
        d="M28.4309 157.186C25.2839 154.096 24.0913 148.546 25.3573 144.322C27.8308 148.079 28.9388 152.715 28.4309 157.186Z"
        fill="#E0E0E0" />
    <path
        d="M37.083 148.431C37.6763 147.051 38.0936 145.603 38.6262 144.2C39.1588 142.795 39.8203 141.414 40.8263 140.298C41.8324 139.183 43.2235 138.353 44.7232 138.279C43.7846 142.531 40.9604 146.329 37.1594 148.454"
        fill="#E0E0E0" />
    <path
        d="M35.5171 150.255C34.535 148.903 33.4001 147.069 32.0689 146.06C30.737 145.051 29.0028 144.44 27.3779 144.827C29.0305 147.783 32.1543 149.866 35.5171 150.255Z"
        fill="#E0E0E0" />
    <path
        d="M35.8307 148.544C35.1872 146.908 34.5385 145.255 34.2785 143.516C34.0179 141.778 34.1767 139.921 35.0651 138.404C36.7926 141.67 37.3484 145.174 35.9184 148.58"
        fill="#E0E0E0" />
    <path
        d="M37.0986 138.405C38.077 135.168 41.0405 132.785 44.2407 131.692C44.6437 131.554 45.0715 131.439 45.4932 131.504C45.915 131.569 46.3277 131.857 46.4161 132.274C46.533 132.824 46.0783 133.318 45.6505 133.683C43.1582 135.815 40.2292 137.432 37.0986 138.405Z"
        fill="#E0E0E0" />
    <path
        d="M37.1344 135.758C37.2588 133.671 37.3891 131.554 38.0678 129.576C38.7465 127.598 40.0545 125.744 41.958 124.878C42.2816 126.986 41.352 129.083 40.2305 130.897C39.1091 132.71 37.757 134.422 37.0835 136.446"
        fill="#E0E0E0" />
    <path
        d="M37.0829 137.194C36.2746 134.836 36.1907 131.839 34.7778 129.784C33.7905 128.347 32.2091 127.369 31.3589 125.848C30.794 127.269 30.9663 128.906 31.5574 130.316C32.1484 131.727 33.1253 132.941 34.1703 134.057C35.2161 135.174 36.1113 136.014 37.0829 137.194Z"
        fill="#E0E0E0" />
    <path
        d="M37.0987 206.662C37.0358 206.662 36.9811 190.926 36.9773 171.519C36.9729 152.105 37.02 136.373 37.083 136.373C37.1459 136.373 37.2006 152.106 37.2043 171.519C37.2088 190.926 37.1616 206.662 37.0987 206.662Z"
        fill="#E0E0E0" />
    <path
        d="M50.8502 159.525C50.8547 159.54 50.6434 159.619 50.2584 159.747C49.8329 159.891 49.286 160.076 48.6298 160.297C47.2567 160.764 45.3712 161.442 43.3238 162.28C41.2975 163.15 39.3857 163.856 38.2973 164.799C37.7534 165.264 37.441 165.768 37.2874 166.135C37.1316 166.504 37.1032 166.731 37.0829 166.727C37.0754 166.725 37.0777 166.669 37.0897 166.562C37.1077 166.456 37.1354 166.298 37.205 166.104C37.3376 165.716 37.641 165.177 38.1909 164.679C38.7377 164.18 39.4996 163.732 40.3723 163.324C41.245 162.916 42.2121 162.491 43.2384 162.07C45.2917 161.228 47.1922 160.573 48.5804 160.144C49.274 159.927 49.8404 159.768 50.2329 159.663C50.6269 159.56 50.8457 159.51 50.8502 159.525Z"
        fill="#E0E0E0" />
    <path
        d="M55.3576 148.454C55.3628 148.46 55.3059 148.52 55.192 148.631C55.0579 148.756 54.8909 148.913 54.6871 149.105C54.2182 149.531 53.5799 150.111 52.8024 150.817C51.1745 152.267 48.9676 154.232 46.5278 156.404C44.0789 158.584 41.9619 160.667 40.4951 162.236C39.761 163.02 39.1819 163.668 38.7879 164.121C38.6036 164.331 38.4531 164.504 38.3317 164.641C38.2261 164.76 38.1676 164.819 38.1616 164.814C38.1557 164.808 38.2021 164.74 38.2965 164.612C38.3916 164.486 38.5302 164.297 38.7197 164.064C39.0943 163.593 39.6554 162.926 40.3768 162.127C41.8173 160.526 43.9223 158.418 46.3764 156.234C48.8343 154.059 51.0704 152.105 52.696 150.697C53.4938 150.012 54.1478 149.451 54.6287 149.038C54.8444 148.859 55.0205 148.713 55.1621 148.596C55.2857 148.497 55.3524 148.448 55.3576 148.454Z"
        fill="#E0E0E0" />
    <path
        d="M43.8839 158.621C43.8195 158.592 44.3311 157.411 44.8413 155.917C45.3559 154.423 45.5979 153.163 45.6631 153.173C45.7223 153.179 45.5777 154.477 45.0563 155.99C44.8001 156.745 44.5169 157.409 44.2944 157.881C44.0712 158.353 43.9116 158.633 43.8839 158.621Z"
        fill="#E0E0E0" />
    <path
        d="M37.1137 168.145C37.101 168.154 36.9677 167.997 36.7362 167.707C36.48 167.379 36.1564 166.963 35.7691 166.467C34.957 165.417 33.8341 163.968 32.5756 162.382C31.3163 160.796 30.1597 159.374 29.3214 158.344C28.9267 157.855 28.5948 157.445 28.3334 157.122C28.1026 156.831 27.9805 156.665 27.9925 156.655C28.0045 156.645 28.1491 156.791 28.4008 157.065C28.6525 157.338 29.0098 157.74 29.4443 158.242C30.3148 159.246 31.4924 160.653 32.7531 162.241C34.0131 163.829 35.1173 165.295 35.8972 166.371C36.2875 166.909 36.5976 167.347 36.8066 167.655C37.0164 167.961 37.1257 168.136 37.1137 168.145Z"
        fill="#E0E0E0" />
    <path
        d="M34.0984 164.274C34.0616 164.314 33.2571 163.36 32.8353 161.909C32.5245 160.888 32.5102 159.953 32.5492 159.525L32.6496 159.533C32.6046 159.715 32.5717 159.811 32.5537 159.809C32.5357 159.806 32.535 159.705 32.5499 159.518L32.6503 159.526C32.687 159.95 32.7514 160.852 33.0533 161.845C33.4601 163.25 34.159 164.236 34.0984 164.274Z"
        fill="#E0E0E0" />
    <path
        d="M30.2052 159.377C30.176 159.409 29.9176 159.083 29.3235 158.865C28.7347 158.637 27.8478 158.587 26.8747 158.67C25.9008 158.741 25.0311 158.915 24.4086 159.068C23.7861 159.222 23.4055 159.344 23.3943 159.311C23.3838 159.285 23.7463 159.109 24.3659 158.913C24.9846 158.718 25.8663 158.516 26.8574 158.443C27.841 158.359 28.7744 158.434 29.3834 158.716C30.0007 158.989 30.2254 159.372 30.2052 159.377Z"
        fill="#E0E0E0" />
    <path
        d="M29.282 158.191C29.2648 158.226 28.7681 157.985 27.9306 157.699C27.0946 157.411 25.9043 157.11 24.5596 157.005C23.2142 156.905 21.9916 157.022 21.1219 157.179C20.2507 157.335 19.7233 157.499 19.7121 157.461C19.7068 157.446 19.8349 157.393 20.0701 157.308C20.3046 157.221 20.6537 157.121 21.0904 157.022C21.9632 156.822 23.2074 156.676 24.5768 156.778C25.9455 156.884 27.1538 157.218 27.9861 157.547C28.4026 157.711 28.7329 157.863 28.9509 157.986C29.1719 158.105 29.2895 158.177 29.282 158.191Z"
        fill="#E0E0E0" />
    <path
        d="M37.0827 153.172C37.0221 153.188 36.5808 151.656 36.0976 149.75C35.6145 147.843 35.2714 146.286 35.3328 146.271C35.3935 146.255 35.8347 147.788 36.3179 149.694C36.8011 151.599 37.1442 153.157 37.0827 153.172Z"
        fill="#E0E0E0" />
    <path
        d="M37.1455 153.172C37.0781 153.194 36.7942 152.17 36.0533 151.124C35.3327 150.055 34.412 149.518 34.4457 149.464C34.4577 149.44 34.7117 149.534 35.066 149.784C35.4211 150.031 35.8608 150.45 36.2391 150.993C37.0084 152.082 37.201 153.169 37.1455 153.172Z"
        fill="#E0E0E0" />
    <path
        d="M37.099 198.274C37.0743 198.278 37.0278 197.895 36.851 197.227C36.6757 196.559 36.3454 195.611 35.7993 194.503C34.7123 192.281 32.7339 189.464 30.2199 186.642C28.9741 185.219 27.7658 183.877 26.7402 182.591C25.7132 181.308 24.8682 180.084 24.2517 179.002C23.6329 177.921 23.2306 176.993 22.9954 176.339C22.88 176.011 22.7954 175.755 22.7489 175.577C22.6995 175.401 22.677 175.307 22.6845 175.305C22.7047 175.298 22.8194 175.665 23.0786 176.307C23.3377 176.948 23.7595 177.858 24.391 178.92C25.021 179.984 25.872 181.189 26.9035 182.459C27.9336 183.731 29.1434 185.066 30.3914 186.492C32.9122 189.322 34.8854 192.174 35.9439 194.432C36.4765 195.56 36.7866 196.525 36.9364 197.206C37.0091 197.546 37.0585 197.812 37.0758 197.995C37.099 198.177 37.1072 198.273 37.099 198.274Z"
        fill="#E0E0E0" />
    <path
        d="M49.5245 184.238C49.532 184.255 49.2938 184.375 48.8735 184.604C48.4555 184.838 47.863 185.2 47.1843 185.721C46.5048 186.241 45.746 186.923 44.9661 187.744C44.1878 188.567 43.3855 189.522 42.5667 190.546C40.9299 192.599 39.3994 194.417 38.4825 195.867C38.0173 196.586 37.6787 197.193 37.457 197.618C37.233 198.043 37.1146 198.281 37.0982 198.274C37.0907 198.271 37.1116 198.207 37.1588 198.089C37.2075 197.972 37.2735 197.796 37.3776 197.579C37.5761 197.139 37.8952 196.516 38.3462 195.781C39.2361 194.295 40.7546 192.453 42.3892 190.403C43.2094 189.377 44.0215 188.42 44.8148 187.599C45.6096 186.779 46.3894 186.101 47.0884 185.592C47.7873 185.083 48.3993 184.738 48.8331 184.526C49.0488 184.417 49.2248 184.352 49.3417 184.301C49.4586 184.253 49.5215 184.231 49.5245 184.238Z"
        fill="#E0E0E0" />
    <path
        d="M49.768 188.792C49.771 188.824 49.2421 188.889 48.3911 188.992C47.5431 189.101 46.3633 189.242 45.1265 189.634C43.8942 190.036 42.8702 190.647 42.2034 191.168C41.5292 191.689 41.2116 192.12 41.1809 192.094C41.1697 192.086 41.2363 191.969 41.3847 191.777C41.5315 191.584 41.7727 191.327 42.1016 191.043C42.7578 190.478 43.7916 189.83 45.0568 189.418C46.3236 189.017 47.5199 188.901 48.3754 188.831C49.2339 188.77 49.7658 188.762 49.768 188.792Z"
        fill="#E0E0E0" />
    <path
        d="M41.5829 191.595C41.511 191.554 42.1312 190.607 42.6129 189.332C43.0646 188.046 43.1702 186.919 43.2512 186.931C43.2804 186.935 43.2796 187.217 43.2279 187.67C43.174 188.122 43.0654 188.749 42.8264 189.41C42.5859 190.07 42.2706 190.622 42.0278 191.006C41.7829 191.389 41.6091 191.61 41.5829 191.595Z"
        fill="#E0E0E0" />
    <path
        d="M53.5503 172.014C53.5533 172.022 53.4768 172.062 53.33 172.131C53.1592 172.209 52.945 172.306 52.6828 172.426C52.3996 172.547 52.0558 172.701 51.6677 172.906C51.2789 173.107 50.825 173.313 50.3523 173.597C50.1126 173.734 49.8616 173.876 49.6009 174.024C49.341 174.174 49.0833 174.352 48.8091 174.523C48.2555 174.859 47.7012 175.272 47.1086 175.695C45.9505 176.573 44.7324 177.615 43.5601 178.816C42.3989 180.03 41.4004 181.282 40.5613 182.47C40.1598 183.077 39.765 183.645 39.4482 184.21C39.2863 184.49 39.117 184.753 38.9762 185.018C38.8369 185.283 38.7035 185.539 38.5754 185.784C38.308 186.265 38.117 186.726 37.9297 187.122C37.7387 187.516 37.5963 187.865 37.4847 188.153C37.3746 188.418 37.2847 188.636 37.2128 188.809C37.1484 188.958 37.1109 189.036 37.1034 189.033C37.0959 189.03 37.1192 188.948 37.1701 188.793C37.2315 188.615 37.3087 188.392 37.4023 188.12C37.502 187.827 37.6323 187.471 37.8128 187.07C37.9896 186.668 38.1717 186.2 38.4316 185.71C38.556 185.462 38.6863 185.203 38.8219 184.934C38.9597 184.665 39.1253 184.397 39.2856 184.113C39.5972 183.54 39.9883 182.964 40.3883 182.351C41.2243 181.148 42.2259 179.88 43.396 178.657C44.5781 177.446 45.8096 176.402 46.9835 175.526C47.5836 175.105 48.1454 174.695 48.7072 174.364C48.9851 174.194 49.2473 174.019 49.511 173.872C49.7755 173.728 50.0302 173.588 50.2736 173.456C50.7538 173.179 51.2153 172.981 51.6108 172.791C52.0056 172.597 52.3562 172.454 52.6453 172.345C52.915 172.241 53.1345 172.157 53.3105 172.089C53.4656 172.033 53.5473 172.007 53.5503 172.014Z"
        fill="#E0E0E0" />
    <path
        d="M43.7147 178.603C43.6945 178.6 43.8038 178.218 44.2555 177.798C44.696 177.379 45.4991 176.991 46.4347 176.962C47.3674 176.937 48.1757 177.198 48.7278 177.41C49.2828 177.628 49.6057 177.805 49.5945 177.831C49.5817 177.863 49.2357 177.738 48.6746 177.562C48.1157 177.391 47.3254 177.166 46.4415 177.19C45.5612 177.217 44.8009 177.556 44.3604 177.92C43.9102 178.283 43.7514 178.625 43.7147 178.603Z"
        fill="#E0E0E0" />
    <path
        d="M42.2451 180.12C42.1829 180.085 42.7373 179.272 42.8639 178.107C43.0092 176.943 42.6563 176.025 42.7253 176.005C42.75 175.995 42.8743 176.209 42.9807 176.592C43.0886 176.973 43.159 177.528 43.0901 178.134C43.0182 178.739 42.8219 179.263 42.6294 179.609C42.4369 179.956 42.2668 180.135 42.2451 180.12Z"
        fill="#E0E0E0" />
    <path
        d="M26.2305 200.529C26.5698 206.542 28.3819 212.658 31.1694 218.842H43.2908C45.9494 212.72 47.6357 206.614 47.9361 200.529H26.2305Z"
        fill="#F9A51A" />
    <path
        d="M45.9712 210.26C45.9712 210.323 41.9807 210.373 37.0583 210.373C32.1343 210.373 28.1445 210.323 28.1445 210.26C28.1445 210.197 32.1343 210.146 37.0583 210.146C41.9799 210.146 45.9712 210.197 45.9712 210.26Z"
        fill="#FAFAFA" />
    <path
        d="M45.6998 212.438C45.6998 212.501 41.9587 212.552 37.3442 212.552C32.7281 212.552 28.9878 212.501 28.9878 212.438C28.9878 212.375 32.7281 212.324 37.3442 212.324C41.9587 212.325 45.6998 212.376 45.6998 212.438Z"
        fill="#FAFAFA" />
    <path
        d="M31.3653 204.477C31.4283 204.477 31.4792 205.727 31.4792 207.269C31.4792 208.812 31.4283 210.061 31.3653 210.061C31.3024 210.061 31.2515 208.812 31.2515 207.269C31.2515 205.727 31.3024 204.477 31.3653 204.477Z"
        fill="#FAFAFA" />
    <path
        d="M37.859 204.477C37.9219 204.477 37.9728 205.772 37.9728 207.368C37.9728 208.965 37.9219 210.26 37.859 210.26C37.7961 210.26 37.7451 208.965 37.7451 207.368C37.7459 205.772 37.7968 204.477 37.859 204.477Z"
        fill="#FAFAFA" />
    <path
        d="M43.9562 204.428C44.0191 204.428 44.07 205.748 44.07 207.376C44.07 209.006 44.0191 210.326 43.9562 210.326C43.8932 210.326 43.8423 209.006 43.8423 207.376C43.8423 205.748 43.8932 204.428 43.9562 204.428Z"
        fill="#FAFAFA" />
    <path
        d="M47.5511 204.477C47.5511 204.54 42.8707 204.591 37.0972 204.591C31.3223 204.591 26.6426 204.54 26.6426 204.477C26.6426 204.414 31.3223 204.363 37.0972 204.363C42.8699 204.363 47.5511 204.414 47.5511 204.477Z"
        fill="#FAFAFA" />
    <path d="M71.4815 25.9951H46.106V32.7079H71.4815V25.9951Z" fill="#EBEBEB" />
    <path
        d="M60.7517 39.7789C60.7487 39.7767 60.7465 39.7355 60.7442 39.6568C60.742 39.5669 60.739 39.4538 60.736 39.3122C60.7315 38.9961 60.7255 38.5556 60.7173 37.9908C60.7068 36.8319 60.6925 35.1659 60.6738 33.0653L60.7525 33.144C54.9581 33.1552 45.7439 33.174 35.3784 33.1949C35.4354 33.1373 35.2481 33.3238 35.5065 33.0661V33.0676V33.0713V33.0781V33.0916V33.1185V33.1725V33.2803V33.4961V33.9268C35.5065 34.213 35.5065 34.4984 35.5065 34.7831C35.5065 35.3516 35.5058 35.9165 35.5058 36.4768C35.505 37.5975 35.5043 38.6994 35.5035 39.7789L35.3769 39.6523C42.6029 39.6755 48.9254 39.695 53.4606 39.71C55.7192 39.725 57.532 39.7377 58.798 39.746C59.4138 39.7527 59.8962 39.7587 60.2416 39.7624C60.3966 39.7662 60.521 39.7684 60.6191 39.7707C60.7038 39.7737 60.7487 39.7767 60.7517 39.7789C60.7547 39.7819 60.715 39.7842 60.6341 39.7872C60.5405 39.7894 60.4214 39.7917 60.2723 39.7954C59.9337 39.7991 59.4602 39.8051 58.8565 39.8119C57.5972 39.8201 55.7941 39.8329 53.5482 39.8478C48.9914 39.8621 42.6374 39.8823 35.3762 39.9055L35.2496 39.9063V39.7797C35.2488 38.7002 35.2481 37.5982 35.2473 36.4776C35.2473 35.9172 35.2473 35.3524 35.2466 34.7838C35.2466 34.4992 35.2466 34.2137 35.2466 33.9276V33.4968V33.2811V33.1725V33.1185V33.0916V33.0781V33.0713V33.0676V33.0661C35.505 32.8077 35.3192 32.9942 35.3777 32.9365C45.7432 32.9575 54.9581 32.9755 60.7517 32.9874H60.8311L60.8304 33.0661C60.8116 35.1868 60.7974 36.8686 60.7869 38.0387C60.7787 38.5961 60.7727 39.0306 60.7675 39.3422C60.7637 39.4778 60.7615 39.5864 60.7592 39.6725C60.757 39.746 60.754 39.7819 60.7517 39.7789Z"
        fill="#E0E0E0" />
    <path
        d="M172.831 13.5846C172.829 13.5816 172.826 13.5404 172.823 13.4625C172.821 13.3726 172.818 13.2595 172.815 13.1179C172.811 12.8018 172.804 12.3613 172.796 11.7964C172.786 10.6376 172.772 8.97153 172.753 6.87101L172.832 6.94967C167.038 6.96091 157.823 6.97963 147.458 7.00061C147.514 6.94293 147.327 7.12946 147.586 6.87176V6.87326V6.877V6.88375V6.89723V6.9242V6.97813V7.08601V7.30175V7.73174C147.586 8.01791 147.586 8.30407 147.586 8.58798C147.586 9.15731 147.585 9.72215 147.585 10.2825C147.584 11.4032 147.583 12.5051 147.583 13.5846L147.456 13.458C154.682 13.4812 161.005 13.5014 165.54 13.5157C167.798 13.5306 169.611 13.5434 170.877 13.5516C171.493 13.5591 171.975 13.5644 172.321 13.5681C172.476 13.5711 172.6 13.5741 172.698 13.5763C172.783 13.5793 172.829 13.5816 172.831 13.5846C172.834 13.5876 172.794 13.5898 172.713 13.5928C172.62 13.5951 172.5 13.5973 172.351 13.6011C172.013 13.6048 171.539 13.6108 170.936 13.6175C169.676 13.6258 167.874 13.6385 165.627 13.6535C161.07 13.6677 154.716 13.688 147.455 13.7112L147.329 13.7119V13.5846C147.328 12.5051 147.327 11.4032 147.326 10.2825C147.326 9.72215 147.326 9.15731 147.326 8.58798C147.326 8.30332 147.326 8.01791 147.326 7.73174V7.30175V7.08601V6.97813V6.9242V6.89723V6.88375V6.877V6.87326V6.87176C147.584 6.61332 147.398 6.79985 147.457 6.74216C157.822 6.76314 167.037 6.78112 172.831 6.7931H172.91L172.909 6.87176C172.891 8.99251 172.877 10.6743 172.866 11.8444C172.858 12.4017 172.852 12.8362 172.847 13.1478C172.844 13.2834 172.841 13.3921 172.839 13.4782C172.836 13.5516 172.834 13.5876 172.831 13.5846Z"
        fill="#E0E0E0" />
    <path
        d="M176.271 6.87177C176.268 6.86878 176.264 6.82533 176.261 6.74367C176.258 6.64704 176.255 6.53092 176.252 6.38784C176.246 6.05748 176.238 5.60876 176.228 5.04168C176.216 3.86482 176.199 2.20253 176.178 0.158199L176.271 0.251088C172.321 0.260826 166.947 0.273563 161.026 0.287796C160.91 0.40316 161.182 0.130481 161.154 0.158947V0.160446V0.164191V0.170934V0.184417V0.212134V0.267569V0.377689V0.597929V1.03691C161.154 1.32832 161.154 1.61897 161.154 1.90738C161.153 2.4842 161.153 3.05428 161.152 3.61612C161.151 4.73904 161.149 5.82825 161.148 6.87102L161.025 6.74817C165.426 6.77214 169.216 6.79236 171.931 6.8066C173.271 6.82083 174.344 6.83282 175.108 6.84106C175.465 6.84705 175.75 6.85229 175.965 6.85679C176.162 6.86128 176.266 6.86653 176.271 6.87177C176.276 6.87702 176.181 6.88151 175.995 6.88675C175.785 6.8905 175.51 6.89574 175.163 6.90249C174.406 6.91073 173.342 6.92196 172.015 6.93619C169.278 6.95118 165.46 6.97141 161.025 6.99463L160.902 6.99538V6.87177C160.901 5.829 160.899 4.73979 160.898 3.61686C160.897 3.05503 160.897 2.48495 160.896 1.90813C160.896 1.61972 160.896 1.32907 160.896 1.03766V0.598678V0.378438V0.268318V0.212884V0.185166V0.171682V0.16494V0.161195V0.158947C160.868 0.185915 161.141 -0.0867625 161.026 0.0286013C166.949 0.0428345 172.322 0.0555693 176.272 0.0653078H176.365L176.365 0.158199C176.344 2.22576 176.326 3.90752 176.314 5.09861C176.305 5.65671 176.297 6.09869 176.291 6.4238C176.284 6.7242 176.278 6.87776 176.271 6.87177Z"
        fill="#E0E0E0" />
    <path
        d="M27.4731 122.828C27.4709 122.825 27.4679 122.784 27.4656 122.706C27.4634 122.616 27.4604 122.503 27.4574 122.361C27.4529 122.045 27.4462 121.605 27.4379 121.04C27.4274 119.881 27.4132 118.215 27.3945 116.114L27.4731 116.193C21.6795 116.204 12.4646 116.223 2.0991 116.244C2.15603 116.186 1.96875 116.373 2.22645 116.115V116.117V116.12V116.127V116.141V116.168V116.222V116.329V116.545V116.975C2.22645 117.261 2.22645 117.547 2.22645 117.831C2.22645 118.4 2.22644 118.966 2.2257 119.525C2.22495 120.646 2.2242 121.748 2.22345 122.827L2.09685 122.701C9.32282 122.724 15.6454 122.744 20.1805 122.758C22.4391 122.773 24.2519 122.786 25.5179 122.794C26.1337 122.802 26.6161 122.807 26.9615 122.811C27.1166 122.814 27.2409 122.817 27.339 122.819C27.4252 122.823 27.4701 122.825 27.4731 122.828C27.4761 122.831 27.4364 122.833 27.3555 122.836C27.2619 122.838 27.1428 122.841 26.9937 122.844C26.6551 122.848 26.1817 122.854 25.5779 122.861C24.3186 122.869 22.5162 122.882 20.2696 122.897C15.7128 122.911 9.35952 122.931 2.09835 122.955L1.97175 122.955V122.829C1.971 121.749 1.97025 120.647 1.9695 119.527C1.9695 118.966 1.9695 118.401 1.96875 117.833C1.96875 117.548 1.96875 117.263 1.96875 116.977V116.547V116.331V116.223V116.169V116.142V116.129V116.122V116.118V116.117C2.22719 115.858 2.04141 116.045 2.09984 115.987C12.4654 116.008 21.6802 116.026 27.4739 116.038H27.5533L27.5525 116.117C27.5338 118.237 27.5196 119.919 27.5091 121.089C27.5009 121.647 27.4949 122.081 27.4904 122.393C27.4866 122.528 27.4844 122.637 27.4821 122.723C27.4784 122.795 27.4754 122.83 27.4731 122.828Z"
        fill="#E0E0E0" />
    <path
        d="M30.914 116.115C30.9111 116.112 30.9073 116.069 30.9043 115.987C30.9013 115.89 30.8983 115.774 30.8946 115.631C30.8886 115.301 30.8811 114.852 30.8713 114.285C30.8594 113.108 30.8421 111.446 30.8212 109.402L30.914 109.494C26.964 109.504 21.5906 109.517 15.6688 109.531C15.5527 109.647 15.8246 109.374 15.7969 109.402V109.404V109.408V109.414V109.428V109.456V109.511V109.621V109.841V110.28C15.7969 110.572 15.7969 110.862 15.7969 111.151C15.7969 111.728 15.7961 112.298 15.7954 112.86C15.7939 113.982 15.7924 115.072 15.7909 116.114L15.668 115.992C20.0691 116.015 23.8589 116.036 26.5744 116.05C27.9138 116.064 28.9873 116.076 29.7514 116.084C30.108 116.09 30.3927 116.096 30.6084 116.1C30.8039 116.105 30.9088 116.11 30.914 116.115C30.9193 116.12 30.8242 116.125 30.6376 116.13C30.4286 116.134 30.1529 116.139 29.8061 116.146C29.0487 116.154 27.985 116.165 26.6576 116.18C23.9211 116.195 20.1028 116.215 15.668 116.238L15.5452 116.239V116.115C15.5437 115.072 15.5422 113.983 15.5407 112.86C15.5399 112.298 15.54 111.728 15.5392 111.152C15.5392 110.863 15.5392 110.572 15.5392 110.281V109.842V109.622V109.512V109.456V109.429V109.415V109.408V109.405V109.403C15.5107 109.43 15.7842 109.157 15.6695 109.273C21.5921 109.287 26.9655 109.3 30.9148 109.309H31.0084L31.0077 109.402C30.9867 111.47 30.9695 113.152 30.9575 114.343C30.9478 114.901 30.9403 115.343 30.9343 115.668C30.9268 115.968 30.92 116.121 30.914 116.115Z"
        fill="#E0E0E0" />
    <path
        d="M324.083 29.1585C324.08 29.1555 324.078 29.1151 324.076 29.0364C324.074 28.9465 324.071 28.8334 324.068 28.6918C324.063 28.3757 324.056 27.9352 324.049 27.3704C324.038 26.2115 324.024 24.5455 324.005 22.445L324.084 22.5236C318.29 22.5349 309.075 22.5536 298.71 22.5746C298.767 22.5169 298.58 22.7034 298.838 22.4457V22.4472V22.4502V22.457V22.4704V22.4974V22.5513V22.6592V22.875V23.3057C298.838 23.5919 298.838 23.878 298.838 24.1619C298.838 24.7305 298.838 25.2961 298.837 25.8557C298.837 26.9764 298.836 28.0783 298.835 29.1578L298.708 29.0312C305.934 29.0544 312.257 29.0739 316.792 29.0889C319.051 29.1039 320.864 29.1166 322.13 29.1248C322.745 29.1323 323.228 29.1376 323.573 29.1413C323.728 29.1443 323.853 29.1473 323.951 29.1496C324.035 29.1533 324.08 29.1555 324.083 29.1585C324.086 29.1615 324.047 29.1638 323.966 29.1668C323.872 29.169 323.753 29.1713 323.604 29.175C323.265 29.1788 322.792 29.1848 322.188 29.1915C320.929 29.1997 319.126 29.2125 316.88 29.2275C312.323 29.2417 305.969 29.2619 298.708 29.2851H298.581V29.1585C298.58 28.0791 298.58 26.9771 298.579 25.8564C298.579 25.2961 298.579 24.7313 298.578 24.1627C298.578 23.878 298.578 23.5926 298.578 23.3065V22.8757V22.66V22.5521V22.4982V22.4712V22.4577V22.451V22.448V22.4465C298.837 22.188 298.651 22.3746 298.709 22.3169C309.075 22.3378 318.29 22.3558 324.083 22.3678H324.163L324.162 22.4465C324.143 24.5672 324.129 26.249 324.118 27.4191C324.11 27.9764 324.104 28.4109 324.099 28.7226C324.096 28.8581 324.093 28.9668 324.091 29.0529C324.089 29.1248 324.086 29.1608 324.083 29.1585Z"
        fill="#E0E0E0" />
    <path
        d="M327.524 22.4459C327.521 22.4429 327.517 22.3994 327.514 22.3178C327.511 22.2211 327.508 22.1043 327.504 21.9619C327.498 21.6316 327.491 21.1829 327.481 20.6158C327.469 19.4389 327.452 17.7766 327.431 15.7323L327.524 15.8252C323.574 15.8349 318.2 15.8477 312.278 15.8619C312.162 15.9773 312.434 15.7046 312.407 15.733V15.7345V15.7383V15.745V15.7585V15.7862V15.8417V15.9518V16.172V16.611C312.407 16.9032 312.407 17.1931 312.407 17.4815C312.407 18.0583 312.406 18.6284 312.406 19.1902C312.404 20.3131 312.403 21.4024 312.401 22.4451L312.278 22.3223C316.679 22.3462 320.469 22.3665 323.185 22.3807C324.524 22.3949 325.598 22.4069 326.362 22.4144C326.718 22.4204 327.003 22.4256 327.219 22.4301C327.414 22.4354 327.518 22.4406 327.524 22.4459C327.529 22.4511 327.434 22.4556 327.247 22.4609C327.038 22.4646 326.763 22.4698 326.416 22.4766C325.658 22.4848 324.595 22.4961 323.266 22.5103C320.53 22.5245 316.712 22.5455 312.277 22.5687L312.154 22.5695V22.4459C312.153 21.4031 312.151 20.3139 312.15 19.191C312.15 18.6291 312.149 18.059 312.148 17.4822C312.148 17.1938 312.148 16.9032 312.148 16.6118V16.1728V15.9525V15.8424V15.787V15.7593V15.7458V15.739V15.7353V15.733C312.12 15.76 312.394 15.4873 312.278 15.6027C318.201 15.6169 323.574 15.6297 327.524 15.6394H327.617L327.617 15.7323C327.596 17.7999 327.578 19.4816 327.566 20.6727C327.557 21.2308 327.549 21.6728 327.543 21.9979C327.536 22.2975 327.53 22.4519 327.524 22.4459Z"
        fill="#E0E0E0" />
    <path
        d="M337.956 218.955C337.956 219.063 262.296 219.15 168.986 219.15C75.6442 219.15 0 219.063 0 218.955C0 218.848 75.6442 218.761 168.986 218.761C262.296 218.761 337.956 218.848 337.956 218.955Z"
        fill="#263238" />
    <path
        d="M99.1034 119.887C93.5187 122.78 89.236 127.761 86.1564 133.245C83.0768 138.73 81.0924 144.747 79.1267 150.722L77.4067 181.535C83.9053 170.479 89.1206 157.483 90.5305 144.737C89.0892 144.609 87.6479 144.481 86.2059 144.352C89.1057 143.91 91.5388 141.809 93.0872 139.318C94.6357 136.827 95.4327 133.954 96.211 131.126C94.4521 131.387 92.6939 131.649 90.935 131.91C95.0664 129.153 98.0613 124.744 99.1034 119.887Z"
        fill="#455A64" />
    <g opacity="0.3">
        <path
            d="M99.1034 119.887C93.5187 122.78 89.236 127.761 86.1564 133.245C83.0768 138.73 81.0924 144.747 79.1267 150.722L77.4067 181.535C83.9053 170.479 89.1206 157.483 90.5305 144.737C89.0892 144.609 87.6479 144.481 86.2059 144.352C89.1057 143.91 91.5388 141.809 93.0872 139.318C94.6357 136.827 95.4327 133.954 96.211 131.126C94.4521 131.387 92.6939 131.649 90.935 131.91C95.0664 129.153 98.0613 124.744 99.1034 119.887Z"
            fill="black" />
    </g>
    <path
        d="M76.4441 188.754C76.4441 188.754 62.339 171.872 62.5023 155.755H68.2C68.2 155.755 62.0108 151.685 62.5008 149.406C62.9907 147.127 63.1532 138.499 63.1532 138.499L68.3626 139.802C68.3626 139.802 64.4552 137.848 63.9675 134.755C63.4791 131.662 65.1069 117.336 65.1069 117.336C65.1069 117.336 71.4557 124.01 73.4094 130.847C75.3631 137.685 80.4908 145.662 78.9851 166.499C77.4793 187.337 76.4441 188.754 76.4441 188.754Z"
        fill="#455A64" />
    <path
        d="M81.1535 193.727C81.1535 193.727 97.022 184.489 101.197 171.725L96.6999 170.204C96.6999 170.204 102.671 168.644 102.893 166.714C103.115 164.785 105.29 157.931 105.29 157.931L100.83 157.568C100.83 157.568 104.436 157.069 105.647 154.758C106.859 152.447 109.398 140.706 109.398 140.706C109.398 140.706 102.605 144.279 99.2379 149.154C95.8706 154.029 89.6934 158.956 85.3185 175.804C80.9437 192.652 81.1535 193.727 81.1535 193.727Z"
        fill="#455A64" />
    <path
        d="M68.9598 132.056C68.9665 132.054 68.9852 132.113 69.0167 132.23C69.0512 132.369 69.0939 132.539 69.1455 132.748C69.2579 133.237 69.4107 133.905 69.6048 134.749C70.001 136.487 70.5247 139.014 71.124 142.145C72.3308 148.406 73.7541 157.105 74.8755 166.77C75.9895 176.441 76.588 185.236 76.842 191.607C76.9731 194.792 77.0397 197.371 77.0502 199.154C77.054 200.02 77.0577 200.705 77.06 201.207C77.057 201.422 77.0547 201.597 77.0525 201.741C77.0487 201.861 77.0435 201.923 77.0367 201.923C77.03 201.923 77.0218 201.861 77.0128 201.741C77.0045 201.598 76.994 201.423 76.9813 201.208C76.9611 200.707 76.9334 200.023 76.8981 199.158C76.8405 197.377 76.7318 194.801 76.5655 191.619C76.2412 185.256 75.5999 176.475 74.4875 166.815C73.3668 157.159 71.9885 148.464 70.852 142.194C70.288 139.059 69.8063 136.526 69.4557 134.779C69.2924 133.928 69.1628 133.256 69.0684 132.763C69.0317 132.551 69.0017 132.378 68.977 132.236C68.9598 132.119 68.9538 132.057 68.9598 132.056Z"
        fill="#263238" />
    <path
        d="M74.4881 199.093C74.4881 199.093 61.5801 184.447 57.5724 175.594L60.598 174.301C58.4046 174.663 56.158 173.72 54.4575 172.289C52.757 170.857 51.5083 168.974 50.2835 167.12L54.2695 166.446C50.6453 165.429 47.4518 162.955 45.561 159.7C50.2647 160.474 54.5197 163.057 58.0256 166.286C60.8655 168.901 63.2694 171.936 65.5789 175.038C66.7056 176.551 67.6907 178.162 68.5124 179.861C70.6811 184.345 74.4949 193.714 74.4881 199.093Z"
        fill="#455A64" />
    <path
        d="M102.786 148.846C102.798 148.852 102.7 149.046 102.504 149.41C102.288 149.802 101.997 150.329 101.632 150.991C100.863 152.357 99.7668 154.342 98.4348 156.806C95.7672 161.733 92.2239 168.616 88.6619 176.386C85.1051 184.162 82.2075 191.342 80.2208 196.581C79.2253 199.2 78.4387 201.326 77.9076 202.8C77.6454 203.509 77.4364 204.073 77.2813 204.492C77.1337 204.878 77.0506 205.078 77.0378 205.073C77.0251 205.069 77.0836 204.86 77.2072 204.467C77.3457 204.04 77.5315 203.469 77.7645 202.75C78.2514 201.26 78.9998 199.117 79.9631 196.484C81.8861 191.217 84.747 184.01 88.3083 176.224C91.8748 168.443 95.4623 161.569 98.1936 156.673C99.5578 154.224 100.691 152.258 101.502 150.915C101.894 150.268 102.205 149.754 102.437 149.371C102.655 149.02 102.774 148.839 102.786 148.846Z"
        fill="#263238" />
    <path
        d="M75.5827 205.368C75.5557 205.371 75.4815 204.999 75.3706 204.324C75.265 203.649 75.0905 202.676 74.8485 201.481C74.3691 199.09 73.5331 195.817 72.2229 192.335C70.9044 188.854 69.3687 185.845 68.1484 183.734C67.5394 182.677 67.0278 181.831 66.6614 181.255C66.2996 180.676 66.1093 180.347 66.1311 180.332C66.1535 180.317 66.3858 180.616 66.7873 181.172C67.1941 181.724 67.7432 182.55 68.3859 183.594C69.6729 185.68 71.2603 188.692 72.5884 192.198C73.9084 195.705 74.7077 199.015 75.1205 201.431C75.3287 202.639 75.4628 203.623 75.522 204.305C75.5864 204.987 75.6096 205.366 75.5827 205.368Z"
        fill="#263238" />
    <path d="M89.8995 197.084H64.5015V202.265H89.8995V197.084Z" fill="#009196" />
    <path d="M66.9224 202.265L69.6694 219.691H85.0165L87.577 202.265H66.9224Z" fill="#009196" />
    <path
        d="M88.3415 202.265C88.3415 202.373 83.5367 202.46 77.6119 202.46C71.6842 202.46 66.8809 202.372 66.8809 202.265C66.8809 202.157 71.6842 202.07 77.6119 202.07C83.5374 202.07 88.3415 202.157 88.3415 202.265Z"
        fill="#263238" />
    <path d="M274.116 69.6104H98.104V214.16H274.116V69.6104Z" fill="#E0E0E0" />
    <path
        d="M277.299 91.25H96.6285C95.5124 91.25 94.6074 90.3451 94.6074 89.2289V88.3741C94.6074 87.258 95.5124 86.353 96.6285 86.353H277.299C278.415 86.353 279.32 87.258 279.32 88.3741V89.2289C279.32 90.3458 278.415 91.25 277.299 91.25Z"
        fill="#E0E0E0" />
    <path d="M194.855 101.741H108.772V163.465H194.855V101.741Z" fill="#FAFAFA" />
    <path
        d="M194.854 163.466C194.854 163.466 194.843 163.075 194.837 162.334C194.833 161.585 194.827 160.489 194.819 159.059C194.809 156.187 194.796 151.982 194.779 146.607C194.759 135.863 194.731 120.452 194.695 101.741L194.854 101.899C170.796 101.91 140.99 101.923 108.779 101.936H108.772L108.967 101.741C108.96 123.854 108.954 144.83 108.949 163.466L108.772 163.289C134.196 163.325 155.693 163.355 170.844 163.376C178.425 163.397 184.418 163.413 188.524 163.424C190.572 163.433 192.148 163.44 193.223 163.445C193.752 163.449 194.155 163.453 194.436 163.455C194.71 163.459 194.854 163.466 194.854 163.466C194.854 163.466 194.724 163.472 194.457 163.476C194.181 163.478 193.784 163.482 193.264 163.487C192.197 163.492 190.633 163.499 188.601 163.508C184.503 163.519 178.525 163.535 170.961 163.555C155.781 163.577 134.244 163.607 108.773 163.643H108.595V163.466C108.59 144.83 108.584 123.854 108.577 101.741V101.546H108.773H108.779C140.991 101.559 170.796 101.572 194.854 101.583H195.013V101.741C194.979 120.493 194.95 135.938 194.931 146.706C194.913 152.065 194.899 156.258 194.89 159.122C194.883 160.539 194.877 161.625 194.872 162.367C194.866 163.098 194.854 163.466 194.854 163.466Z"
        fill="#263238" />
    <path d="M266.815 96.8331H208.116V208.79H266.815V96.8331Z" fill="#455A64" />
    <path d="M259.798 104.353H215.675V150.615H259.798V104.353Z" fill="#FAFAFA" />
    <path d="M259.798 164.276H215.675V201.36H259.798V164.276Z" fill="#FAFAFA" />
    <path
        d="M214.211 160.042C215.645 160.042 216.808 158.88 216.808 157.446C216.808 156.012 215.645 154.849 214.211 154.849C212.777 154.849 211.615 156.012 211.615 157.446C211.615 158.88 212.777 160.042 214.211 160.042Z"
        fill="#E0E0E0" />
    <g opacity="0.2">
        <path
            d="M113.547 69.6965C113.547 77.7413 106.23 85.849 98.1042 85.849L97.5498 69.6965H113.547Z"
            fill="black" />
        <path
            d="M157.685 86.5202C165.811 86.5202 172.398 78.9878 172.398 69.6965H142.973C142.973 78.9878 149.56 86.5202 157.685 86.5202Z"
            fill="black" />
        <path
            d="M216.536 86.5202C224.662 86.5202 231.249 78.9878 231.249 69.6965H201.824C201.823 78.9878 208.411 86.5202 216.536 86.5202Z"
            fill="black" />
        <path
            d="M128.26 86.5202C136.385 86.5202 142.972 78.9878 142.972 69.6965H113.547C113.547 78.9878 120.134 86.5202 128.26 86.5202Z"
            fill="black" />
        <path
            d="M187.111 86.5202C195.236 86.5202 201.823 78.9878 201.823 69.6965H172.398C172.398 78.9878 178.986 86.5202 187.111 86.5202Z"
            fill="black" />
        <path
            d="M246.018 86.5202C254.175 86.5202 260.787 78.9878 260.787 69.6965H231.249C231.249 78.9878 237.862 86.5202 246.018 86.5202Z"
            fill="black" />
        <path
            d="M260.787 69.6965C260.787 78.9878 265.992 86.1846 274.005 86.1846L274.321 69.6965H260.787Z"
            fill="black" />
    </g>
    <path d="M106.429 35.4799L83.5396 69.6103H289.223L266.978 35.4799H106.429Z" fill="#009196" />
    <path
        d="M83.5396 69.6104C83.5396 77.6551 90.1273 84.1762 98.2522 84.1762C106.378 84.1762 112.965 77.6551 112.965 69.6104H83.5396Z"
        fill="#009196" />
    <path
        d="M112.964 69.6104C112.964 77.6551 119.551 84.1762 127.677 84.1762C135.803 84.1762 142.39 77.6551 142.39 69.6104H112.964Z"
        fill="#009196" />
    <path
        d="M142.39 69.6104C142.39 77.6551 148.977 84.1762 157.102 84.1762C165.228 84.1762 171.815 77.6551 171.815 69.6104H142.39Z"
        fill="#009196" />
    <path
        d="M171.815 69.6104C171.815 77.6551 178.402 84.1762 186.528 84.1762C194.653 84.1762 201.24 77.6551 201.24 69.6104H171.815Z"
        fill="#009196" />
    <path
        d="M201.241 69.6104C201.241 77.6551 207.828 84.1762 215.954 84.1762C224.08 84.1762 230.666 77.6551 230.666 69.6104H201.241Z"
        fill="#009196" />
    <path
        d="M230.667 69.6104C230.667 77.6551 237.279 84.1762 245.435 84.1762C253.592 84.1762 260.204 77.6551 260.204 69.6104H230.667Z"
        fill="#009196" />
    <g opacity="0.3">
        <path
            d="M112.964 69.6104C112.964 77.6551 119.551 84.1762 127.677 84.1762C135.803 84.1762 142.39 77.6551 142.39 69.6104H112.964Z"
            fill="white" />
    </g>
    <g opacity="0.3">
        <path
            d="M171.815 69.6104C171.815 77.6551 178.402 84.1762 186.528 84.1762C194.653 84.1762 201.24 77.6551 201.24 69.6104H171.815Z"
            fill="white" />
    </g>
    <g opacity="0.3">
        <path
            d="M230.667 69.6104C230.667 77.6551 237.279 84.1762 245.435 84.1762C253.592 84.1762 260.204 77.6551 260.204 69.6104H230.667Z"
            fill="white" />
    </g>
    <path
        d="M260.205 69.6104C260.205 77.6551 266.701 84.1762 274.714 84.1762C282.727 84.1762 289.223 77.6551 289.223 69.6104H260.205Z"
        fill="#009196" />
    <g opacity="0.3">
        <path d="M112.964 69.6965L128.497 35.4799H149.49L142.39 69.6965H112.964Z" fill="white" />
    </g>
    <g opacity="0.3">
        <path d="M171.521 35.4799L171.815 69.6965H201.241L197.967 35.4799H171.521Z" fill="white" />
    </g>
    <g opacity="0.3">
        <path d="M230.667 69.6965L222.855 35.4799H245.233L260.092 69.6965H230.667Z" fill="white" />
    </g>
    <path
        d="M269.682 35.4798H102.539C100.09 35.4798 98.104 33.4946 98.104 31.045V29.8449C98.104 27.3961 100.089 25.4102 102.539 25.4102H269.682C272.131 25.4102 274.117 27.3953 274.117 29.8449V31.045C274.116 33.4946 272.131 35.4798 269.682 35.4798Z"
        fill="#009196" />
    <path
        d="M289.223 69.6964C289.223 69.8042 243.176 69.8911 186.386 69.8911C129.577 69.8911 83.5396 69.8042 83.5396 69.6964C83.5396 69.5885 129.577 69.5016 186.386 69.5016C243.175 69.5016 289.223 69.5885 289.223 69.6964Z"
        fill="#263238" />
    <path
        d="M274.32 207.77C274.32 207.77 274.311 207.585 274.306 207.22C274.303 206.849 274.299 206.308 274.292 205.597C274.286 204.158 274.277 202.037 274.265 199.28C274.254 193.748 274.236 185.663 274.215 175.421C274.198 154.922 274.173 125.795 274.145 91.25L274.321 91.4261C247.786 91.4321 217.609 91.4381 185.737 91.4456C154.268 91.4388 124.456 91.4321 98.1531 91.4268L98.3291 91.2508C98.2999 126.068 98.2759 155.45 98.2587 176.136C98.2377 186.472 98.2205 194.633 98.2092 200.218C98.1973 203.002 98.1883 205.143 98.1823 206.596C98.1763 207.314 98.171 207.86 98.168 208.235C98.1636 208.603 98.1538 208.79 98.1538 208.79C98.1538 208.79 98.1441 208.603 98.1396 208.235C98.1366 207.86 98.1313 207.314 98.1253 206.596C98.1193 205.143 98.1096 203.002 98.0984 200.218C98.0871 194.632 98.0699 186.472 98.0489 176.136C98.0317 155.45 98.007 126.068 97.9785 91.2508V91.0748H98.1553C124.459 91.0688 154.27 91.0628 185.739 91.056C217.612 91.0628 247.788 91.0695 274.323 91.0755H274.499V91.2515C274.47 125.796 274.446 154.923 274.429 175.422C274.408 185.664 274.391 193.749 274.379 199.281C274.367 202.04 274.359 204.16 274.353 205.598C274.347 206.309 274.342 206.851 274.338 207.221C274.33 207.585 274.32 207.77 274.32 207.77Z"
        fill="#263238" />
    <path
        d="M274.904 86.3537C274.904 86.4616 235.334 86.5485 186.533 86.5485C137.714 86.5485 98.1519 86.4608 98.1519 86.3537C98.1519 86.2466 137.714 86.1589 186.533 86.1589C235.334 86.1582 274.904 86.2458 274.904 86.3537Z"
        fill="#263238" />
    <path
        d="M270.019 35.4799C270.019 35.5878 232.73 35.6747 186.742 35.6747C140.738 35.6747 103.457 35.5871 103.457 35.4799C103.457 35.3721 140.738 35.2852 186.742 35.2852C232.73 35.2852 270.019 35.3721 270.019 35.4799Z"
        fill="#263238" />
    <path
        d="M135.428 163.149C135.32 163.149 135.232 149.472 135.232 132.605C135.232 115.732 135.32 102.057 135.428 102.057C135.536 102.057 135.623 115.732 135.623 132.605C135.623 149.473 135.536 163.149 135.428 163.149Z"
        fill="#E0E0E0" />
    <path
        d="M166.325 163.149C166.217 163.149 166.13 149.472 166.13 132.605C166.13 115.732 166.218 102.057 166.325 102.057C166.433 102.057 166.52 115.732 166.52 132.605C166.52 149.473 166.433 163.149 166.325 163.149Z"
        fill="#E0E0E0" />
    <path
        d="M194.816 133.515C194.816 133.623 175.493 133.71 151.661 133.71C127.821 133.71 108.502 133.622 108.502 133.515C108.502 133.407 127.822 133.32 151.661 133.32C175.492 133.32 194.816 133.407 194.816 133.515Z"
        fill="#E0E0E0" />
    <path
        d="M265.784 96.8332C265.795 96.8415 265.662 97.0295 265.4 97.3793C265.113 97.7539 264.726 98.2603 264.238 98.8978C263.192 100.236 261.718 102.12 259.906 104.438L259.865 104.491H259.796C253.967 104.505 246.001 104.525 237.212 104.547C228.907 104.527 221.339 104.509 215.674 104.497H215.614L215.572 104.455C213.279 102.135 211.412 100.247 210.09 98.9098C209.467 98.2678 208.974 97.7591 208.612 97.3853C208.46 97.2228 208.336 97.0902 208.234 96.9808C208.151 96.8879 208.11 96.8377 208.116 96.8332C208.121 96.828 208.171 96.8684 208.264 96.9508C208.374 97.052 208.507 97.1756 208.67 97.3261C209.046 97.6865 209.557 98.1771 210.203 98.7959C211.547 100.111 213.445 101.968 215.775 104.249L215.674 104.208C221.338 104.194 228.906 104.177 237.211 104.157C246.001 104.179 253.966 104.199 259.796 104.214L259.687 104.266C261.54 101.981 263.047 100.122 264.117 98.8034C264.629 98.1846 265.036 97.694 265.336 97.3306C265.62 96.9965 265.774 96.825 265.784 96.8332Z"
        fill="#263238" />
    <path
        d="M266.919 208.585C266.914 208.59 266.866 208.552 266.777 208.471C266.671 208.374 266.544 208.256 266.388 208.112C266.029 207.765 265.541 207.295 264.924 206.701C263.639 205.438 261.824 203.654 259.594 201.461L259.694 201.502C253.899 201.515 246.065 201.535 237.443 201.555C228.997 201.535 221.307 201.517 215.571 201.504L215.672 201.463C213.34 203.718 211.442 205.552 210.098 206.852C209.453 207.463 208.942 207.948 208.567 208.304C208.404 208.452 208.271 208.574 208.16 208.674C208.068 208.755 208.017 208.795 208.012 208.79C208.007 208.785 208.047 208.735 208.131 208.644C208.232 208.536 208.356 208.405 208.508 208.245C208.87 207.875 209.364 207.373 209.986 206.738C211.308 205.417 213.176 203.551 215.47 201.258L215.511 201.217H215.571C221.307 201.204 228.996 201.186 237.443 201.166C246.064 201.186 253.898 201.206 259.694 201.219H259.754L259.794 201.261C261.987 203.491 263.771 205.305 265.034 206.59C265.628 207.207 266.099 207.695 266.445 208.055C266.589 208.21 266.707 208.338 266.804 208.443C266.885 208.531 266.923 208.579 266.919 208.585Z"
        fill="#263238" />
    <path
        d="M259.797 105.931C259.802 105.931 259.807 106.004 259.813 106.146C259.816 106.305 259.822 106.513 259.828 106.781C259.834 107.358 259.844 108.182 259.857 109.242C259.87 111.411 259.887 114.544 259.909 118.485C259.927 126.41 259.951 137.575 259.98 150.615L259.98 150.799H259.796C252.737 150.802 245.008 150.806 236.949 150.81C229.468 150.806 222.272 150.803 215.674 150.8H215.488V150.615C215.517 137.156 215.541 125.596 215.558 117.381C215.581 113.296 215.599 110.044 215.612 107.793C215.625 106.691 215.635 105.835 215.642 105.235C215.649 104.957 215.654 104.74 215.658 104.576C215.663 104.428 215.668 104.353 215.673 104.353C215.679 104.353 215.684 104.428 215.689 104.576C215.693 104.74 215.698 104.957 215.705 105.235C215.712 105.835 215.722 106.691 215.735 107.793C215.747 110.044 215.765 113.296 215.788 117.381C215.805 125.596 215.83 137.157 215.858 150.615L215.673 150.43C222.27 150.427 229.467 150.423 236.947 150.42C245.006 150.424 252.735 150.429 259.795 150.432L259.611 150.615C259.64 137.575 259.664 126.41 259.682 118.485C259.704 114.544 259.722 111.411 259.734 109.242C259.747 108.182 259.757 107.358 259.763 106.781C259.77 106.513 259.774 106.305 259.778 106.146C259.786 106.004 259.792 105.931 259.797 105.931Z"
        fill="#263238" />
    <path
        d="M259.797 201.36C259.792 201.36 259.787 201.3 259.782 201.183C259.778 201.049 259.773 200.877 259.767 200.659C259.76 200.177 259.751 199.498 259.739 198.625C259.727 196.827 259.709 194.236 259.687 190.977C259.67 184.405 259.645 175.141 259.617 164.276L259.797 164.457C252.991 164.462 245.517 164.466 237.688 164.471C229.855 164.466 222.38 164.462 215.572 164.457L215.753 164.276C215.724 175.143 215.7 184.407 215.683 190.978C215.661 194.238 215.643 196.828 215.631 198.626C215.619 199.498 215.609 200.177 215.602 200.66C215.596 200.878 215.591 201.049 215.587 201.183C215.582 201.301 215.578 201.361 215.572 201.361C215.567 201.361 215.562 201.301 215.557 201.183C215.554 201.049 215.548 200.878 215.542 200.66C215.536 200.177 215.526 199.499 215.514 198.626C215.502 196.828 215.484 194.238 215.462 190.978C215.445 184.408 215.42 175.143 215.392 164.276L215.391 164.095H215.572C222.38 164.09 229.856 164.086 237.688 164.08C245.518 164.086 252.991 164.09 259.797 164.095H259.978L259.978 164.276C259.949 175.141 259.925 184.405 259.907 190.977C259.886 194.237 259.868 196.827 259.856 198.625C259.844 199.498 259.834 200.177 259.827 200.659C259.821 200.877 259.816 201.049 259.812 201.183C259.808 201.3 259.802 201.36 259.797 201.36Z"
        fill="#263238" />
    <path
        d="M244.005 120.847C243.827 120.672 243.649 120.498 243.413 120.267C242.976 119.827 242.442 119.289 241.814 118.656C240.408 117.22 238.588 115.36 236.575 113.304L236.566 113.293L236.856 113.281C235.007 115.544 233.317 117.578 232.078 119.038C231.459 119.769 230.952 120.355 230.596 120.755C230.239 121.155 230.032 121.367 230.012 121.35C229.991 121.333 230.158 121.088 230.479 120.659C230.858 120.168 231.321 119.57 231.865 118.865C233.048 117.36 234.705 115.298 236.554 113.034L236.693 112.865L236.846 113.022L236.856 113.032C238.895 115.13 240.717 117.053 242.015 118.466C243.308 119.877 244.087 120.79 244.005 120.847Z"
        fill="#263238" />
    <path d="M253.816 120.497L221.12 121.675L221.581 134.477L254.277 133.3L253.816 120.497Z"
        fill="#F9A51A" />
    <path
        d="M229.923 129.746C229.552 129.563 229.257 129.305 229.039 128.969C228.821 128.634 228.705 128.252 228.689 127.824C228.673 127.396 228.762 127.007 228.956 126.657C229.149 126.306 229.424 126.027 229.781 125.819C230.138 125.61 230.542 125.498 230.995 125.482C231.448 125.465 231.858 125.548 232.228 125.731C232.596 125.912 232.891 126.171 233.111 126.507C233.33 126.843 233.448 127.223 233.464 127.652C233.48 128.079 233.389 128.469 233.195 128.82C232.998 129.17 232.724 129.449 232.369 129.657C232.015 129.865 231.611 129.977 231.159 129.993C230.705 130.011 230.293 129.928 229.923 129.746ZM231.818 128.931C232.022 128.805 232.178 128.635 232.289 128.417C232.4 128.201 232.451 127.959 232.441 127.688C232.431 127.419 232.363 127.179 232.237 126.972C232.111 126.766 231.942 126.606 231.73 126.494C231.518 126.383 231.283 126.333 231.026 126.342C230.768 126.351 230.538 126.419 230.335 126.545C230.131 126.67 229.974 126.842 229.863 127.058C229.753 127.273 229.702 127.517 229.711 127.787C229.721 128.057 229.789 128.295 229.916 128.503C230.042 128.71 230.21 128.87 230.422 128.981C230.634 129.092 230.869 129.143 231.126 129.134C231.384 129.125 231.615 129.058 231.818 128.931Z"
        fill="white" />
    <path
        d="M237.047 125.533C237.336 125.651 237.562 125.826 237.725 126.057C237.886 126.288 237.973 126.567 237.985 126.89C237.996 127.211 237.93 127.492 237.784 127.737C237.64 127.981 237.426 128.172 237.146 128.309C236.866 128.446 236.533 128.522 236.147 128.535L235.267 128.567L235.311 129.769L234.301 129.805L234.145 125.443L236.033 125.375C236.42 125.362 236.757 125.414 237.047 125.533ZM236.746 127.494C236.9 127.357 236.972 127.168 236.963 126.927C236.954 126.682 236.868 126.497 236.706 126.372C236.543 126.247 236.31 126.19 236.007 126.2L235.184 126.23L235.238 127.744L236.062 127.714C236.365 127.704 236.593 127.63 236.746 127.494Z"
        fill="white" />
    <path
        d="M242.15 128.713L242.18 129.522L238.801 129.644L238.645 125.282L241.941 125.163L241.971 125.973L239.676 126.055L239.711 127.003L241.736 126.93L241.764 127.716L239.738 127.789L239.775 128.799L242.15 128.713Z"
        fill="white" />
    <path
        d="M246.828 124.987L246.984 129.349L246.157 129.379L243.886 126.808L243.981 129.457L242.984 129.493L242.828 125.131L243.662 125.101L245.926 127.671L245.831 125.023L246.828 124.987Z"
        fill="white" />
    <path d="M278.348 208.26H91.8013V218.244H278.348V208.26Z" fill="#E0E0E0" />
    <path
        d="M278.348 208.298C278.348 208.406 236.511 208.493 184.913 208.493C133.298 208.493 91.4692 208.405 91.4692 208.298C91.4692 208.191 133.298 208.103 184.913 208.103C236.51 208.102 278.348 208.19 278.348 208.298Z"
        fill="#263238" />
    <path d="M196.107 170.943H172.08V178.431H196.107V170.943Z" fill="#EBEBEB" />
    <path d="M133.692 170.138H109.665V177.625H133.692V170.138Z" fill="#EBEBEB" />
    <path d="M183.298 178.649H159.271V186.137H183.298V178.649Z" fill="#F5F5F5" />
    <path
        d="M152.053 197.779C152.045 197.771 152.037 197.589 152.027 197.249C152.02 196.878 152.009 196.386 151.997 195.766C151.98 194.454 151.957 192.605 151.928 190.292L152.053 190.417C146.331 190.434 137.69 190.459 128.027 190.487C128.114 190.4 127.831 190.681 128.22 190.292V190.294V190.298V190.305V190.32V190.35V190.411V190.532V190.775V191.259C128.22 191.581 128.22 191.902 128.22 192.221C128.22 192.859 128.22 193.491 128.22 194.117C128.218 195.368 128.217 196.591 128.215 197.779L128.026 197.589C134.882 197.624 140.853 197.654 145.153 197.677C147.273 197.699 148.98 197.717 150.197 197.731C150.766 197.741 151.219 197.749 151.564 197.755C151.878 197.763 152.045 197.771 152.053 197.779C152.062 197.788 151.91 197.795 151.611 197.803C151.277 197.809 150.837 197.818 150.285 197.828C149.079 197.841 147.386 197.859 145.284 197.881C140.952 197.903 134.936 197.934 128.026 197.969L127.837 197.97V197.779C127.835 196.592 127.834 195.369 127.832 194.118C127.832 193.492 127.832 192.859 127.832 192.222C127.832 191.903 127.832 191.582 127.832 191.26V190.776V190.533V190.412V190.351V190.321V190.306V190.299V190.295V190.293C128.221 189.902 127.941 190.184 128.028 190.097C137.691 190.125 146.332 190.15 152.053 190.167H152.181L152.179 190.292C152.15 192.636 152.127 194.511 152.11 195.841C152.098 196.449 152.087 196.932 152.08 197.296C152.07 197.623 152.062 197.788 152.053 197.779Z"
        fill="#263238" />
    <path
        d="M54.4881 112.027L47.9911 110.831C45.2088 112.587 41.9225 113.62 38.3919 113.659C28.2369 113.769 19.9157 105.627 19.8048 95.4728C19.694 85.3178 27.8361 76.9966 37.9911 76.8858C48.1454 76.7749 56.4673 84.9178 56.5782 95.072C56.6239 99.312 55.2275 103.23 52.8498 106.366L52.8581 106.36L54.4881 112.027Z"
        fill="white" />
    <path
        d="M54.488 112.027C54.488 112.027 54.4618 111.911 54.3974 111.672C54.3277 111.416 54.2304 111.059 54.1037 110.594C53.8333 109.616 53.4385 108.19 52.9269 106.34C52.9164 106.303 52.8782 106.281 52.8407 106.291C52.8318 106.294 52.8228 106.299 52.816 106.303C52.816 106.303 52.8108 106.307 52.8078 106.309L52.9067 106.408C54.3495 104.519 55.9196 101.705 56.4829 98.0189C56.7781 96.1881 56.7728 94.158 56.4043 92.056C56.041 89.9562 55.2851 87.7785 54.0558 85.7334C52.8317 83.6899 51.138 81.7834 49.0307 80.2559C46.928 78.73 44.4117 77.5786 41.6699 77.0527C38.9289 76.5448 35.9864 76.6414 33.1532 77.434C32.4326 77.5936 31.7554 77.9015 31.0565 78.1532C30.7014 78.2685 30.3823 78.4678 30.0422 78.6236C29.7103 78.7951 29.3642 78.9427 29.0413 79.1352C28.4136 79.548 27.7349 79.8926 27.1521 80.3825L26.2456 81.0762L25.4051 81.8553C20.9988 85.9777 19.0826 92.1032 19.7868 97.5148C20.1239 100.232 21.0603 102.779 22.4034 104.952C23.7451 107.13 25.4853 108.938 27.3948 110.304C31.2348 113.051 35.647 113.993 39.3132 113.734C43.0168 113.501 45.9848 112.203 48.0322 110.892L47.979 110.903C50.0997 111.272 51.7321 111.557 52.8497 111.752C53.3824 111.842 53.7921 111.913 54.0828 111.962C54.3562 112.009 54.488 112.027 54.488 112.027C54.488 112.027 54.3367 111.991 54.0543 111.935C53.7599 111.877 53.3449 111.795 52.8055 111.689C51.7036 111.475 50.0945 111.163 48.0045 110.758C47.9857 110.754 47.9662 110.758 47.9513 110.768C45.9054 112.045 42.9592 113.304 39.2982 113.512C35.6733 113.746 31.3291 112.795 27.5566 110.077C25.6808 108.725 23.9736 106.941 22.6589 104.795C21.3427 102.653 20.428 100.148 20.1014 97.4773C19.419 92.1556 21.3052 86.1455 25.6329 82.0957L26.4584 81.3302L27.3483 80.6492C27.9207 80.1675 28.5881 79.8297 29.2039 79.4237C29.52 79.2341 29.8609 79.0895 30.1867 78.921C30.5201 78.7682 30.8332 78.5719 31.1823 78.4588C31.8693 78.2116 32.5337 77.9074 33.2416 77.7509C36.0238 76.9703 38.9162 76.8714 41.61 77.3658C44.3053 77.8782 46.7811 79.0049 48.854 80.5009C50.9312 81.9984 52.6048 83.8697 53.8168 85.878C55.0342 87.8879 55.7878 90.0304 56.1563 92.1002C56.5294 94.1722 56.5466 96.1769 56.2657 97.9875C55.7331 101.632 54.2034 104.431 52.7935 106.324C52.7696 106.354 52.7756 106.399 52.8063 106.423C52.8317 106.442 52.8677 106.441 52.8924 106.423C52.8954 106.42 52.9007 106.417 52.9007 106.417L52.7898 106.38C53.3329 108.197 53.7509 109.598 54.0378 110.56C54.1794 111.029 54.2888 111.391 54.3674 111.648C54.4431 111.895 54.488 112.027 54.488 112.027Z"
        fill="#263238" />
    <path
        d="M29.6294 95.7685L32.1966 92.9286L37.6457 97.302L45.7384 88.0077L48.3857 90.5854L37.5221 102.536L29.6294 95.7685Z"
        fill="#009196" />
</svg>
