<svg width="20" height="20" viewBox="0 0 20 20" fill="none" xmlns="http://www.w3.org/2000/svg">
<path d="M7.42492 17.225C7.26659 17.225 7.10825 17.1667 6.98325 17.0417C6.74159 16.8 6.74159 16.4 6.98325 16.1583L12.4166 10.725C12.8166 10.325 12.8166 9.675 12.4166 9.275L6.98325 3.84167C6.74159 3.6 6.74159 3.2 6.98325 2.95833C7.22492 2.71667 7.62492 2.71667 7.86658 2.95833L13.2999 8.39167C13.7249 8.81667 13.9666 9.39167 13.9666 10C13.9666 10.6083 13.7333 11.1833 13.2999 11.6083L7.86658 17.0417C7.74158 17.1583 7.58325 17.225 7.42492 17.225Z" fill="#666666"/>
</svg>
