<svg width="24" height="24" viewBox="0 0 24 24" fill="none" xmlns="http://www.w3.org/2000/svg">
<path d="M12.0001 24C18.6168 24 23.9998 18.6168 23.9998 11.9999C23.9998 5.38325 18.6168 0 12.0001 0C5.38338 0 0.000244141 5.38325 0.000244141 11.9999C0.000244141 18.6168 5.38338 24 12.0001 24ZM12.0001 1.6427C17.711 1.6427 22.3571 6.28892 22.3572 11.9999C22.3572 17.711 17.7111 22.3572 12.0001 22.3573C6.28917 22.3572 1.64306 17.711 1.64306 11.9998C1.64306 6.28903 6.28917 1.6427 12.0001 1.6427Z" fill="#333333"/>
<path d="M10.3885 17.1396C10.7093 17.4603 11.2294 17.4602 11.55 17.1396C11.8709 16.8188 11.8709 16.2988 11.5499 15.9779L8.39375 12.8219L17.5334 12.821C17.987 12.8209 18.3547 12.4532 18.3547 11.9994C18.3546 11.5458 17.9869 11.1783 17.5333 11.1783L8.39331 11.1791L11.5503 8.02242C11.871 7.70165 11.871 7.18147 11.5503 6.86081C11.3898 6.70048 11.1797 6.62021 10.9694 6.62021C10.7592 6.62021 10.5491 6.70048 10.3887 6.8607L5.82971 11.4195C5.67563 11.5735 5.58911 11.7823 5.58911 12.0003C5.58922 12.2182 5.67574 12.4269 5.82982 12.5812L10.3885 17.1396Z" fill="#333333"/>
</svg>
