<svg width="24" height="24" viewBox="0 0 24 24" fill="none" xmlns="http://www.w3.org/2000/svg">
<path d="M22.0027 7.65768C21.245 6.84377 20.1028 6.37083 18.5196 6.20585V5.36995C18.5196 3.86312 17.8636 2.41129 16.7102 1.39941C15.5454 0.365533 14.03 -0.11841 12.4581 0.024573C9.75528 0.277543 7.48222 2.81825 7.48222 5.56792V6.20585C5.89899 6.37083 4.75681 6.84377 3.99912 7.65768C2.90217 8.84554 2.9361 10.4294 3.0605 11.5292L3.85211 17.6555C4.08959 19.8003 4.98298 22 9.84575 22H16.156C21.0188 22 21.9122 19.8003 22.1497 17.6665L22.9413 11.5182C23.0657 10.4294 23.0883 8.84554 22.0027 7.65768ZM12.6164 1.55339C13.7473 1.45441 14.8216 1.79537 15.6584 2.53228C16.484 3.25819 16.9476 4.29207 16.9476 5.36995V6.13986H9.05413V5.56792C9.05413 3.61015 10.7165 1.72937 12.6164 1.55339ZM8.95236 12.2661H8.94105C8.31907 12.2661 7.81017 11.7712 7.81017 11.1663C7.81017 10.5613 8.31907 10.0664 8.94105 10.0664C9.57434 10.0664 10.0832 10.5613 10.0832 11.1663C10.0832 11.7712 9.57434 12.2661 8.95236 12.2661ZM16.8685 12.2661H16.8572C16.2352 12.2661 15.7263 11.7712 15.7263 11.1663C15.7263 10.5613 16.2352 10.0664 16.8572 10.0664C17.4905 10.0664 17.9994 10.5613 17.9994 11.1663C17.9994 11.7712 17.4905 12.2661 16.8685 12.2661Z" fill="#00B106"/>
</svg>
