<svg width="28" height="28" viewBox="0 0 28 28" fill="none" xmlns="http://www.w3.org/2000/svg">
<circle cx="14" cy="14" r="12.75" fill="#00B106" stroke="white" stroke-width="1.5"/>
<path d="M17.9999 10C17.5933 10 17.2199 9.76668 17.0333 9.40668L16.5533 8.44001C16.2466 7.83334 15.4466 7.33334 14.7666 7.33334H13.2399C12.5533 7.33334 11.7533 7.83334 11.4466 8.44001L10.9666 9.40668C10.7799 9.76668 10.4066 10 9.99995 10C8.55328 10 7.40662 11.22 7.49995 12.66L7.84662 18.1667C7.92662 19.54 8.66662 20.6667 10.5066 20.6667H17.4933C19.3333 20.6667 20.0666 19.54 20.1533 18.1667L20.4999 12.66C20.5933 11.22 19.4466 10 17.9999 10ZM12.9999 10.8333H14.9999C15.2733 10.8333 15.4999 11.06 15.4999 11.3333C15.4999 11.6067 15.2733 11.8333 14.9999 11.8333H12.9999C12.7266 11.8333 12.4999 11.6067 12.4999 11.3333C12.4999 11.06 12.7266 10.8333 12.9999 10.8333ZM13.9999 18.08C12.7599 18.08 11.7466 17.0733 11.7466 15.8267C11.7466 14.58 12.7533 13.5733 13.9999 13.5733C15.2466 13.5733 16.2533 14.58 16.2533 15.8267C16.2533 17.0733 15.2399 18.08 13.9999 18.08Z" fill="white"/>
</svg>
