<svg width="28" height="28" viewBox="0 0 28 28" fill="none" xmlns="http://www.w3.org/2000/svg">
<circle cx="14" cy="14" r="14" fill="#A85CF9"/>
<path d="M18 13.1667C17.7267 13.1667 17.5 12.94 17.5 12.6667V11.3333C17.5 9.23333 16.9067 7.83333 14 7.83333C11.0933 7.83333 10.5 9.23333 10.5 11.3333V12.6667C10.5 12.94 10.2733 13.1667 10 13.1667C9.72667 13.1667 9.5 12.94 9.5 12.6667V11.3333C9.5 9.4 9.96667 6.83333 14 6.83333C18.0333 6.83333 18.5 9.4 18.5 11.3333V12.6667C18.5 12.94 18.2733 13.1667 18 13.1667Z" fill="white"/>
<path d="M8.00101 19.9957C8.06354 20.0584 8.12986 20.1151 8.19968 20.1664C8.12665 20.1145 8.0607 20.0587 8.00097 19.9989C7.94339 19.9414 7.88943 19.878 7.83912 19.8081C7.88809 19.8738 7.94189 19.9365 8.00101 19.9957ZM8.00101 13.3376C7.94189 13.3969 7.88809 13.4595 7.83912 13.5252C7.88943 13.4553 7.94339 13.392 8.00097 13.3344C8.0607 13.2747 8.12665 13.2188 8.19968 13.1669C8.12986 13.2183 8.06354 13.275 8.00101 13.3376ZM19.9988 13.3376C19.9363 13.275 19.87 13.2183 19.8002 13.1669C19.8732 13.2188 19.9391 13.2747 19.9989 13.3344C20.0564 13.392 20.1104 13.4553 20.1607 13.5252C20.1117 13.4595 20.0579 13.3969 19.9988 13.3376ZM19.9988 19.9957C20.0579 19.9365 20.1117 19.8738 20.1607 19.8081C20.1104 19.878 20.0564 19.9414 19.9989 19.9989C19.9391 20.0587 19.8732 20.1145 19.8002 20.1664C19.87 20.1151 19.9363 20.0584 19.9988 19.9957Z" fill="white" stroke="white"/>
<path d="M11.3334 17.3333C11.2467 17.3333 11.1601 17.3133 11.0801 17.28C10.9934 17.2467 10.9268 17.2 10.8601 17.14C10.7401 17.0133 10.6667 16.8467 10.6667 16.6667C10.6667 16.58 10.6867 16.4933 10.7201 16.4133C10.7534 16.3267 10.8001 16.26 10.8601 16.1933C10.9268 16.1333 10.9934 16.0867 11.0801 16.0533C11.3201 15.9467 11.6201 16.0067 11.8067 16.1933C11.8667 16.26 11.9134 16.3333 11.9468 16.4133C11.9801 16.4933 12.0001 16.58 12.0001 16.6667C12.0001 16.84 11.9267 17.0133 11.8067 17.14C11.6801 17.26 11.5067 17.3333 11.3334 17.3333Z" fill="white"/>
<path d="M13.9999 17.3334C13.8266 17.3334 13.6533 17.26 13.5266 17.14C13.4066 17.0134 13.3333 16.8467 13.3333 16.6667C13.3333 16.58 13.3466 16.4934 13.3866 16.4134C13.4199 16.3334 13.4666 16.26 13.5266 16.1934C13.6799 16.04 13.9133 15.9667 14.1266 16.0134C14.1733 16.02 14.2133 16.0333 14.2533 16.0533C14.2933 16.0667 14.3333 16.0867 14.3733 16.1134C14.4066 16.1334 14.4399 16.1667 14.4732 16.1934C14.5332 16.26 14.5799 16.3334 14.6133 16.4134C14.6466 16.4934 14.6666 16.58 14.6666 16.6667C14.6666 16.8467 14.5932 17.0134 14.4732 17.14C14.4399 17.1667 14.4066 17.1933 14.3733 17.22C14.3333 17.2467 14.2933 17.2667 14.2533 17.28C14.2133 17.3 14.1733 17.3134 14.1266 17.32C14.0866 17.3267 14.0399 17.3334 13.9999 17.3334Z" fill="white"/>
<path d="M16.6667 17.3334C16.4867 17.3334 16.32 17.26 16.1933 17.14C16.1333 17.0734 16.0867 17 16.0533 16.92C16.02 16.84 16 16.7534 16 16.6667C16 16.4934 16.0733 16.32 16.1933 16.1934C16.2267 16.1667 16.26 16.14 16.2933 16.1134C16.3333 16.0867 16.3733 16.0667 16.4133 16.0533C16.4533 16.0333 16.4933 16.02 16.5333 16.0134C16.7533 15.9667 16.98 16.04 17.14 16.1934C17.26 16.32 17.3333 16.4867 17.3333 16.6667C17.3333 16.7534 17.3133 16.84 17.28 16.92C17.2467 17.0067 17.2 17.0734 17.14 17.14C17.0133 17.26 16.84 17.3334 16.6667 17.3334Z" fill="white"/>
</svg>
