<svg width="15" height="13" viewBox="0 0 15 13" fill="none" xmlns="http://www.w3.org/2000/svg">
<path d="M7.03022 8.90004C5.43689 8.90004 4.14355 7.60671 4.14355 6.01338C4.14355 4.42004 5.43689 3.12671 7.03022 3.12671C8.62355 3.12671 9.91689 4.42004 9.91689 6.01338C9.91689 7.60671 8.62355 8.90004 7.03022 8.90004ZM7.03022 4.12671C5.99022 4.12671 5.14355 4.97338 5.14355 6.01338C5.14355 7.05338 5.99022 7.90004 7.03022 7.90004C8.07022 7.90004 8.91689 7.05338 8.91689 6.01338C8.91689 4.97338 8.07022 4.12671 7.03022 4.12671Z" fill="white"/>
<path d="M7.03 12.0267C4.52333 12.0267 2.15667 10.56 0.53 8.01333C-0.176667 6.91333 -0.176667 5.12 0.53 4.01333C2.16333 1.46667 4.53 0 7.03 0C9.53 0 11.8967 1.46667 13.5233 4.01333C14.23 5.11333 14.23 6.90667 13.5233 8.01333C11.8967 10.56 9.53 12.0267 7.03 12.0267ZM7.03 1C4.87667 1 2.81667 2.29333 1.37667 4.55333C0.876667 5.33333 0.876667 6.69333 1.37667 7.47333C2.81667 9.73333 4.87667 11.0267 7.03 11.0267C9.18333 11.0267 11.2433 9.73333 12.6833 7.47333C13.1833 6.69333 13.1833 5.33333 12.6833 4.55333C11.2433 2.29333 9.18333 1 7.03 1Z" fill="white"/>
</svg>
