<svg width="20" height="20" viewBox="0 0 20 20" fill="none" xmlns="http://www.w3.org/2000/svg">
<path d="M15.8334 18.9583C15.4917 18.9583 15.2084 18.675 15.2084 18.3333V9.16666C15.2084 8.82499 15.4917 8.54166 15.8334 8.54166C16.175 8.54166 16.4584 8.82499 16.4584 9.16666V18.3333C16.4584 18.675 16.175 18.9583 15.8334 18.9583Z" fill="#333333"/>
<path d="M15.8334 6.45832C15.4917 6.45832 15.2084 6.17499 15.2084 5.83332V1.66666C15.2084 1.32499 15.4917 1.04166 15.8334 1.04166C16.175 1.04166 16.4584 1.32499 16.4584 1.66666V5.83332C16.4584 6.17499 16.175 6.45832 15.8334 6.45832Z" fill="#333333"/>
<path d="M10 18.9583C9.65833 18.9583 9.375 18.675 9.375 18.3333V14.1667C9.375 13.825 9.65833 13.5417 10 13.5417C10.3417 13.5417 10.625 13.825 10.625 14.1667V18.3333C10.625 18.675 10.3417 18.9583 10 18.9583Z" fill="#333333"/>
<path d="M10 11.4583C9.65833 11.4583 9.375 11.175 9.375 10.8333V1.66666C9.375 1.32499 9.65833 1.04166 10 1.04166C10.3417 1.04166 10.625 1.32499 10.625 1.66666V10.8333C10.625 11.175 10.3417 11.4583 10 11.4583Z" fill="#333333"/>
<path d="M4.16663 18.9583C3.82496 18.9583 3.54163 18.675 3.54163 18.3333V9.16666C3.54163 8.82499 3.82496 8.54166 4.16663 8.54166C4.50829 8.54166 4.79163 8.82499 4.79163 9.16666V18.3333C4.79163 18.675 4.50829 18.9583 4.16663 18.9583Z" fill="#333333"/>
<path d="M4.16663 6.45832C3.82496 6.45832 3.54163 6.17499 3.54163 5.83332V1.66666C3.54163 1.32499 3.82496 1.04166 4.16663 1.04166C4.50829 1.04166 4.79163 1.32499 4.79163 1.66666V5.83332C4.79163 6.17499 4.50829 6.45832 4.16663 6.45832Z" fill="#333333"/>
<path d="M5.83333 9.79166H2.5C2.15833 9.79166 1.875 9.50832 1.875 9.16666C1.875 8.82499 2.15833 8.54166 2.5 8.54166H5.83333C6.175 8.54166 6.45833 8.82499 6.45833 9.16666C6.45833 9.50832 6.175 9.79166 5.83333 9.79166Z" fill="#333333"/>
<path d="M17.5 9.79166H14.1666C13.825 9.79166 13.5416 9.50832 13.5416 9.16666C13.5416 8.82499 13.825 8.54166 14.1666 8.54166H17.5C17.8416 8.54166 18.125 8.82499 18.125 9.16666C18.125 9.50832 17.8416 9.79166 17.5 9.79166Z" fill="#333333"/>
<path d="M11.6667 11.4583H8.33337C7.99171 11.4583 7.70837 11.175 7.70837 10.8333C7.70837 10.4917 7.99171 10.2083 8.33337 10.2083H11.6667C12.0084 10.2083 12.2917 10.4917 12.2917 10.8333C12.2917 11.175 12.0084 11.4583 11.6667 11.4583Z" fill="#333333"/>
</svg>
