<svg width="28" height="28" viewBox="0 0 28 28" fill="none" xmlns="http://www.w3.org/2000/svg">
<circle cx="14" cy="14" r="14" fill="#3E8E7E"/>
<path d="M14.0801 15.02C14.0667 15.02 14.0467 15.02 14.0334 15.02C14.0134 15.02 13.9867 15.02 13.9667 15.02C12.4534 14.9733 11.3201 13.7933 11.3201 12.34C11.3201 10.86 12.5267 9.65332 14.0067 9.65332C15.4867 9.65332 16.6934 10.86 16.6934 12.34C16.6867 13.8 15.5467 14.9733 14.1001 15.02C14.0867 15.02 14.0867 15.02 14.0801 15.02ZM14.0001 10.6467C13.0667 10.6467 12.3134 11.4067 12.3134 12.3333C12.3134 13.2467 13.0267 13.9867 13.9334 14.02C13.9534 14.0133 14.0201 14.0133 14.0867 14.02C14.9801 13.9733 15.6801 13.24 15.6867 12.3333C15.6867 11.4067 14.9334 10.6467 14.0001 10.6467Z" fill="white"/>
<path d="M14 21.1667C12.2066 21.1667 10.4933 20.5 9.16664 19.2867C9.04664 19.18 8.99331 19.02 9.00664 18.8667C9.09331 18.0733 9.58664 17.3333 10.4066 16.7867C12.3933 15.4667 15.6133 15.4667 17.5933 16.7867C18.4133 17.34 18.9066 18.0733 18.9933 18.8667C19.0133 19.0267 18.9533 19.18 18.8333 19.2867C17.5066 20.5 15.7933 21.1667 14 21.1667ZM10.0533 18.7333C11.16 19.66 12.5533 20.1667 14 20.1667C15.4466 20.1667 16.84 19.66 17.9466 18.7333C17.8266 18.3267 17.5066 17.9333 17.0333 17.6133C15.3933 16.52 12.6133 16.52 10.96 17.6133C10.4866 17.9333 10.1733 18.3267 10.0533 18.7333Z" fill="white"/>
<path fill-rule="evenodd" clip-rule="evenodd" d="M9.00664 18.8667C8.99331 19.02 9.04664 19.18 9.16664 19.2867C9.22536 19.3404 9.28484 19.393 9.34505 19.4446C10.6197 20.5359 12.2218 21.1426 13.8993 21.166C13.9328 21.1664 13.9664 21.1667 14 21.1667C14.0328 21.1667 14.0656 21.1664 14.0984 21.166C15.7767 21.1431 17.3797 20.5364 18.6549 19.4446C18.7151 19.393 18.7746 19.3404 18.8333 19.2867C18.9533 19.18 19.0133 19.0267 18.9933 18.8667C18.9826 18.7686 18.9657 18.6714 18.9427 18.5754C18.8224 18.073 18.536 17.6019 18.1053 17.1946C17.9525 17.0501 17.7815 16.9136 17.5933 16.7867C17.593 16.7865 17.5928 16.7863 17.5925 16.7861C17.5907 16.7849 17.5889 16.7838 17.5871 16.7826C15.6082 15.4677 12.3962 15.468 10.4113 16.7836C10.4097 16.7846 10.4082 16.7856 10.4066 16.7867C10.4054 16.7875 10.4041 16.7884 10.4028 16.7892C10.102 16.9902 9.84525 17.2173 9.63657 17.4635C9.34791 17.8041 9.1512 18.1812 9.05694 18.5765C9.03412 18.6723 9.0173 18.7691 9.00664 18.8667ZM10.9584 17.6144C10.958 17.6147 10.9576 17.6149 10.9572 17.6152C10.7502 17.7555 10.5739 17.9098 10.4311 18.0731C10.2484 18.2819 10.1205 18.5055 10.0533 18.7333C11.16 19.66 12.5533 20.1667 14 20.1667C15.4466 20.1667 16.84 19.66 17.9466 18.7333C17.8593 18.4372 17.6658 18.1482 17.3844 17.8893C17.281 17.7943 17.1657 17.7032 17.0394 17.6175C17.0379 17.6164 17.0363 17.6154 17.0348 17.6143C17.0343 17.614 17.0338 17.6137 17.0333 17.6133C15.3933 16.52 12.6133 16.52 10.96 17.6133C10.9595 17.6137 10.959 17.614 10.9584 17.6144Z" fill="white"/>
<path d="M13.9999 21.1667C10.0466 21.1667 6.83325 17.9533 6.83325 14C6.83325 10.0467 10.0466 6.83334 13.9999 6.83334C17.9533 6.83334 21.1666 10.0467 21.1666 14C21.1666 17.9533 17.9533 21.1667 13.9999 21.1667ZM13.9999 7.83334C10.5999 7.83334 7.83325 10.6 7.83325 14C7.83325 17.4 10.5999 20.1667 13.9999 20.1667C17.3999 20.1667 20.1666 17.4 20.1666 14C20.1666 10.6 17.3999 7.83334 13.9999 7.83334Z" fill="white"/>
</svg>
