<svg width="28" height="28" viewBox="0 0 28 28" fill="none" xmlns="http://www.w3.org/2000/svg">
<circle cx="14" cy="14" r="14" fill="#4D77FF"/>
<mask id="mask0_84_18388" style="mask-type:alpha" maskUnits="userSpaceOnUse" x="6" y="6" width="16" height="16">
<rect x="6" y="6" width="16" height="16" fill="#C4C4C4"/>
</mask>
<g mask="url(#mask0_84_18388)">
<path d="M19.601 13.6094C19.3636 13.6094 17.6474 13.6094 17.3745 13.6094V9.44921C17.3745 8.94661 16.9656 8.53776 16.463 8.53776C16.2351 8.53776 14.4438 8.53776 14.1945 8.53776C14.0388 7.84895 13.4221 7.33333 12.6872 7.33333C11.9523 7.33333 11.3357 7.84895 11.1799 8.53776C10.9308 8.53776 9.13937 8.53776 8.91146 8.53776C8.40885 8.53776 8 8.94661 8 9.44921V19.7552C8 20.2578 8.40885 20.6667 8.91146 20.6667H19.601C20.1036 20.6667 20.5125 20.2578 20.5125 19.7552V14.5208C20.5125 14.0182 20.1036 13.6094 19.601 13.6094ZM17.7083 14.3906V15.5505C17.3238 15.3148 17.3894 15.3549 17.3237 15.3148C17.1141 15.1867 16.8536 15.1867 16.6435 15.3151C16.5784 15.3549 16.6438 15.3148 16.2594 15.5505V14.3906H17.7083ZM10.682 9.31901H11.5339C11.7559 9.31901 11.9335 9.13393 11.9242 8.91171C11.904 8.48653 12.2469 8.11458 12.6872 8.11458C13.1242 8.11458 13.4707 8.48291 13.4503 8.91171C13.441 9.13445 13.6191 9.31901 13.8406 9.31901H14.6924V10.3044C14.6924 10.376 14.6341 10.4346 14.5622 10.4346H10.8122C10.7404 10.4346 10.682 10.376 10.682 10.3044V9.31901ZM13.4646 19.8854H8.91146C8.83958 19.8854 8.78125 19.8271 8.78125 19.7552V9.44921C8.78125 9.37734 8.83958 9.31901 8.91146 9.31901H9.90078V10.3044C9.90078 10.807 10.3096 11.2159 10.8122 11.2159H14.5622C15.0648 11.2159 15.4737 10.807 15.4737 10.3044V9.31901H16.463C16.5349 9.31901 16.5932 9.37734 16.5932 9.44921V13.6094C16.3188 13.6094 14.5788 13.6094 14.3667 13.6094C13.8641 13.6094 13.4552 14.0182 13.4552 14.5208V19.7552C13.4552 19.7995 13.4583 19.843 13.4646 19.8854V19.8854ZM19.7312 19.7552C19.7312 19.8271 19.6729 19.8854 19.601 19.8854C19.4587 19.8854 14.4213 19.8854 14.3667 19.8854C14.295 19.8854 14.2365 19.8271 14.2365 19.7552V14.5208C14.2365 14.449 14.295 14.3906 14.3667 14.3906H15.4781V15.7833C15.4781 16.1412 15.7681 16.4341 16.1292 16.4341C16.3385 16.4341 16.4541 16.3475 16.5932 16.2622L16.9838 16.0229L17.3745 16.2622C17.4815 16.3278 17.7854 16.559 18.1565 16.3516C18.362 16.2365 18.4896 16.0187 18.4896 15.7833V14.3906H19.601C19.6729 14.3906 19.7312 14.449 19.7312 14.5208V19.7552Z" fill="white"/>
<path d="M17.9041 17.7695C17.732 17.7695 16.2729 17.7695 16.0637 17.7695C15.8478 17.7695 15.6731 17.9443 15.6731 18.1602C15.6731 18.3758 15.8478 18.5508 16.0637 18.5508H17.9041C18.1197 18.5508 18.2947 18.3758 18.2947 18.1602C18.2947 17.9443 18.1197 17.7695 17.9041 17.7695Z" fill="white"/>
<path d="M11.3261 14.7784L10.5354 15.5274L10.3095 15.3133C10.1529 15.1649 9.90567 15.1715 9.75725 15.3281C9.60884 15.4847 9.61548 15.7319 9.77207 15.8803L10.2667 16.3491C10.4173 16.4918 10.6533 16.4919 10.804 16.3491L11.8634 15.3456C12.02 15.1973 12.0267 14.95 11.8783 14.7934C11.73 14.6367 11.4827 14.63 11.3261 14.7784V14.7784Z" fill="white"/>
<path d="M11.3261 12.1486L10.5354 12.8975L10.3095 12.6834C10.1529 12.535 9.90567 12.5416 9.75725 12.6982C9.60884 12.8548 9.61548 13.102 9.77207 13.2505L10.2667 13.7192C10.4173 13.862 10.6533 13.862 10.804 13.7193L11.8634 12.7157C12.02 12.5674 12.0267 12.3201 11.8783 12.1635C11.73 12.0069 11.4827 12.0002 11.3261 12.1486V12.1486Z" fill="white"/>
<path d="M11.3263 17.4083L10.5357 18.1572L10.3097 17.9431C10.1532 17.7947 9.90591 17.8013 9.7575 17.9579C9.60909 18.1145 9.61573 18.3617 9.77232 18.5102L10.2669 18.9789C10.4175 19.1216 10.6535 19.1217 10.8042 18.979L11.8636 17.9754C12.0203 17.8271 12.0269 17.5798 11.8786 17.4232C11.7302 17.2666 11.4829 17.2599 11.3263 17.4083V17.4083Z" fill="white"/>
<path d="M15.3335 12.8031C15.5492 12.8031 15.7241 12.6282 15.7241 12.4125C15.7241 12.1967 15.5492 12.0219 15.3335 12.0219H13.4893C13.2735 12.0219 13.0986 12.1967 13.0986 12.4125C13.0986 12.6282 13.2735 12.8031 13.4893 12.8031H15.3335Z" fill="white"/>
</g>
</svg>
