<svg width="8" height="8" viewBox="0 0 8 8" fill="none" xmlns="http://www.w3.org/2000/svg">
<path d="M7.36536 1.13403C6.95123 0.684875 6.383 0.4375 5.7652 0.4375C5.30341 0.4375 4.88049 0.583496 4.50818 0.871399C4.32031 1.01672 4.15009 1.19452 4 1.40204C3.84998 1.19458 3.67969 1.01672 3.49176 0.871399C3.11951 0.583496 2.69659 0.4375 2.2348 0.4375C1.617 0.4375 1.04871 0.684875 0.634583 1.13403C0.225403 1.57794 0 2.18439 0 2.84174C0 3.51831 0.252136 4.13763 0.793457 4.79083C1.27771 5.37512 1.97369 5.96826 2.77966 6.65509C3.05487 6.88965 3.36682 7.15552 3.69073 7.43872C3.77631 7.51367 3.88611 7.55493 4 7.55493C4.11383 7.55493 4.22369 7.51367 4.30914 7.43884C4.63306 7.15558 4.94519 6.88959 5.22052 6.65491C6.02637 5.9682 6.72235 5.37512 7.2066 4.79077C7.74792 4.13763 8 3.51831 8 2.84167C8 2.18439 7.7746 1.57794 7.36536 1.13403Z" fill="#E71B4B"/>
</svg>
