<svg width="22" height="25" viewBox="0 0 22 25" fill="none" xmlns="http://www.w3.org/2000/svg">
<path d="M10.5418 19.9375C5.36266 19.9375 1.146 15.7208 1.146 10.5417C1.146 5.3625 5.36266 1.14583 10.5418 1.14583C15.721 1.14583 19.9377 5.3625 19.9377 10.5417C19.9377 15.7208 15.721 19.9375 10.5418 19.9375ZM10.5418 2.52083C6.11433 2.52083 2.521 6.12333 2.521 10.5417C2.521 14.96 6.11433 18.5625 10.5418 18.5625C14.9693 18.5625 18.5627 14.96 18.5627 10.5417C18.5627 6.12333 14.9693 2.52083 10.5418 2.52083Z" fill="#333333"/>
<path d="M20.1665 24.1542C19.9923 24.1542 19.8182 24.09 19.6807 23.9525L17.8473 22.1192C17.5815 21.8533 17.5815 21.4133 17.8473 21.1475C18.1132 20.8817 18.5532 20.8817 18.819 21.1475L20.6523 22.9808C20.9182 23.2467 20.9182 23.6867 20.6523 23.9525C20.5148 24.09 20.3407 24.1542 20.1665 24.1542Z" fill="#333333"/>
</svg>
