<svg id="svg858" height="512" viewBox="0 0 8.4666665 8.4666669" width="512" xmlns="http://www.w3.org/2000/svg" xmlns:svg="http://www.w3.org/2000/svg"><g id="layer1" transform="translate(0 -288.533)"><path id="circle922" d="m6.3540376 289.06249c-.8736198 0-1.5880186.71439-1.5880186 1.58801l-2.4897689.008-.1607132-.84956c-.022913-.12539-.1319556-.21662-.259416-.21705h-1.05885194c-.36078584-.008-.36078584.53727 0 .52917h.83767614l.7601612 4.01784c-.0000106.001-.0000106.003 0 .004.03615.18129.1102333.35553.2402945.49764.1300613.14211.327668.24443.546735.24443h2.6385997c.2190697 0 .4166764-.10232.5467376-.24443.1300586-.14211.2020808-.31635.2382282-.49764l.4097946-2.05207c.5442453-.25227.9244912-.80292.9244912-1.44022 0-.87362-.7123324-1.58802-1.5859495-1.58802zm0 .52916c.5876343 0 1.0562643.47121 1.0562643 1.05885 0 .58763-.46863 1.05834-1.0562643 1.05834-.587637 0-1.0588519-.47071-1.0588519-1.05834 0-.58764.4712149-1.05885 1.0588519-1.05885zm-.00619.26149c-.1453118.003-.2611331.12235-.259416.26768v.26562c-.095687-.00002-.1974691 0-.2909385 0-.3531208.0183-.3257312.54794.02739.52968h.2635382v.26355c-.00802.3607.537173.3607.5291667 0v-.26355h.2635488c.3531209 0 .3531209-.52968 0-.52968h-.2635504v-.26562c.00185-.14937-.1203934-.2706-.2697507-.26768zm-3.9734119 1.32653h2.4846029c.2193395.61488.8070453 1.05833 1.494999 1.05833.03157 0 .062407-.003.093533-.005l-.3591507 1.80558c-.021167.10618-.065302.19382-.1116224.24443-.046318.0506-.082862.0723-.1560618.0723h-2.6385999c-.0732 0-.1102571-.0217-.1565777-.0723-.046011-.0503-.089776-.13711-.1111039-.24237v-.002zm.8035686 4.23437c-.2891155 0-.5291666.23799-.5291666.5271 0 .28912.2400511.52968.5291666.52968s.5296827-.24056.5296827-.52968c0-.28911-.2405672-.5271-.5296827-.5271zm2.6468679 0c-.2891181 0-.5296852.23799-.5296852.5271 0 .28912.2405671.52968.5296852.52968.2891155 0 .5291667-.24056.5291667-.52968 0-.28911-.2400512-.5271-.5291667-.5271z" font-variant-ligatures="normal" font-variant-position="normal" font-variant-caps="normal" font-variant-numeric="normal" font-variant-alternates="normal" font-feature-settings="normal" text-indent="0" text-align="start" text-decoration-line="none" text-decoration-style="solid" text-decoration-color="rgb(0,0,0)" text-transform="none" text-orientation="mixed" white-space="normal" shape-padding="0" isolation="auto" mix-blend-mode="normal" solid-color="rgb(0,0,0)" solid-opacity="1" vector-effect="none" paint-order="stroke fill markers"/></g></svg>