<svg width="24" height="24" viewBox="0 0 24 24" fill="none" xmlns="http://www.w3.org/2000/svg">
<path d="M20.9 9.05474C18.91 9.05474 18.0965 7.69865 19.086 6.03532C19.6577 5.07123 19.3168 3.84227 18.3163 3.29136L16.4143 2.24251C15.5457 1.74457 14.4243 2.04121 13.9075 2.87818L13.7866 3.07947C12.7971 4.7428 11.1699 4.7428 10.1694 3.07947L10.0485 2.87818C9.55372 2.04121 8.43228 1.74457 7.56372 2.24251L5.66167 3.29136C4.66117 3.84227 4.32034 5.08182 4.89205 6.04592C5.89255 7.69865 5.07896 9.05474 3.08896 9.05474C1.94553 9.05474 1 9.95527 1 11.0677V12.9323C1 14.0341 1.93453 14.9453 3.08896 14.9453C5.07896 14.9453 5.89255 16.3013 4.89205 17.9647C4.32034 18.9288 4.66117 20.1577 5.66167 20.7086L7.56372 21.7575C8.43228 22.2554 9.55372 21.9588 10.0705 21.1218L10.1914 20.9205C11.1809 19.2572 12.8081 19.2572 13.8086 20.9205L13.9295 21.1218C14.4463 21.9588 15.5677 22.2554 16.4363 21.7575L18.3383 20.7086C19.3388 20.1577 19.6797 18.9182 19.1079 17.9647C18.1074 16.3013 18.921 14.9453 20.911 14.9453C22.0545 14.9453 23 14.0447 23 12.9323V11.0677C22.989 9.96586 22.0545 9.05474 20.9 9.05474ZM11.9945 15.4432C10.0265 15.4432 8.42129 13.8964 8.42129 12C8.42129 10.1036 10.0265 8.5568 11.9945 8.5568C13.9625 8.5568 15.5677 10.1036 15.5677 12C15.5677 13.8964 13.9625 15.4432 11.9945 15.4432Z" fill="#00B106"/>
</svg>
