<svg width="28" height="28" viewBox="0 0 28 28" fill="none" xmlns="http://www.w3.org/2000/svg">
<circle cx="14" cy="14" r="14" fill="#65C18C"/>
<path d="M13.9999 15.4467C12.5799 15.4467 11.4199 14.2933 11.4199 12.8667C11.4199 11.44 12.5799 10.2933 13.9999 10.2933C15.4199 10.2933 16.5799 11.4467 16.5799 12.8733C16.5799 14.3 15.4199 15.4467 13.9999 15.4467ZM13.9999 11.2933C13.1333 11.2933 12.4199 12 12.4199 12.8733C12.4199 13.7467 13.1266 14.4533 13.9999 14.4533C14.8733 14.4533 15.5799 13.7467 15.5799 12.8733C15.5799 12 14.8666 11.2933 13.9999 11.2933Z" fill="white"/>
<path d="M14.0001 21.1733C13.0135 21.1733 12.0201 20.8 11.2468 20.06C9.28012 18.1667 7.10678 15.1467 7.92678 11.5533C8.66678 8.29333 11.5135 6.83333 14.0001 6.83333C14.0001 6.83333 14.0001 6.83333 14.0068 6.83333C16.4935 6.83333 19.3401 8.29333 20.0801 11.56C20.8934 15.1533 18.7201 18.1667 16.7534 20.06C15.9801 20.8 14.9868 21.1733 14.0001 21.1733ZM14.0001 7.83333C12.0601 7.83333 9.56678 8.86666 8.90678 11.7733C8.18678 14.9133 10.1601 17.62 11.9468 19.3333C13.1001 20.4467 14.9068 20.4467 16.0601 19.3333C17.8401 17.62 19.8134 14.9133 19.1068 11.7733C18.4401 8.86666 15.9401 7.83333 14.0001 7.83333Z" fill="white"/>
</svg>
