<svg width="12" height="12" viewBox="0 0 12 12" fill="none" xmlns="http://www.w3.org/2000/svg">
<path d="M9.6 7.44C9.47999 7.56 9.42 7.86 9.42 7.98L9.77999 9.54C10.02 10.56 9.66 10.98 9.42 11.16C9.3 11.22 9.12 11.34 8.81999 11.34C8.58 11.34 8.22 11.28 7.79999 10.98L6.29999 10.08C6.12 10.02 5.81999 10.02 5.7 10.08L4.2 10.98C3.3 11.52 2.82 11.28 2.58 11.16C2.34 10.98 1.98 10.56 2.22 9.54L2.58 7.98C2.64 7.8 2.52 7.56 2.4 7.44L1.14 6.18C0.539995 5.58 0.539995 5.04 0.659995 4.8C0.779995 4.56 1.02 4.08 1.86 3.96L3.48 3.72C3.66 3.72 3.84 3.54 3.9 3.42L4.8 1.56C5.22 0.780004 5.7 0.660004 6 0.660004C6.29999 0.660004 6.77999 0.780004 7.2 1.56L8.1 3.3C8.16 3.42 8.39999 3.6 8.52 3.6L10.14 3.84C10.98 3.96 11.28 4.44 11.34 4.68C11.4 4.92 11.46 5.46 10.86 6.12L9.6 7.44Z" fill="#F8B400"/>
</svg>
