<svg width="28" height="28" viewBox="0 0 28 28" fill="none" xmlns="http://www.w3.org/2000/svg">
<circle cx="14" cy="14" r="14" fill="#FFD158"/>
<path d="M17.3677 12.109C17.3097 12.109 17.254 12.132 17.213 12.1731C17.172 12.2141 17.1489 12.2697 17.1489 12.3277V12.8431C17.1489 12.9011 17.172 12.9568 17.213 12.9978C17.254 13.0388 17.3097 13.0619 17.3677 13.0619C17.4257 13.0619 17.4813 13.0388 17.5224 12.9978C17.5634 12.9568 17.5864 12.9011 17.5864 12.8431V12.3277C17.5864 12.299 17.5808 12.2706 17.5698 12.244C17.5588 12.2175 17.5427 12.1933 17.5224 12.173C17.5021 12.1527 17.478 12.1366 17.4514 12.1256C17.4249 12.1146 17.3964 12.109 17.3677 12.109Z" fill="white"/>
<path d="M17.3677 13.5236C17.3097 13.5236 17.254 13.5467 17.213 13.5877C17.172 13.6287 17.1489 13.6844 17.1489 13.7424V14.2576C17.1489 14.3156 17.172 14.3713 17.213 14.4123C17.254 14.4533 17.3097 14.4764 17.3677 14.4764C17.4257 14.4764 17.4813 14.4533 17.5224 14.4123C17.5634 14.3713 17.5864 14.3156 17.5864 14.2576V13.7424C17.5864 13.7136 17.5808 13.6852 17.5698 13.6586C17.5588 13.6321 17.5427 13.608 17.5224 13.5877C17.5021 13.5673 17.478 13.5512 17.4514 13.5402C17.4249 13.5293 17.3964 13.5236 17.3677 13.5236Z" fill="white"/>
<path d="M17.3677 14.9381C17.3097 14.9381 17.254 14.9612 17.213 15.0022C17.172 15.0432 17.1489 15.0989 17.1489 15.1569V15.6722C17.1489 15.7303 17.172 15.7859 17.213 15.8269C17.254 15.868 17.3097 15.891 17.3677 15.891C17.4257 15.891 17.4813 15.868 17.5224 15.8269C17.5634 15.7859 17.5864 15.7303 17.5864 15.6722V15.1569C17.5864 15.1281 17.5808 15.0997 17.5698 15.0731C17.5588 15.0466 17.5427 15.0225 17.5224 15.0022C17.5021 14.9818 17.478 14.9657 17.4514 14.9547C17.4249 14.9438 17.3964 14.9381 17.3677 14.9381Z" fill="white"/>
<path d="M20.6491 9.19925H18.8616C18.8328 9.19923 18.8044 9.20488 18.7778 9.21587C18.7513 9.22685 18.7272 9.24297 18.7069 9.26328C18.6865 9.2836 18.6704 9.30772 18.6594 9.33427C18.6485 9.36082 18.6428 9.38927 18.6428 9.418C18.6428 9.75615 18.5085 10.0805 18.2694 10.3196C18.0303 10.5587 17.706 10.693 17.3678 10.693C17.0297 10.693 16.7054 10.5587 16.4663 10.3196C16.2272 10.0805 16.0928 9.75615 16.0928 9.418C16.0928 9.38927 16.0872 9.36082 16.0762 9.33427C16.0652 9.30772 16.0491 9.2836 16.0288 9.26328C16.0085 9.24297 15.9844 9.22685 15.9578 9.21587C15.9313 9.20488 15.9028 9.19923 15.8741 9.19925H7.35083C7.14369 9.19945 6.94509 9.28182 6.79862 9.42829C6.65215 9.57476 6.56978 9.77336 6.56958 9.9805V18.0195C6.56978 18.2266 6.65215 18.4252 6.79862 18.5717C6.94509 18.7182 7.14369 18.8006 7.35083 18.8007H15.874C15.9027 18.8008 15.9311 18.7951 15.9577 18.7841C15.9842 18.7731 16.0084 18.757 16.0287 18.7367C16.049 18.7164 16.0651 18.6923 16.0761 18.6657C16.0871 18.6392 16.0927 18.6107 16.0927 18.582C16.0927 18.2438 16.227 17.9195 16.4661 17.6804C16.7053 17.4413 17.0296 17.307 17.3677 17.307C17.7059 17.307 18.0302 17.4413 18.2693 17.6804C18.5084 17.9195 18.6427 18.2438 18.6427 18.582C18.6427 18.6107 18.6483 18.6392 18.6593 18.6657C18.6703 18.6923 18.6864 18.7164 18.7067 18.7367C18.7271 18.757 18.7512 18.7731 18.7777 18.7841C18.8043 18.7951 18.8327 18.8008 18.8615 18.8007H20.649C20.8561 18.8006 21.0547 18.7182 21.2012 18.5717C21.3476 18.4252 21.43 18.2266 21.4302 18.0195V9.9805C21.43 9.77338 21.3476 9.5748 21.2012 9.42834C21.0548 9.28187 20.8562 9.19948 20.6491 9.19925ZM20.9928 18.0195C20.9928 18.1106 20.9565 18.198 20.8921 18.2625C20.8276 18.3269 20.7402 18.3632 20.6491 18.3632H19.0665C19.0173 17.9881 18.8455 17.6398 18.5779 17.3725C18.3102 17.1051 17.9616 16.9338 17.5865 16.8851V16.5712C17.5865 16.5132 17.5634 16.4576 17.5224 16.4166C17.4814 16.3755 17.4257 16.3525 17.3677 16.3525C17.3097 16.3525 17.254 16.3755 17.213 16.4166C17.172 16.4576 17.149 16.5132 17.149 16.5712V16.8851C16.7738 16.9338 16.4253 17.1052 16.1576 17.3725C15.89 17.6398 15.7182 17.9882 15.6691 18.3632H7.35083C7.25968 18.3632 7.17229 18.3269 7.10784 18.2625C7.04338 18.198 7.00715 18.1106 7.00708 18.0195V9.9805C7.00715 9.88935 7.04338 9.80196 7.10784 9.7375C7.17229 9.67305 7.25968 9.63682 7.35083 9.63675H15.6691C15.7182 10.0118 15.89 10.3601 16.1576 10.6275C16.4253 10.8948 16.7738 11.0662 17.149 11.1149V11.4287C17.149 11.4868 17.172 11.5424 17.213 11.5834C17.254 11.6245 17.3097 11.6475 17.3677 11.6475C17.4257 11.6475 17.4814 11.6245 17.5224 11.5834C17.5634 11.5424 17.5865 11.4868 17.5865 11.4287V11.1149C17.9616 11.0662 18.3102 10.8949 18.5779 10.6275C18.8455 10.3602 19.0173 10.0119 19.0665 9.63675H20.6491C20.7402 9.63682 20.8276 9.67305 20.8921 9.7375C20.9565 9.80196 20.9928 9.88935 20.9928 9.9805V18.0195Z" fill="white"/>
<path d="M14.4644 13.3445H14.065C14.0327 13.2464 13.993 13.1509 13.9463 13.0587L14.2289 12.7761C14.2492 12.7558 14.2654 12.7317 14.2764 12.7052C14.2874 12.6786 14.293 12.6502 14.293 12.6214C14.293 12.5927 14.2874 12.5643 14.2764 12.5377C14.2654 12.5112 14.2492 12.4871 14.2289 12.4667L13.6113 11.8491C13.591 11.8288 13.5669 11.8127 13.5403 11.8017C13.5138 11.7907 13.4853 11.785 13.4566 11.785C13.4279 11.785 13.3994 11.7907 13.3729 11.8017C13.3463 11.8127 13.3222 11.8288 13.3019 11.8491L13.0193 12.1317C12.9271 12.0849 12.8316 12.0452 12.7334 12.0129V11.6136C12.7334 11.5849 12.7278 11.5564 12.7168 11.5299C12.7058 11.5033 12.6897 11.4792 12.6694 11.4589C12.6491 11.4386 12.6249 11.4225 12.5984 11.4115C12.5718 11.4005 12.5434 11.3949 12.5147 11.3949H11.6413C11.6125 11.3949 11.5841 11.4005 11.5575 11.4115C11.531 11.4225 11.5069 11.4386 11.4866 11.4589C11.4662 11.4792 11.4501 11.5033 11.4391 11.5299C11.4282 11.5564 11.4225 11.5849 11.4225 11.6136V12.0136C11.3246 12.0461 11.2292 12.0857 11.1372 12.1321L10.854 11.8491C10.8337 11.8288 10.8096 11.8127 10.7831 11.8017C10.7565 11.7907 10.7281 11.785 10.6993 11.785C10.6706 11.785 10.6422 11.7907 10.6156 11.8017C10.5891 11.8127 10.565 11.8288 10.5447 11.8491L9.92715 12.4667C9.90682 12.4871 9.89069 12.5112 9.87969 12.5377C9.86868 12.5643 9.86302 12.5927 9.86302 12.6214C9.86302 12.6502 9.86868 12.6786 9.87969 12.7052C9.89069 12.7317 9.90682 12.7558 9.92715 12.7761L10.2102 13.0591C10.1637 13.1512 10.1241 13.2466 10.0917 13.3445H9.69165C9.66292 13.3445 9.63447 13.3501 9.60792 13.3611C9.58137 13.3721 9.55725 13.3882 9.53693 13.4085C9.51662 13.4288 9.50051 13.453 9.48952 13.4795C9.47853 13.5061 9.47288 13.5345 9.4729 13.5632V14.4367C9.47288 14.4655 9.47853 14.4939 9.48952 14.5205C9.50051 14.547 9.51662 14.5711 9.53693 14.5915C9.55725 14.6118 9.58137 14.6279 9.60792 14.6389C9.63447 14.6499 9.66292 14.6555 9.69165 14.6555H10.0908C10.1232 14.7536 10.1629 14.8491 10.2097 14.9412L9.92715 15.2239C9.90682 15.2442 9.89069 15.2683 9.87969 15.2948C9.86868 15.3214 9.86302 15.3498 9.86302 15.3786C9.86302 15.4073 9.86868 15.4357 9.87969 15.4623C9.89069 15.4888 9.90682 15.5129 9.92715 15.5332L10.5447 16.1509C10.565 16.1712 10.5891 16.1873 10.6156 16.1983C10.6422 16.2093 10.6706 16.215 10.6993 16.215C10.7281 16.215 10.7565 16.2093 10.7831 16.1983C10.8096 16.1873 10.8337 16.1712 10.854 16.1509L11.1374 15.8682C11.2295 15.915 11.325 15.9548 11.4232 15.9871V16.3864C11.4231 16.4151 11.4288 16.4436 11.4398 16.4701C11.4508 16.4967 11.4669 16.5208 11.4872 16.5411C11.5075 16.5614 11.5316 16.5775 11.5582 16.5885C11.5847 16.5995 11.6132 16.6051 11.6419 16.6051H12.5153C12.544 16.6051 12.5725 16.5995 12.599 16.5885C12.6256 16.5775 12.6497 16.5614 12.67 16.5411C12.6903 16.5208 12.7064 16.4967 12.7174 16.4701C12.7284 16.4436 12.734 16.4151 12.734 16.3864V15.9864C12.8319 15.9539 12.9273 15.9143 13.0194 15.8679L13.3025 16.1509C13.3228 16.1712 13.3469 16.1873 13.3735 16.1983C13.4 16.2093 13.4285 16.215 13.4572 16.215C13.4859 16.215 13.5144 16.2093 13.5409 16.1983C13.5675 16.1873 13.5916 16.1712 13.6119 16.1509L14.2295 15.5332C14.2499 15.5129 14.266 15.4888 14.277 15.4623C14.288 15.4357 14.2937 15.4073 14.2937 15.3786C14.2937 15.3498 14.288 15.3214 14.277 15.2948C14.266 15.2683 14.2499 15.2442 14.2295 15.2239L13.9464 14.9409C13.9929 14.8488 14.0325 14.7534 14.0649 14.6555H14.4649C14.4936 14.6555 14.5221 14.6499 14.5486 14.6389C14.5752 14.6279 14.5993 14.6118 14.6196 14.5915C14.6399 14.5711 14.656 14.547 14.667 14.5205C14.678 14.4939 14.6837 14.4655 14.6837 14.4367V13.5632C14.6837 13.5345 14.678 13.506 14.667 13.4794C14.656 13.4528 14.6398 13.4287 14.6194 13.4084C14.5991 13.388 14.5749 13.3719 14.5483 13.361C14.5217 13.35 14.4932 13.3444 14.4644 13.3445ZM14.2457 14.218H13.8992C13.85 14.2181 13.8024 14.2347 13.7638 14.2652C13.7253 14.2956 13.6981 14.3381 13.6867 14.3859C13.6461 14.5549 13.5788 14.7164 13.4874 14.8642C13.4617 14.9061 13.4508 14.9555 13.4565 15.0043C13.4623 15.0532 13.4844 15.0986 13.5192 15.1334L13.7644 15.3785L13.4565 15.6875L13.2114 15.4424C13.1767 15.4076 13.1312 15.3855 13.0824 15.3798C13.0336 15.374 12.9843 15.3849 12.9424 15.4106C12.7944 15.5017 12.6329 15.5687 12.4639 15.609C12.4161 15.6204 12.3736 15.6476 12.3431 15.6862C12.3126 15.7247 12.296 15.7724 12.2959 15.8215V16.168H11.86V15.8219C11.8599 15.7727 11.8433 15.725 11.8128 15.6864C11.7823 15.6479 11.7396 15.6207 11.6918 15.6094C11.5229 15.5692 11.3615 15.5021 11.2139 15.4107C11.172 15.3848 11.1226 15.3738 11.0737 15.3796C11.0247 15.3853 10.9792 15.4074 10.9444 15.4422L10.6999 15.6875L10.3912 15.3785L10.636 15.1336C10.6708 15.0988 10.6929 15.0533 10.6986 15.0043C10.7043 14.9554 10.6934 14.906 10.6675 14.8641C10.5762 14.7164 10.5091 14.555 10.4688 14.3861C10.4574 14.3383 10.4302 14.2957 10.3917 14.2652C10.3531 14.2347 10.3054 14.2181 10.2563 14.218H9.9104V13.782H10.2569C10.306 13.7819 10.3537 13.7653 10.3922 13.7348C10.4308 13.7043 10.458 13.6618 10.4694 13.614C10.5097 13.445 10.5766 13.2836 10.6678 13.1357C10.6935 13.0939 10.7044 13.0445 10.6986 12.9957C10.6929 12.9468 10.6708 12.9014 10.636 12.8666L10.3912 12.6215L10.6999 12.3131L10.9452 12.5582C10.9799 12.5931 11.0253 12.6152 11.0742 12.6209C11.123 12.6267 11.1724 12.6158 11.2143 12.59C11.3622 12.499 11.5236 12.432 11.6925 12.3916C11.7403 12.3802 11.7829 12.353 11.8133 12.3145C11.8438 12.2759 11.8604 12.2283 11.8605 12.1791V11.8324H12.2964V12.1781C12.2965 12.2273 12.3132 12.275 12.3437 12.3135C12.3742 12.3521 12.4168 12.3792 12.4647 12.3906C12.6336 12.4307 12.795 12.4978 12.9427 12.5891C12.9845 12.6151 13.034 12.6262 13.0829 12.6204C13.1319 12.6147 13.1774 12.5926 13.2122 12.5576L13.457 12.3127L13.7654 12.6211L13.5204 12.866C13.4856 12.9008 13.4635 12.9464 13.4578 12.9953C13.4521 13.0442 13.463 13.0936 13.4889 13.1355C13.5803 13.2832 13.6474 13.4445 13.6877 13.6135C13.699 13.6613 13.7262 13.7039 13.7647 13.7344C13.8033 13.7649 13.851 13.7816 13.9002 13.7816H14.2459L14.2457 14.218Z" fill="white"/>
<path d="M12.0781 12.7935C11.8395 12.7935 11.6062 12.8643 11.4078 12.9968C11.2094 13.1294 11.0547 13.3178 10.9634 13.5383C10.8721 13.7588 10.8482 14.0013 10.8948 14.2354C10.9413 14.4694 11.0562 14.6844 11.225 14.8531C11.3937 15.0219 11.6087 15.1368 11.8427 15.1833C12.0767 15.2299 12.3193 15.206 12.5398 15.1147C12.7602 15.0233 12.9487 14.8687 13.0813 14.6703C13.2138 14.4719 13.2846 14.2386 13.2846 14C13.2842 13.6801 13.157 13.3735 12.9308 13.1473C12.7046 12.9211 12.398 12.7939 12.0781 12.7935ZM12.0781 14.7685C11.926 14.7685 11.7773 14.7234 11.6508 14.6389C11.5243 14.5543 11.4258 14.4342 11.3676 14.2937C11.3094 14.1531 11.2942 13.9985 11.3239 13.8493C11.3536 13.7001 11.4269 13.5631 11.5345 13.4556C11.6421 13.348 11.7792 13.2748 11.9284 13.2452C12.0776 13.2156 12.2322 13.2309 12.3727 13.2892C12.5132 13.3475 12.6333 13.4461 12.7177 13.5726C12.8022 13.6992 12.8472 13.8479 12.8471 14C12.8469 14.2039 12.7658 14.3994 12.6216 14.5435C12.4775 14.6877 12.282 14.7688 12.0781 14.769V14.7685Z" fill="white"/>
</svg>
