<svg width="22" height="22" viewBox="0 0 22 22" fill="none" xmlns="http://www.w3.org/2000/svg">
<path d="M19.2501 6.16916C19.2318 6.16916 19.2043 6.16916 19.1768 6.16916C14.3276 5.68332 9.48764 5.49999 4.69347 5.98582L2.82347 6.16916C2.43847 6.20582 2.0993 5.93082 2.06264 5.54582C2.02597 5.16082 2.30097 4.83082 2.6768 4.79415L4.5468 4.61082C9.42347 4.11582 14.3643 4.30832 19.3143 4.79415C19.6901 4.83082 19.9651 5.16999 19.9285 5.54582C19.901 5.90332 19.5985 6.16916 19.2501 6.16916Z" fill="#FF4065"/>
<path d="M7.7917 5.2434C7.75503 5.2434 7.71836 5.2434 7.67253 5.23424C7.30586 5.17007 7.0492 4.81257 7.11336 4.4459L7.31503 3.24507C7.4617 2.36507 7.66336 1.1459 9.7992 1.1459H12.2009C14.3459 1.1459 14.5475 2.4109 14.685 3.25424L14.8867 4.4459C14.9509 4.82174 14.6942 5.17924 14.3275 5.23424C13.9517 5.29841 13.5942 5.04174 13.5392 4.67507L13.3375 3.4834C13.2092 2.6859 13.1817 2.53007 12.21 2.53007H9.80836C8.8367 2.53007 8.81836 2.6584 8.68086 3.47424L8.47003 4.6659C8.41503 5.00507 8.1217 5.2434 7.7917 5.2434Z" fill="#FF4065"/>
<path d="M13.9424 20.8546H8.05742C4.85825 20.8546 4.72992 19.0855 4.62908 17.6555L4.03325 8.42463C4.00575 8.0488 4.29908 7.7188 4.67492 7.6913C5.05992 7.67297 5.38075 7.95713 5.40825 8.33297L6.00408 17.5638C6.10492 18.9571 6.14158 19.4796 8.05742 19.4796H13.9424C15.8674 19.4796 15.9041 18.9571 15.9957 17.5638L16.5916 8.33297C16.6191 7.95713 16.9491 7.67297 17.3249 7.6913C17.7007 7.7188 17.9941 8.03963 17.9666 8.42463L17.3707 17.6555C17.2699 19.0855 17.1416 20.8546 13.9424 20.8546Z" fill="#FF4065"/>
<path d="M12.5216 15.8125H9.46912C9.09328 15.8125 8.78162 15.5008 8.78162 15.125C8.78162 14.7492 9.09328 14.4375 9.46912 14.4375H12.5216C12.8974 14.4375 13.2091 14.7492 13.2091 15.125C13.2091 15.5008 12.8974 15.8125 12.5216 15.8125Z" fill="#FF4065"/>
<path d="M13.2916 12.1459H8.70828C8.33245 12.1459 8.02078 11.8342 8.02078 11.4584C8.02078 11.0826 8.33245 10.7709 8.70828 10.7709H13.2916C13.6675 10.7709 13.9791 11.0826 13.9791 11.4584C13.9791 11.8342 13.6675 12.1459 13.2916 12.1459Z" fill="#FF4065"/>
</svg>
