<svg width="20" height="21" viewBox="0 0 20 21" fill="none" xmlns="http://www.w3.org/2000/svg">
    <path
        d="M9.15999 13.429C9.15999 12.9688 9.53309 12.5957 9.99333 12.5957H10.0008C10.461 12.5957 10.8341 12.9688 10.8341 13.429C10.8341 13.8893 10.461 14.2624 10.0008 14.2624H9.99333C9.53309 14.2624 9.15999 13.8893 9.15999 13.429Z"
        fill="#F9A51A" />
    <path
        d="M9.37484 10.929C9.37484 11.2742 9.65466 11.554 9.99984 11.554C10.345 11.554 10.6248 11.2742 10.6248 10.929V7.5957C10.6248 7.25052 10.345 6.9707 9.99984 6.9707C9.65466 6.9707 9.37484 7.25052 9.37484 7.5957V10.929Z"
        fill="#F9A51A" />
    <path fill-rule="evenodd" clip-rule="evenodd"
        d="M1.0415 10.929C1.0415 5.98149 5.05229 1.9707 9.99984 1.9707C14.9474 1.9707 18.9582 5.98149 18.9582 10.929C18.9582 15.8766 14.9474 19.8874 9.99984 19.8874C5.05229 19.8874 1.0415 15.8766 1.0415 10.929ZM9.99984 3.2207C5.74264 3.2207 2.2915 6.67184 2.2915 10.929C2.2915 15.1862 5.74264 18.6374 9.99984 18.6374C14.257 18.6374 17.7082 15.1862 17.7082 10.929C17.7082 6.67184 14.257 3.2207 9.99984 3.2207Z"
        fill="#F9A51A" />
</svg>
