<?xml version="1.0" encoding="UTF-8"?>
<svg xmlns="http://www.w3.org/2000/svg" xmlns:xlink="http://www.w3.org/1999/xlink" width="480pt"
    height="480pt" viewBox="0 0 480 480" version="1.1">
    <g id="surface1">
        <path style=" stroke:none;fill-rule:nonzero;fill:#42A5F5;fill-opacity:1;"
            d="M 400.839844 326.128906 C 392.359375 344.480469 388.300781 352.679688 377.421875 368.871094 C 362.210938 391.511719 340.71875 419.761719 314.160156 419.960938 C 290.550781 420.140625 284.449219 404.890625 252.398438 405.140625 C 220.359375 405.300781 213.679688 420.238281 190.03125 419.980469 C 163.488281 419.761719 143.148438 394.300781 127.929688 371.71875 C 85.339844 308.320313 80.859375 234.039063 107.171875 194.511719 C 125.78125 166.480469 155.238281 150.019531 182.890625 150.019531 C 211.058594 150.019531 228.769531 165.160156 252.050781 165.160156 C 274.671875 165.160156 288.429688 149.988281 321.011719 149.988281 C 345.648438 149.988281 371.710938 163.121094 390.320313 185.738281 C 329.421875 218.359375 339.308594 303.371094 400.839844 326.128906 Z " />
        <path style=" stroke:none;fill-rule:nonzero;fill:#42A5F5;fill-opacity:1;"
            d="M 300.460938 120.71875 C 313.148438 104.949219 322.78125 82.679688 319.28125 60 C 298.589844 61.378906 274.371094 74.179688 260.230469 90.75 C 247.410156 105.851563 236.78125 128.269531 240.921875 149.96875 C 263.511719 150.660156 286.890625 137.640625 300.460938 120.71875 Z " />
        <path style=" stroke:none;fill-rule:nonzero;fill:#1E88E5;fill-opacity:1;"
            d="M 367.359375 204.210938 C 280 300.011719 200 210.011719 92.28125 278.421875 C 96.03125 308.691406 107.578125 341.449219 127.929688 371.730469 C 143.140625 394.308594 163.488281 419.769531 190.03125 419.988281 C 213.679688 420.238281 220.359375 405.300781 252.398438 405.148438 C 284.449219 404.910156 290.539063 420.148438 314.160156 419.96875 C 340.71875 419.761719 362.210938 391.511719 377.421875 368.878906 C 388.300781 352.691406 392.359375 344.488281 400.839844 326.140625 C 348.78125 306.878906 333.890625 243.140625 367.359375 204.210938 Z " />
    </g>
</svg>
