<?xml version="1.0" encoding="UTF-8"?>
<svg xmlns="http://www.w3.org/2000/svg" xmlns:xlink="http://www.w3.org/1999/xlink" width="500pt"
    height="500pt" viewBox="0 0 500 500" version="1.1">
    <g id="surface1">
        <path style=" stroke:none;fill-rule:nonzero;fill:#000000;fill-opacity:1;"
            d="M 248.015625 19.839844 C 176.90625 19.839844 119.046875 77.699219 119.046875 148.808594 L 119.046875 208.332031 L 79.363281 208.332031 C 63.050781 208.332031 49.601563 221.78125 49.601563 238.09375 L 49.601563 466.269531 C 49.601563 482.585938 63.050781 496.03125 79.363281 496.03125 L 416.667969 496.03125 C 432.980469 496.03125 446.429688 482.585938 446.429688 466.269531 L 446.429688 238.09375 C 446.429688 221.78125 432.980469 208.332031 416.667969 208.332031 L 376.984375 208.332031 L 376.984375 148.808594 C 376.984375 77.699219 319.125 19.839844 248.015625 19.839844 Z M 248.015625 39.683594 C 308.390625 39.683594 357.144531 88.433594 357.144531 148.808594 L 357.144531 208.332031 L 138.890625 208.332031 L 138.890625 148.808594 C 138.890625 88.433594 187.640625 39.683594 248.015625 39.683594 Z M 79.363281 228.175781 L 416.667969 228.175781 C 422.285156 228.175781 426.585938 232.476563 426.585938 238.09375 L 426.585938 466.269531 C 426.585938 471.890625 422.285156 476.191406 416.667969 476.191406 L 79.363281 476.191406 C 73.746094 476.191406 69.445313 471.890625 69.445313 466.269531 L 69.445313 238.09375 C 69.445313 232.476563 73.746094 228.175781 79.363281 228.175781 Z M 128.96875 337.300781 C 118 337.300781 109.128906 346.175781 109.128906 357.144531 C 109.128906 368.109375 118 376.984375 128.96875 376.984375 C 139.933594 376.984375 148.808594 368.109375 148.808594 357.144531 C 148.808594 346.175781 139.933594 337.300781 128.96875 337.300781 Z M 208.332031 337.300781 C 197.367188 337.300781 188.492188 346.175781 188.492188 357.144531 C 188.492188 368.109375 197.367188 376.984375 208.332031 376.984375 C 219.300781 376.984375 228.175781 368.109375 228.175781 357.144531 C 228.175781 346.175781 219.300781 337.300781 208.332031 337.300781 Z M 287.699219 337.300781 C 276.730469 337.300781 267.855469 346.175781 267.855469 357.144531 C 267.855469 368.109375 276.730469 376.984375 287.699219 376.984375 C 298.664063 376.984375 307.539063 368.109375 307.539063 357.144531 C 307.539063 346.175781 298.664063 337.300781 287.699219 337.300781 Z M 367.0625 337.300781 C 356.097656 337.300781 347.222656 346.175781 347.222656 357.144531 C 347.222656 368.109375 356.097656 376.984375 367.0625 376.984375 C 378.03125 376.984375 386.90625 368.109375 386.90625 357.144531 C 386.90625 346.175781 378.03125 337.300781 367.0625 337.300781 Z " />
    </g>
</svg>
