<svg width="24" height="24" viewBox="0 0 24 24" fill="none" xmlns="http://www.w3.org/2000/svg">
    <path fill-rule="evenodd" clip-rule="evenodd"
        d="M1.79778 1.31844C1.38356 1.31844 1.04778 1.65422 1.04778 2.06844C1.04778 2.48265 1.38356 2.81844 1.79778 2.81844L2.76378 2.81844C3.37967 2.81844 3.89417 3.2242 4.0347 3.77028L7.00996 15.3318C7.10207 15.6898 7.02443 16.0711 6.79235 16.3717L6.05244 17.3301C5.96859 17.3224 5.88364 17.3184 5.79778 17.3184C4.27899 17.3184 3.04778 18.5497 3.04778 20.0684C3.04778 21.5872 4.27899 22.8184 5.79778 22.8184C7.05656 22.8184 8.1178 21.9727 8.44426 20.8184L14.1513 20.8184C14.4778 21.9727 15.539 22.8184 16.7978 22.8184C18.3166 22.8184 19.5478 21.5872 19.5478 20.0684C19.5478 18.5497 18.3166 17.3184 16.7978 17.3184C15.539 17.3184 14.4778 18.1642 14.1513 19.3184L8.44426 19.3184C8.28456 18.7538 7.94904 18.263 7.50058 17.9089L7.97968 17.2883C8.1027 17.129 8.20653 16.9584 8.2904 16.7801L16.5802 16.0892C17.9368 15.9762 19.029 15.7656 19.7724 15.0423C20.5158 14.3191 20.7564 13.2331 20.9067 11.8802L21.4691 6.81844L21.7978 6.81844C22.212 6.81844 22.5478 6.48265 22.5478 6.06844C22.5478 5.65422 22.212 5.31844 21.7978 5.31844L5.98198 5.31844L5.48737 3.39645C5.16966 2.16186 4.03726 1.31844 2.76378 1.31844L1.79778 1.31844ZM6.36799 6.81844L8.46263 14.958C8.48802 15.0567 8.50765 15.156 8.52164 15.2556L16.4556 14.5944C17.8275 14.4801 18.4058 14.2791 18.7264 13.9672C19.047 13.6553 19.2638 13.0828 19.4159 11.7145L19.9599 6.81844L6.36799 6.81844ZM5.79778 18.8184C5.10742 18.8184 4.54778 19.3781 4.54778 20.0684C4.54778 20.7588 5.10742 21.3184 5.79778 21.3184C6.48813 21.3184 7.04778 20.7588 7.04778 20.0684C7.04778 19.3781 6.48813 18.8184 5.79778 18.8184ZM16.7978 21.3184C16.1074 21.3184 15.5478 20.7588 15.5478 20.0684C15.5478 19.3781 16.1074 18.8184 16.7978 18.8184C17.4881 18.8184 18.0478 19.3781 18.0478 20.0684C18.0478 20.7588 17.4881 21.3184 16.7978 21.3184Z"
        fill="#030303" />
</svg>
