<svg width="12" height="15" viewBox="0 0 12 15" fill="none" xmlns="http://www.w3.org/2000/svg">
    <path
        d="M7.45004 13.3736C7.23503 13.8562 7.09291 14.3799 7.03846 14.9291L11.5884 13.95C11.8034 13.4676 11.9454 12.9438 12 12.3946L7.45004 13.3736Z"
        fill="#231F20" />
    <path
        d="M11.5901 10.8875C11.8042 10.3931 11.9458 9.8564 12 9.29367L8.47005 10.0755V8.57252L11.59 7.88206C11.8041 7.3877 11.9457 6.85098 11.9999 6.28825L8.46994 7.06942V1.66423C7.92905 1.9805 7.44868 2.40149 7.0582 2.89808V7.38203L5.64645 7.69452V0.929077C5.10556 1.24524 4.62519 1.66634 4.2347 2.16293V8.0069L1.07592 8.70592C0.861779 9.20028 0.720124 9.737 0.665789 10.2997L4.2347 9.50989V11.4026L0.409913 12.2491C0.195776 12.7434 0.0542281 13.2801 0 13.8429L4.00349 12.9569C4.32939 12.8863 4.6095 12.6856 4.79161 12.4095L5.52582 11.2759V11.2757C5.60204 11.1584 5.64645 11.017 5.64645 10.8647V9.1974L7.0582 8.8849V11.8909L11.59 10.8873L11.5901 10.8875Z"
        fill="#231F20" />
</svg>
