<?xml version="1.0" encoding="UTF-8"?>
<svg xmlns="http://www.w3.org/2000/svg" xmlns:xlink="http://www.w3.org/1999/xlink" width="500pt"
    height="500pt" viewBox="0 0 500 500" version="1.1">
    <g id="surface1">
        <path style=" stroke:none;fill-rule:nonzero;fill:#000000;fill-opacity:1;"
            d="M 248.015625 29.761719 C 190.3125 29.761719 152.140625 65.335938 149.003906 121.527344 C 148.886719 123.96875 148.808594 126.449219 148.808594 128.96875 C 148.769531 145.320313 152.839844 161.675781 157.296875 175.78125 C 152.996094 180.859375 148.847656 188.609375 148.808594 198.375 C 148.808594 199.382813 148.847656 201.785156 148.964844 203.371094 C 151.714844 224.261719 161.171875 234.21875 169.464844 238.25 C 172.214844 257.082031 179.074219 272.894531 188.492188 282.273438 L 188.492188 319.746094 C 182.757813 333.464844 162.800781 341.410156 139.820313 350.632813 C 101.105469 366.054688 52.9375 385.277344 49.601563 445.886719 L 49.601563 456.347656 L 293.898438 456.347656 C 290.21875 450.070313 287.15625 443.445313 284.714844 436.507813 L 70.644531 436.507813 C 77.890625 396.710938 113.039063 382.640625 147.144531 369.039063 C 174.269531 358.1875 199.925781 347.957031 207.828125 324.707031 L 208.332031 323.15625 L 208.332031 272.816406 L 204.34375 269.832031 C 197.792969 264.910156 190.351563 250.613281 188.453125 229.726563 L 187.910156 220.734375 L 178.882813 220.734375 C 176.867188 220.386719 170.628906 215.96875 168.691406 201.242188 C 168.652344 200.582031 168.652344 199.109375 168.652344 198.453125 C 168.691406 190.972656 174.269531 186.75 174.347656 186.710938 L 180.429688 182.445313 L 178.066406 175.433594 C 171.363281 155.4375 168.613281 142.105469 168.652344 129.316406 C 168.691406 80.140625 199.109375 49.601563 248.015625 49.601563 C 267.625 49.601563 278.902344 57.933594 282.621094 65.066406 L 285.0625 69.714844 L 290.257813 70.335938 C 320.675781 73.941406 327.226563 100.910156 327.382813 122.921875 C 327.535156 144.277344 321.027344 165.472656 317.925781 175.664063 L 316.21875 183.339844 L 322.730469 187.328125 C 323.621094 187.910156 327.34375 191.667969 327.382813 198.488281 C 327.382813 199.109375 327.382813 200.582031 327.34375 201.203125 C 325.945313 217.207031 319.203125 220.695313 317.460938 220.734375 L 308.820313 220.734375 L 307.65625 229.296875 C 304.441406 252.742188 297.308594 265.648438 291.691406 269.871094 L 287.699219 272.816406 L 287.699219 323 L 288.320313 324.707031 C 289.90625 328.855469 292.195313 332.457031 294.789063 335.867188 C 298.511719 329.628906 302.773438 323.777344 307.539063 318.351563 L 307.539063 282.234375 C 318.507813 271.113281 323.777344 252.472656 326.257813 238.714844 C 335.246094 234.996094 345.167969 224.917969 347.066406 202.90625 C 347.183594 201.785156 347.222656 199.421875 347.222656 198.335938 C 347.144531 188.609375 343.425781 180.546875 338.734375 175.277344 C 342.378906 162.914063 347.378906 143.269531 347.222656 122.769531 C 346.949219 82.96875 328.890625 57.277344 297.464844 51.386719 C 287.890625 37.9375 269.523438 29.761719 248.015625 29.761719 Z M 396.824219 297.617188 C 342.144531 297.617188 297.617188 342.144531 297.617188 396.824219 C 297.617188 451.503906 342.144531 496.03125 396.824219 496.03125 C 451.503906 496.03125 496.03125 451.503906 496.03125 396.824219 C 496.03125 342.144531 451.503906 297.617188 396.824219 297.617188 Z M 396.824219 317.460938 C 440.769531 317.460938 476.191406 352.878906 476.191406 396.824219 C 476.191406 440.769531 440.769531 476.191406 396.824219 476.191406 C 352.878906 476.191406 317.460938 440.769531 317.460938 396.824219 C 317.460938 352.878906 352.878906 317.460938 396.824219 317.460938 Z M 361.988281 352.066406 C 357.957031 352.105469 354.351563 354.546875 352.800781 358.265625 C 351.292969 362.027344 352.183594 366.289063 355.089844 369.117188 L 382.796875 396.824219 L 355.089844 424.535156 C 352.492188 427.011719 351.445313 430.734375 352.375 434.183594 C 353.269531 437.671875 355.980469 440.382813 359.46875 441.273438 C 362.917969 442.203125 366.636719 441.160156 369.117188 438.5625 L 396.824219 410.855469 L 424.535156 438.5625 C 427.011719 441.160156 430.734375 442.203125 434.183594 441.273438 C 437.671875 440.382813 440.382813 437.671875 441.273438 434.183594 C 442.203125 430.734375 441.160156 427.011719 438.5625 424.535156 L 410.855469 396.824219 L 438.5625 369.117188 C 441.507813 366.25 442.359375 361.910156 440.769531 358.152344 C 439.183594 354.351563 435.460938 351.949219 431.355469 352.066406 C 428.757813 352.144531 426.316406 353.230469 424.535156 355.089844 L 396.824219 382.796875 L 369.117188 355.089844 C 367.257813 353.152344 364.699219 352.105469 361.988281 352.066406 Z " />
    </g>
</svg>
