<svg width="24" height="26" viewBox="0 0 24 26" fill="none" xmlns="http://www.w3.org/2000/svg">
    <path
        d="M10.641 1.71502C11.244 0.667096 12.756 0.667096 13.359 1.71502L14.2242 3.21861C14.6253 3.91569 15.4888 4.19626 16.223 3.86807L17.8067 3.16018C18.9105 2.66682 20.1338 3.55557 20.0057 4.75779L19.8218 6.48276C19.7366 7.28247 20.2703 8.017 21.0572 8.18306L22.7545 8.54126C23.9375 8.79091 24.4047 10.2289 23.5944 11.1262L22.4318 12.4137C21.8928 13.0106 21.8928 13.9185 22.4318 14.5154L23.5944 15.8029C24.4047 16.7002 23.9375 18.1382 22.7545 18.3879L21.0572 18.7461C20.2703 18.9121 19.7366 19.6467 19.8218 20.4464L20.0057 22.1713C20.1338 23.3735 18.9105 24.2623 17.8067 23.7689L16.223 23.0611C15.4888 22.7329 14.6253 23.0134 14.2242 23.7105L13.359 25.2141C12.756 26.262 11.244 26.262 10.641 25.2141L9.77581 23.7105C9.37471 23.0134 8.51122 22.7329 7.77699 23.0611L6.19325 23.7689C5.08947 24.2623 3.8662 23.3736 3.99433 22.1713L4.17818 20.4464C4.26341 19.6467 3.72974 18.9121 2.94283 18.7461L1.24548 18.3879C0.06251 18.1382 -0.404736 16.7002 0.405566 15.8029L1.56821 14.5154C2.10722 13.9185 2.10722 13.0106 1.56821 12.4137L0.405566 11.1262C-0.404737 10.2289 0.0625101 8.79091 1.24548 8.54126L2.94283 8.18306C3.72974 8.017 4.26341 7.28247 4.17818 6.48276L3.99433 4.75779C3.8662 3.55557 5.08947 2.66682 6.19325 3.16018L7.77699 3.86807C8.51122 4.19625 9.37471 3.91569 9.77581 3.21861L10.641 1.71502Z"
        fill="#F9A51A" />
    <path
        d="M9.46348 16.6004L12.7891 10.1358H13.8647L10.5391 16.6004H9.46348ZM10.6927 11.8919C10.6927 12.4407 10.5684 12.8797 10.3196 13.209C10.0708 13.5383 9.73787 13.7029 9.3208 13.7029C8.88178 13.7029 8.53788 13.5456 8.28911 13.2309C8.04033 12.909 7.91594 12.4663 7.91594 11.9029C7.91594 11.3688 8.04033 10.948 8.28911 10.6407C8.5452 10.3334 8.8891 10.1798 9.3208 10.1798C9.72324 10.1798 10.0525 10.3407 10.3086 10.6627C10.5647 10.9773 10.6927 11.3871 10.6927 11.8919ZM9.89153 11.9139C9.89153 11.6285 9.83299 11.3907 9.71592 11.2005C9.60616 11.0029 9.46714 10.9041 9.29885 10.9041C9.13056 10.9041 8.98788 10.9993 8.87081 11.1895C8.76105 11.3797 8.70617 11.6212 8.70617 11.9139C8.70617 12.2285 8.76105 12.4883 8.87081 12.6931C8.98056 12.8907 9.12324 12.9895 9.29885 12.9895C9.47446 12.9895 9.61714 12.8907 9.7269 12.6931C9.83665 12.4883 9.89153 12.2285 9.89153 11.9139ZM15.3463 14.8224C15.3463 15.3712 15.222 15.8102 14.9732 16.1394C14.7244 16.4687 14.3915 16.6333 13.9744 16.6333C13.5354 16.6333 13.1915 16.4724 12.9427 16.1504C12.6939 15.8285 12.5695 15.3895 12.5695 14.8334C12.5695 14.2992 12.6939 13.8785 12.9427 13.5712C13.1988 13.2565 13.5427 13.0992 13.9744 13.0992C14.3768 13.0992 14.7061 13.2602 14.9622 13.5822C15.2183 13.9041 15.3463 14.3175 15.3463 14.8224ZM14.5342 14.8443C14.5342 14.559 14.4793 14.3212 14.3695 14.1309C14.2598 13.9334 14.1208 13.8346 13.9525 13.8346C13.7769 13.8346 13.6342 13.9297 13.5244 14.12C13.4147 14.3029 13.3598 14.5443 13.3598 14.8443C13.3598 15.159 13.4147 15.4187 13.5244 15.6236C13.6342 15.8212 13.7769 15.9199 13.9525 15.9199C14.1208 15.9199 14.2598 15.8212 14.3695 15.6236C14.4793 15.4187 14.5342 15.159 14.5342 14.8443Z"
        fill="white" />
</svg>
