<svg width="16" height="18" viewBox="0 0 16 18" fill="none" xmlns="http://www.w3.org/2000/svg">
<path fill-rule="evenodd" clip-rule="evenodd" d="M10.1747 1.38443C9.83263 1.12932 9.43428 0.999982 9.01047 0.962076C8.75044 0.938819 8.43859 0.938476 8.09249 0.938096C8.06192 0.938063 8.03109 0.938029 8 0.937979C7.9688 0.937929 7.93759 0.937846 7.90637 0.937764C7.60992 0.936981 7.3126 0.936195 7.01744 0.963066C6.58411 1.00251 6.17774 1.13719 5.83146 1.40284C5.57541 1.59927 5.4004 1.83905 5.25257 2.09816C5.11552 2.33837 4.97909 2.63772 4.82417 2.97762L4.55756 3.5625L1.25 3.56303C0.835786 3.56303 0.5 3.89881 0.5 4.31303C0.5 4.72724 0.835786 5.06303 1.25 5.06303H1.90219L2.30092 11.734C2.35717 12.6752 2.40181 13.4221 2.49468 14.0188C2.58992 14.6306 2.74305 15.1402 3.05021 15.586C3.33121 15.9938 3.69322 16.338 4.1132 16.5968C4.57229 16.8796 5.08513 17.0032 5.69555 17.0624L10.2898 17.0625C10.8995 17.0035 11.4118 16.88 11.8706 16.5977C12.2903 16.3395 12.6522 15.9959 12.9333 15.5887C13.2406 15.1436 13.3942 14.6348 13.4901 14.0238C13.5837 13.428 13.6293 12.6822 13.6869 11.7423L14.0957 5.06303H14.75C15.1642 5.06303 15.5 4.72724 15.5 4.31303C15.5 3.89881 15.1642 3.56303 14.75 3.56303L11.5114 3.5625L11.1917 2.9028C11.0328 2.57497 10.8927 2.28598 10.7536 2.05419C10.6034 1.80407 10.4276 1.57311 10.1747 1.38443ZM9.84449 3.5625C9.67467 3.21226 9.56592 2.99022 9.46744 2.82615C9.32324 2.5859 9.15046 2.48058 8.87684 2.45611C8.68238 2.43872 8.42895 2.43803 8.0259 2.43803C7.61278 2.43803 7.35273 2.43874 7.15343 2.45689C6.87286 2.48243 6.69792 2.59176 6.55543 2.8415C6.46211 3.00507 6.36051 3.224 6.20606 3.5625H9.84449ZM5.5625 12.9082C5.5625 13.2189 5.81434 13.4707 6.125 13.4707C6.43566 13.4707 6.6875 13.2189 6.6875 12.9082V8.4082C6.6875 8.09754 6.43566 7.8457 6.125 7.8457C5.81434 7.8457 5.5625 8.09754 5.5625 8.4082L5.5625 12.9082ZM9.875 7.8457C10.1857 7.8457 10.4375 8.09754 10.4375 8.4082V12.9082C10.4375 13.2189 10.1857 13.4707 9.875 13.4707C9.56434 13.4707 9.3125 13.2189 9.3125 12.9082V8.4082C9.3125 8.09754 9.56434 7.8457 9.875 7.8457Z" fill="white"/>
</svg>
