<svg width="18" height="18" viewBox="0 0 18 18" fill="none" xmlns="http://www.w3.org/2000/svg">
<path d="M11.402 1.34549C12.2904 0.817105 13.3862 0.800547 14.2898 1.30221C14.6646 1.5103 15.0065 1.85979 15.515 2.37956L15.653 2.52062C16.1633 3.04152 16.5048 3.39014 16.7075 3.77125C17.194 4.68558 17.1781 5.79168 16.6654 6.6913C16.5098 6.96442 16.281 7.21808 15.9654 7.53096C15.8184 7.67677 15.7448 7.74967 15.6519 7.74947C15.559 7.74927 15.4848 7.67511 15.3365 7.52678L10.5431 2.73332C10.3978 2.58808 10.3252 2.51545 10.3238 2.42421C10.3225 2.33296 10.3922 2.25899 10.5316 2.11105C10.8595 1.76319 11.1199 1.51324 11.402 1.34549Z" fill="white"/>
<path d="M14.472 8.87893C14.4711 8.97336 14.3934 9.04822 14.238 9.19792L8.3613 14.8581C7.32565 15.856 6.68736 16.471 5.87965 16.7865C5.0708 17.1024 4.19123 17.0793 2.76837 17.0418C2.75442 17.0414 1.98225 17.0211 1.80977 16.9923C1.60988 16.959 1.37245 16.8823 1.18462 16.6692C0.99846 16.4579 0.95069 16.2141 0.939512 16.0135C0.929642 15.8364 0.993585 15.0184 0.993758 15.0162L0.993926 15.014C1.09078 13.7684 1.15002 13.0066 1.45083 12.3143C1.75221 11.6206 2.26708 11.0629 3.10713 10.153L8.90158 3.87504C9.05081 3.71335 9.12543 3.63251 9.22126 3.63059C9.31708 3.62867 9.39487 3.70647 9.55046 3.86205L14.244 8.55561C14.3966 8.7082 14.4729 8.7845 14.472 8.87893Z" fill="white"/>
</svg>
