<svg width="14" height="16" viewBox="0 0 14 16" fill="none" xmlns="http://www.w3.org/2000/svg">
<path d="M10 2.94693C9.96247 2.94865 9.92613 2.95068 9.89098 2.95308C9.65315 2.9693 9.42851 3.00429 9.21071 3.0945C8.70534 3.30383 8.30383 3.70535 8.0945 4.21072C8.00429 4.42851 7.9693 4.65315 7.95308 4.89098C7.93749 5.11942 7.93749 5.39768 7.9375 5.73101V5.76894C7.93749 6.10226 7.93749 6.38058 7.95308 6.60902C7.9693 6.84685 8.00429 7.07149 8.0945 7.28928C8.30383 7.79466 8.70534 8.19617 9.21072 8.4055C9.42851 8.49571 9.65315 8.5307 9.89098 8.54692C10.1194 8.56251 10.3977 8.56251 10.731 8.5625H10.7689C11.1023 8.56251 11.3806 8.56251 11.609 8.54692C11.8468 8.5307 12.0715 8.49571 12.2893 8.4055C12.7947 8.19617 13.1962 7.79466 13.4055 7.28928C13.4957 7.07149 13.5307 6.84685 13.5469 6.60902C13.5625 6.38058 13.5625 6.10232 13.5625 5.769V5.73106C13.5625 5.39774 13.5625 5.11942 13.5469 4.89098C13.5307 4.65315 13.4957 4.42851 13.4055 4.21072C13.1962 3.70535 12.7947 3.30383 12.2893 3.0945C12.0715 3.00429 11.8468 2.9693 11.609 2.95308C11.5739 2.95068 11.5375 2.94865 11.5 2.94693V1.25C11.5 0.835787 11.1642 0.5 10.75 0.5C10.3358 0.5 10 0.835786 10 1.25V2.94693Z" fill="white"/>
<path d="M10 14.75C10 15.1642 10.3358 15.5 10.75 15.5C11.1642 15.5 11.5 15.1642 11.5 14.75V10.25C11.5 9.83579 11.1642 9.5 10.75 9.5C10.3358 9.5 10 9.83579 10 10.25V14.75Z" fill="white"/>
<path d="M2.5 14.75C2.5 15.1642 2.83579 15.5 3.25 15.5C3.66421 15.5 4 15.1642 4 14.75V13.0531C4.03753 13.0514 4.07387 13.0493 4.10902 13.0469C4.34685 13.0307 4.57149 12.9957 4.78929 12.9055C5.29466 12.6962 5.69617 12.2947 5.9055 11.7893C5.99571 11.5715 6.0307 11.3468 6.04692 11.109C6.06251 10.8806 6.06251 10.6023 6.0625 10.2689V10.2311C6.06251 9.89771 6.06251 9.61943 6.04692 9.39098C6.0307 9.15315 5.99571 8.92851 5.9055 8.71071C5.69617 8.20534 5.29466 7.80383 4.78929 7.5945C4.57149 7.50429 4.34685 7.4693 4.10902 7.45308C3.88058 7.43749 3.60232 7.43749 3.269 7.4375H3.23106C2.89774 7.43749 2.61942 7.43749 2.39098 7.45308C2.15315 7.4693 1.92851 7.50429 1.71072 7.5945C1.20535 7.80383 0.80383 8.20535 0.594499 8.71072C0.504287 8.92851 0.469305 9.15315 0.453078 9.39098C0.43749 9.61943 0.437495 9.89771 0.4375 10.2311V10.2689C0.437495 10.6023 0.43749 10.8806 0.453078 11.109C0.469305 11.3468 0.504287 11.5715 0.594499 11.7893C0.80383 12.2947 1.20535 12.6962 1.71072 12.9055C1.92851 12.9957 2.15315 13.0307 2.39098 13.0469C2.42613 13.0493 2.46247 13.0514 2.5 13.0531L2.5 14.75Z" fill="white"/>
<path d="M2.5 5.75C2.5 6.16421 2.83579 6.5 3.25 6.5C3.66421 6.5 4 6.16421 4 5.75L4 1.25C4 0.835787 3.66421 0.5 3.25 0.5C2.83579 0.5 2.5 0.835786 2.5 1.25L2.5 5.75Z" fill="white"/>
</svg>
