<svg width="20" height="20" viewBox="0 0 20 20" fill="none" xmlns="http://www.w3.org/2000/svg">
    <path fill-rule="evenodd" clip-rule="evenodd"
        d="M10 1.04163C5.60376 1.04163 1.875 4.67458 1.875 9.10476C1.875 11.3735 2.83489 13.27 4.18074 14.8354C5.5208 16.3939 7.26528 17.6509 8.89853 18.6619L8.90927 18.6686L8.92027 18.6748C9.24963 18.8607 9.6217 18.9583 10 18.9583C10.3783 18.9583 10.7504 18.8607 11.0797 18.6748L11.0893 18.6694L11.0987 18.6636C12.7379 17.6606 14.4827 16.3996 15.8222 14.8364C17.1669 13.2671 18.125 11.366 18.125 9.10476C18.125 4.67458 14.3962 1.04163 10 1.04163ZM10 5.83329C8.15905 5.83329 6.66667 7.32568 6.66667 9.16663C6.66667 11.0076 8.15905 12.5 10 12.5C11.8409 12.5 13.3333 11.0076 13.3333 9.16663C13.3333 7.32568 11.8409 5.83329 10 5.83329Z"
        fill="white" />
</svg>
