<svg width="18" height="18" viewBox="0 0 18 18" fill="none" xmlns="http://www.w3.org/2000/svg">
    <path
        d="M2.25 3.75C2.25 3.33579 2.58579 3 3 3H15C15.4142 3 15.75 3.33579 15.75 3.75C15.75 4.16421 15.4142 4.5 15 4.5L3 4.5C2.58579 4.5 2.25 4.16421 2.25 3.75Z"
        fill="#7F7F7F" />
    <path
        d="M2.25 9C2.25 8.58579 2.58579 8.25 3 8.25L15 8.25C15.4142 8.25 15.75 8.58579 15.75 9C15.75 9.41421 15.4142 9.75 15 9.75L3 9.75C2.58579 9.75 2.25 9.41421 2.25 9Z"
        fill="#7F7F7F" />
    <path
        d="M3 13.5C2.58579 13.5 2.25 13.8358 2.25 14.25C2.25 14.6642 2.58579 15 3 15L15 15C15.4142 15 15.75 14.6642 15.75 14.25C15.75 13.8358 15.4142 13.5 15 13.5L3 13.5Z"
        fill="#7F7F7F" />
</svg>
