<svg width="13" height="14" viewBox="0 0 13 14" fill="none" xmlns="http://www.w3.org/2000/svg">
<path d="M6.49821 0.72876C7.11029 0.72876 7.59242 1.19107 7.90022 1.81488L8.92807 3.8876C8.95924 3.95175 9.03312 4.04208 9.14419 4.12472C9.25515 4.20726 9.36381 4.2528 9.43529 4.26481L11.2959 4.5765C11.968 4.68944 12.5313 5.01888 12.7142 5.59254C12.8969 6.16571 12.6292 6.76136 12.1459 7.24555L12.1454 7.24602L10.7 8.70343C10.6427 8.76119 10.5785 8.87001 10.5383 9.01177C10.4983 9.15257 10.4947 9.28082 10.5129 9.3637L10.5131 9.36484L10.9267 11.1677C11.0982 11.9181 11.0413 12.6622 10.5121 13.0512C9.98107 13.4415 9.25539 13.2685 8.59613 12.8759L6.85198 11.8349C6.77874 11.7911 6.65295 11.7556 6.50113 11.7556C6.35042 11.7556 6.22199 11.7906 6.14398 11.836L6.14288 11.8366L4.40217 12.8756C3.74368 13.2696 3.01889 13.4396 2.4878 13.0489C1.95894 12.6598 1.89924 11.9171 2.0713 11.1674L2.48476 9.36484L2.48502 9.3637C2.50314 9.28082 2.4996 9.15257 2.45962 9.01177C2.41937 8.87001 2.3552 8.76119 2.29791 8.70343L0.851401 7.24497C0.371199 6.7608 0.104359 6.16566 0.285624 5.59333C0.467418 5.01932 1.02965 4.68948 1.70218 4.57646L3.56126 4.26504L3.56185 4.26494C3.63 4.25311 3.73707 4.20808 3.84777 4.12533C3.95868 4.04241 4.03275 3.95188 4.06398 3.8876L4.06555 3.8844L5.0921 1.81433L5.09251 1.81351C5.40322 1.19022 5.88684 0.72876 6.49821 0.72876Z" fill="white"/>
</svg>
