<svg width="25" height="25" viewBox="0 0 25 25" fill="none" xmlns="http://www.w3.org/2000/svg">
    <path
        d="M3.44803 15.9643L4.1444 15.7429L3.44803 15.9643ZM2.38937 9.95481L3.09326 10.151L2.38937 9.95481ZM6.81008 5.3893L6.37446 4.80263H6.37446L6.81008 5.3893ZM2.49737 9.61512L3.18531 9.86146L2.49737 9.61512ZM6.33054 21.672L5.91688 22.2743H5.91688L6.33054 21.672ZM6.0478 21.462L5.59085 22.0322L6.0478 21.462ZM21.052 15.9643L20.3556 15.7429L21.052 15.9643ZM18.4522 21.462L18.9092 22.0322L18.4522 21.462ZM18.1695 21.672L18.5831 22.2743L18.1695 21.672ZM17.6899 5.3893L18.1255 4.80263L17.6899 5.3893ZM22.0026 9.61512L21.3147 9.86146L22.0026 9.61512ZM22.1106 9.95481L21.4067 10.151L22.1106 9.95481ZM12.4247 2.50327L12.3974 3.23348L12.4247 2.50327ZM12.0753 2.50327L12.1026 3.23348L12.0753 2.50327ZM10.3434 17.1822C9.93981 17.1822 9.61266 17.5093 9.61266 17.9129C9.61266 18.3164 9.93981 18.6436 10.3434 18.6436V17.1822ZM14.1566 18.6436C14.5602 18.6436 14.8873 18.3164 14.8873 17.9129C14.8873 17.5093 14.5602 17.1822 14.1566 17.1822V18.6436ZM3.44803 15.9643L4.1444 15.7429C3.65415 14.2009 3.30461 13.0983 3.12116 12.2029C2.94105 11.3239 2.93681 10.7123 3.09326 10.151L2.38937 9.95481L1.68548 9.75863C1.44397 10.6252 1.48352 11.4911 1.68947 12.4963C1.89207 13.4851 2.27083 14.6733 2.75166 16.1857L3.44803 15.9643ZM6.81008 5.3893L6.37446 4.80263C5.11607 5.73703 4.12495 6.47171 3.39116 7.15108C2.64432 7.84252 2.11286 8.52142 1.80943 9.36878L2.49737 9.61512L3.18531 9.86146C3.38113 9.3146 3.73487 8.82446 4.384 8.22347C5.04618 7.61042 5.96179 6.92931 7.2457 5.97597L6.81008 5.3893ZM2.38937 9.95481L3.09326 10.151C3.12047 10.0533 3.15118 9.95677 3.18531 9.86146L2.49737 9.61512L1.80943 9.36878C1.76346 9.49716 1.72212 9.6272 1.68548 9.75863L2.38937 9.95481ZM12.25 22.5V21.7693C10.6625 21.7693 9.53126 21.7683 8.64429 21.6702C7.77525 21.5741 7.21201 21.3909 6.7442 21.0696L6.33054 21.672L5.91688 22.2743C6.65483 22.7811 7.48009 23.0118 8.48372 23.1228C9.46943 23.2317 10.695 23.2307 12.25 23.2307V22.5ZM3.44803 15.9643L2.75166 16.1857C3.23245 17.698 3.60945 18.8869 4.01435 19.8089C4.42577 20.7456 4.89295 21.473 5.59085 22.0322L6.0478 21.462L6.50475 20.8918C6.05948 20.535 5.71232 20.0407 5.35241 19.2212C4.98599 18.3869 4.63468 17.285 4.1444 15.7429L3.44803 15.9643ZM6.33054 21.672L6.7442 21.0696C6.66231 21.0134 6.58244 20.9541 6.50475 20.8918L6.0478 21.462L5.59085 22.0322C5.69656 22.1169 5.80531 22.1977 5.91688 22.2743L6.33054 21.672ZM21.052 15.9643L20.3556 15.7429C19.8653 17.285 19.514 18.3869 19.1476 19.2212C18.7877 20.0407 18.4405 20.535 17.9952 20.8918L18.4522 21.462L18.9092 22.0322C19.607 21.473 20.0742 20.7456 20.4857 19.8089C20.8906 18.8869 21.2675 17.698 21.7483 16.1857L21.052 15.9643ZM12.25 22.5V23.2307C13.805 23.2307 15.0306 23.2317 16.0163 23.1228C17.0199 23.0118 17.8452 22.7811 18.5831 22.2743L18.1695 21.672L17.7558 21.0696C17.288 21.3909 16.7248 21.5741 15.8557 21.6702C14.9687 21.7683 13.8375 21.7693 12.25 21.7693V22.5ZM18.4522 21.462L17.9952 20.8918C17.9176 20.9541 17.8377 21.0134 17.7558 21.0696L18.1695 21.672L18.5831 22.2743C18.6947 22.1977 18.8034 22.1169 18.9092 22.0322L18.4522 21.462ZM17.6899 5.3893L17.2543 5.97597C18.5382 6.92931 19.4538 7.61042 20.116 8.22347C20.7651 8.82446 21.1189 9.3146 21.3147 9.86146L22.0026 9.61512L22.6906 9.36878C22.3871 8.52142 21.8557 7.84252 21.1088 7.15108C20.375 6.47171 19.3839 5.73703 18.1255 4.80263L17.6899 5.3893ZM21.052 15.9643L21.7483 16.1857C22.2292 14.6733 22.6079 13.4851 22.8105 12.4963C23.0165 11.4911 23.056 10.6252 22.8145 9.75863L22.1106 9.95481L21.4067 10.151C21.5632 10.7123 21.5589 11.3239 21.3788 12.2029C21.1954 13.0983 20.8459 14.2009 20.3556 15.7429L21.052 15.9643ZM22.0026 9.61512L21.3147 9.86146C21.3488 9.95676 21.3795 10.0533 21.4067 10.151L22.1106 9.95481L22.8145 9.75863C22.7779 9.6272 22.7365 9.49716 22.6906 9.36878L22.0026 9.61512ZM17.6899 5.3893L18.1255 4.80263C16.8673 3.86835 15.8771 3.13187 15.0178 2.62834C14.1437 2.1162 13.3432 1.80648 12.4521 1.77307L12.4247 2.50327L12.3974 3.23348C12.958 3.2545 13.5189 3.44392 14.2789 3.88926C15.0537 4.3432 15.9702 5.02252 17.2543 5.97597L17.6899 5.3893ZM6.81008 5.3893L7.2457 5.97597C8.52976 5.02252 9.44633 4.3432 10.2211 3.88926C10.9811 3.44392 11.542 3.2545 12.1026 3.23348L12.0753 2.50327L12.0479 1.77307C11.1568 1.80648 10.3563 2.1162 9.48223 2.62834C8.62287 3.13187 7.63271 3.86835 6.37446 4.80263L6.81008 5.3893ZM12.4247 2.50327L12.4521 1.77307C12.3174 1.76802 12.1826 1.76802 12.0479 1.77307L12.0753 2.50327L12.1026 3.23348C12.2008 3.22979 12.2992 3.22979 12.3974 3.23348L12.4247 2.50327ZM10.3434 17.9129V18.6436H14.1566V17.9129V17.1822H10.3434V17.9129Z"
        fill="#009196" />
</svg>
