<svg width="25" height="25" viewBox="0 0 25 25" fill="none" xmlns="http://www.w3.org/2000/svg">
    <path
        d="M3.75 5.5C3.75 4.94772 4.19772 4.5 4.75 4.5H20.75C21.3023 4.5 21.75 4.94772 21.75 5.5C21.75 6.05229 21.3023 6.5 20.75 6.5L4.75 6.5C4.19772 6.5 3.75 6.05228 3.75 5.5Z"
        fill="#7F7F7F" />
    <path
        d="M3.75 12.5C3.75 11.9477 4.19772 11.5 4.75 11.5L20.75 11.5C21.3023 11.5 21.75 11.9477 21.75 12.5C21.75 13.0523 21.3023 13.5 20.75 13.5L4.75 13.5C4.19772 13.5 3.75 13.0523 3.75 12.5Z"
        fill="#7F7F7F" />
    <path
        d="M4.75 18.5C4.19772 18.5 3.75 18.9477 3.75 19.5C3.75 20.0523 4.19772 20.5 4.75 20.5L20.75 20.5C21.3023 20.5 21.75 20.0523 21.75 19.5C21.75 18.9477 21.3023 18.5 20.75 18.5L4.75 18.5Z"
        fill="#7F7F7F" />
</svg>
