<svg width="25" height="25" viewBox="0 0 25 25" fill="none" xmlns="http://www.w3.org/2000/svg">
    <path
        d="M9.65657 16.9385C10.1769 17.4004 11.0766 17.7494 12.1587 17.7494C13.2407 17.7494 14.1404 17.4004 14.6608 16.9385L15.6566 18.0603C14.8088 18.8128 13.5302 19.2494 12.1587 19.2494C10.7872 19.2494 9.50862 18.8128 8.66081 18.0603L9.65657 16.9385Z"
        fill="#7F7F7F" />
    <path fill-rule="evenodd" clip-rule="evenodd"
        d="M20.9089 2.24902L3.40886 2.24902L3.40886 5.29985L1.40886 8.79985L1.40886 8.99902C1.40886 9.98356 1.78827 10.8795 2.40886 11.5486L2.40886 21.999C2.40886 22.4132 2.74465 22.749 3.15886 22.749L21.1589 22.749C21.5731 22.749 21.9089 22.4132 21.9089 21.999L21.9089 11.5486C22.5294 10.8795 22.9089 9.98356 22.9089 8.99902L22.9089 8.79985L20.9089 5.29985L20.9089 2.24902ZM20.4089 12.5356C20.0179 12.6738 19.5972 12.749 19.1589 12.749C17.8941 12.749 16.7755 12.1229 16.0963 11.1636C15.855 11.4402 15.5727 11.6783 15.2674 11.8773C14.3577 12.4703 13.2093 12.749 12.1589 12.749C11.1085 12.749 9.95998 12.4703 9.05035 11.8773C8.745 11.6783 8.46271 11.4402 8.22142 11.1636C7.5422 12.1229 6.42365 12.749 5.15886 12.749C4.72056 12.749 4.29983 12.6738 3.90886 12.5356L3.90886 21.249L20.4089 21.249L20.4089 12.5356ZM8.90886 8.99902L7.40886 8.99902C7.40886 10.2417 6.4015 11.249 5.15886 11.249C3.97882 11.249 3.01096 10.3406 2.91643 9.18495L4.90886 5.6982L4.90886 3.74902L19.4089 3.74902L19.4089 5.69819L21.4013 9.18495C21.3068 10.3406 20.3389 11.249 19.1589 11.249C17.9162 11.249 16.9089 10.2417 16.9089 8.99902L15.4089 8.99902C15.4089 9.6888 15.0552 10.225 14.4482 10.6207C13.8238 11.0278 12.9723 11.249 12.1589 11.249C11.3454 11.249 10.4939 11.0278 9.86949 10.6207C9.26249 10.225 8.90886 9.6888 8.90886 8.99902Z"
        fill="#7F7F7F" />
</svg>
