<svg width="25" height="25" viewBox="0 0 25 25" fill="none" xmlns="http://www.w3.org/2000/svg">
    <path fill-rule="evenodd" clip-rule="evenodd"
        d="M4.39538 3.85491C7.37636 2.02638 10.0506 2.75513 11.6661 3.96836C11.9319 4.16796 12.1143 4.30455 12.2501 4.3968C12.3859 4.30455 12.5683 4.16796 12.8341 3.96836C14.4496 2.75513 17.1238 2.02638 20.1048 3.85491C22.1661 5.11928 23.3259 7.76036 22.9189 10.7949C22.51 13.844 20.5364 17.2927 16.3568 20.3863C16.3218 20.4121 16.2871 20.4378 16.2527 20.4633C14.8014 21.5382 13.8402 22.2501 12.2501 22.2501C10.66 22.2501 9.69885 21.5382 8.24747 20.4633C8.21307 20.4378 8.1784 20.4121 8.14343 20.3863C3.96383 17.2927 1.99024 13.844 1.5813 10.7949C1.17431 7.76036 2.33414 5.11928 4.39538 3.85491ZM12.0934 4.49345C12.0901 4.4949 12.0907 4.49442 12.0947 4.4928C12.0942 4.49305 12.0938 4.49326 12.0934 4.49345ZM12.4054 4.4928C12.4095 4.49442 12.4101 4.4949 12.4068 4.49345C12.4064 4.49326 12.406 4.49305 12.4054 4.4928ZM10.7654 5.1678C9.56885 4.26923 7.56201 3.67221 5.17969 5.13353C3.72156 6.02795 2.72353 8.02721 3.06798 10.5955C3.41047 13.1491 5.09762 16.2657 9.03582 19.1806C10.618 20.3516 11.1955 20.7501 12.2501 20.7501C13.3047 20.7501 13.8822 20.3516 15.4644 19.1806C19.4026 16.2657 21.0897 13.1491 21.4322 10.5955C21.7767 8.02721 20.7786 6.02795 19.3205 5.13353C16.9382 3.67221 14.9313 4.26923 13.7348 5.1678L13.7139 5.18351C13.4435 5.38657 13.2113 5.561 13.0255 5.68263C12.9289 5.74584 12.822 5.81022 12.711 5.86037C12.6057 5.90796 12.4439 5.9675 12.2501 5.9675C12.0563 5.9675 11.8945 5.90796 11.7892 5.86037C11.6782 5.81022 11.5713 5.74584 11.4747 5.68263C11.2889 5.56099 11.0566 5.38655 10.7862 5.18347L10.7654 5.1678Z"
        fill="#7F7F7F" />
</svg>
