<?xml version="1.0" encoding="UTF-8"?>
<svg xmlns="http://www.w3.org/2000/svg" xmlns:xlink="http://www.w3.org/1999/xlink" width="500pt" height="500pt" viewBox="0 0 500 500" version="1.1">
<g id="surface1">
<path style=" stroke:none;fill-rule:nonzero;fill:#000000;fill-opacity:1;" d="M 248.015625 19.839844 C 122.109375 19.839844 19.839844 122.109375 19.839844 248.015625 C 19.839844 373.921875 122.109375 476.191406 248.015625 476.191406 C 323.503906 476.191406 390.546875 439.414063 432.050781 382.875 C 434.261719 380.007813 434.765625 376.171875 433.367188 372.835938 C 431.933594 369.542969 428.835938 367.21875 425.230469 366.871094 C 421.628906 366.519531 418.101563 368.148438 416.046875 371.09375 C 378.148438 422.789063 317.074219 456.347656 248.015625 456.347656 C 132.84375 456.347656 39.683594 363.1875 39.683594 248.015625 C 39.683594 132.84375 132.84375 39.683594 248.015625 39.683594 C 317.074219 39.683594 378.148438 73.242188 416.046875 124.9375 C 418.101563 127.882813 421.628906 129.511719 425.230469 129.160156 C 428.835938 128.8125 431.933594 126.488281 433.367188 123.195313 C 434.765625 119.863281 434.261719 116.023438 432.050781 113.15625 C 390.546875 56.617188 323.503906 19.839844 248.015625 19.839844 Z M 386.789063 158.613281 C 382.757813 158.652344 379.152344 161.09375 377.605469 164.8125 C 376.09375 168.574219 376.984375 172.835938 379.890625 175.664063 L 442.320313 238.09375 L 228.175781 238.09375 C 224.609375 238.054688 221.277344 239.917969 219.457031 243.015625 C 217.671875 246.117188 217.671875 249.914063 219.457031 253.015625 C 221.277344 256.113281 224.609375 257.976563 228.175781 257.9375 L 442.320313 257.9375 L 379.890625 320.367188 C 377.292969 322.847656 376.246094 326.566406 377.179688 330.015625 C 378.070313 333.503906 380.78125 336.214844 384.269531 337.109375 C 387.71875 338.039063 391.4375 336.992188 393.917969 334.394531 L 472.429688 255.921875 C 474.871094 254.023438 476.308594 251.117188 476.308594 248.015625 C 476.308594 244.914063 474.871094 241.96875 472.394531 240.109375 L 393.917969 161.636719 C 392.058594 159.699219 389.5 158.652344 386.789063 158.613281 Z "/>
</g>
</svg>
