<?xml version="1.0" encoding="UTF-8"?>
<svg xmlns="http://www.w3.org/2000/svg" xmlns:xlink="http://www.w3.org/1999/xlink" width="500pt" height="500pt" viewBox="0 0 500 500" version="1.1">
<g id="surface1">
<path style=" stroke:none;fill-rule:nonzero;fill:#000000;fill-opacity:1;" d="M 119.667969 -0.308594 C 113.078125 -0.078125 107.035156 3.410156 103.546875 8.992188 L 56.734375 79.363281 L 35.03125 53.324219 C 30.886719 46.890625 23.40625 43.441406 15.851563 44.410156 C 8.253906 45.378906 1.898438 50.648438 -0.464844 57.894531 C -2.867188 65.183594 -0.890625 73.164063 4.648438 78.433594 L 43.402344 124.9375 C 47.394531 129.703125 53.402344 132.339844 59.601563 132.03125 C 65.800781 131.71875 71.535156 128.542969 75.023438 123.386719 L 136.71875 30.691406 C 140.941406 24.53125 141.292969 16.507813 137.6875 9.960938 C 134.121094 3.410156 127.148438 -0.542969 119.667969 -0.308594 Z M 198.414063 59.523438 L 198.414063 99.207031 L 496.03125 99.207031 L 496.03125 59.523438 Z M 119.667969 168.339844 C 113.078125 168.574219 107.035156 172.0625 103.546875 177.640625 L 56.734375 248.015625 L 35.03125 221.972656 C 30.652344 216.046875 23.328125 213.023438 16.042969 214.144531 C 8.757813 215.269531 2.710938 220.347656 0.308594 227.320313 C -2.09375 234.296875 -0.425781 242.046875 4.648438 247.394531 L 43.402344 293.898438 C 47.433594 298.625 53.476563 301.222656 59.679688 300.835938 C 65.878906 300.488281 71.574219 297.230469 75.023438 292.039063 L 136.71875 199.34375 C 140.941406 193.179688 141.292969 185.160156 137.6875 178.609375 C 134.121094 172.0625 127.148438 168.109375 119.667969 168.339844 Z M 198.414063 228.175781 L 198.414063 267.855469 L 496.03125 267.855469 L 496.03125 228.175781 Z M 119.976563 357.144531 C 119.242188 357.21875 118.542969 357.296875 117.808594 357.453125 C 111.957031 358.1875 106.722656 361.484375 103.546875 366.445313 L 56.734375 436.816406 L 35.03125 410.777344 C 30.652344 404.847656 23.328125 401.824219 16.042969 402.949219 C 8.757813 404.070313 2.710938 409.148438 0.308594 416.125 C -2.09375 423.097656 -0.425781 430.851563 4.648438 436.199219 L 43.402344 482.699219 C 47.433594 487.429688 53.476563 490.023438 59.679688 489.636719 C 65.878906 489.289063 71.574219 486.035156 75.023438 480.839844 L 136.71875 388.453125 C 141.058594 382.332031 141.5625 374.269531 138.035156 367.605469 C 134.472656 360.980469 127.496094 356.949219 119.976563 357.144531 Z M 198.414063 416.667969 L 198.414063 456.347656 L 496.03125 456.347656 L 496.03125 416.667969 Z "/>
</g>
</svg>
